<?xml version="1.0" encoding="utf-8"?>
<!-- Generator: Adobe Illustrator 19.0.1, SVG Export Plug-In . SVG Version: 6.00 Build 0)  -->
<svg version="1.1" id="Layer_1" xmlns="http://www.w3.org/2000/svg" xmlns:xlink="http://www.w3.org/1999/xlink" x="0px" y="0px"
	 viewBox="-437 481 260.3 39" style="enable-background:new -437 481 260.3 39;" xml:space="preserve">
<style type="text/css">
	.st0{fill:#010101;}
	.st1{clip-path:url(#SVGID_2_);fill:#EFBF1B;}
	.st2{clip-path:url(#SVGID_4_);fill:#40BEB0;}
	.st3{clip-path:url(#SVGID_6_);fill:#0AA5DE;}
	.st4{clip-path:url(#SVGID_8_);fill:#010101;}
	.st5{fill:#D7A229;}
	.st6{fill:#009B8F;}
	.st7{fill:none;}
</style>
<g>
	<g>
		<g>
			<path class="st0" d="M-357.7,508.4l0.9-0.1l0.1,1.9c-2.4,0.3-4.5,0.5-6.2,0.5c-2.3,0-3.9-0.7-4.9-2c-1-1.3-1.4-3.4-1.4-6.2
				c0-5.6,2.2-8.3,6.6-8.3c2.1,0,3.7,0.6,4.8,1.8c1.1,1.2,1.6,3.1,1.6,5.6l-0.1,1.8h-10.5c0,1.8,0.3,3.1,1,3.9
				c0.6,0.8,1.7,1.3,3.3,1.3C-361,508.6-359.4,508.5-357.7,508.4z M-358.6,501.5c0-1.9-0.3-3.3-0.9-4.1c-0.6-0.8-1.6-1.2-3-1.2
				s-2.5,0.4-3.2,1.3c-0.7,0.8-1.1,2.2-1.1,4.1h8.2V501.5z"/>
			<path class="st0" d="M-352.3,510.4v-22.8h2.4v22.8H-352.3z"/>
			<path class="st0" d="M-333.9,499.3v8.1c0.1,0.8,0.7,1.2,1.8,1.4l-0.1,1.9c-1.7,0-2.9-0.4-3.8-1.3c-1.9,0.8-3.8,1.3-5.7,1.3
				c-1.5,0-2.6-0.4-3.3-1.2c-0.8-0.8-1.1-2-1.1-3.6c0-1.5,0.4-2.7,1.2-3.4c0.8-0.7,2-1.2,3.7-1.3l5-0.5v-1.4c0-1.1-0.2-1.9-0.7-2.3
				c-0.5-0.5-1.1-0.7-1.9-0.7c-1.7,0-3.5,0.1-5.3,0.3l-1,0.1l-0.1-1.8c2.3-0.5,4.4-0.7,6.2-0.7s3.1,0.4,3.9,1.2
				C-334.4,496.2-333.9,497.5-333.9,499.3z M-343.7,505.8c0,1.9,0.8,2.9,2.4,2.9c1.4,0,2.9-0.2,4.3-0.7l0.7-0.3v-5.2l-4.7,0.4
				c-1,0.1-1.6,0.4-2.1,0.8C-343.5,504.2-343.7,504.9-343.7,505.8z"/>
			<path class="st0" d="M-324.3,496.3c-2.3,0-3.5,0.8-3.5,2.4c0,0.7,0.3,1.3,0.8,1.6c0.5,0.3,1.7,0.6,3.6,1c1.9,0.3,3.2,0.8,4,1.4
				c0.8,0.6,1.2,1.7,1.2,3.3s-0.5,2.8-1.6,3.6c-1,0.8-2.6,1.1-4.6,1.1c-1.3,0-2.9-0.1-4.6-0.4l-1-0.2l0.1-2.1
				c2.4,0.4,4.2,0.5,5.5,0.5c1.2,0,2.2-0.2,2.8-0.6s1-1,1-2c0-0.9-0.3-1.5-0.8-1.9c-0.6-0.3-1.8-0.6-3.6-0.9c-1.9-0.3-3.2-0.7-4-1.3
				c-0.8-0.6-1.2-1.6-1.2-3.2c0-1.5,0.5-2.7,1.6-3.4c1.1-0.7,2.4-1.1,4.1-1.1c1.3,0,2.9,0.1,4.9,0.4l0.9,0.2l-0.1,2
				C-321.1,496.5-322.9,496.3-324.3,496.3z"/>
			<path class="st0" d="M-306.3,496.6h-5v7.6c0,1.8,0.1,3,0.4,3.6c0.3,0.6,0.9,0.9,1.9,0.9l2.8-0.2l0.2,2c-1.4,0.2-2.5,0.3-3.2,0.3
				c-1.7,0-2.8-0.4-3.4-1.2c-0.6-0.8-1-2.3-1-4.6v-8.3h-2.3v-2.1h2.3v-5h2.3v4.9h5C-306.3,494.5-306.3,496.6-306.3,496.6z"/>
			<path class="st0" d="M-303.3,490.9v-2.8h2.4v2.8H-303.3z M-303.3,510.4v-15.9h2.4v15.9H-303.3z"/>
			<path class="st0" d="M-290.4,494.2c0.7,0,1.9,0.1,3.6,0.4l0.8,0.1l-0.1,1.9c-1.7-0.2-2.9-0.3-3.7-0.3c-1.8,0-3,0.4-3.7,1.3
				c-0.6,0.9-1,2.4-1,4.8s0.3,3.9,0.9,4.8c0.6,0.9,1.9,1.4,3.8,1.4l3.7-0.3l0.1,2c-2,0.3-3.4,0.4-4.4,0.4c-2.5,0-4.2-0.6-5.1-1.9
				c-0.9-1.3-1.4-3.4-1.4-6.4s0.5-5.1,1.5-6.3C-294.5,494.8-292.8,494.2-290.4,494.2z"/>
			<path class="st0" d="M-277.6,496.3c-2.3,0-3.5,0.8-3.5,2.4c0,0.7,0.3,1.3,0.8,1.6c0.5,0.3,1.7,0.6,3.6,1c1.9,0.3,3.2,0.8,4,1.4
				c0.8,0.6,1.2,1.7,1.2,3.3s-0.5,2.8-1.6,3.6c-1.1,0.8-2.6,1.1-4.6,1.1c-1.3,0-2.9-0.1-4.6-0.4l-1-0.2l0.1-2.1
				c2.4,0.4,4.2,0.5,5.5,0.5c1.2,0,2.2-0.2,2.8-0.6c0.6-0.4,1-1,1-2c0-0.9-0.3-1.5-0.8-1.9c-0.6-0.3-1.8-0.6-3.6-0.9
				c-1.9-0.3-3.2-0.7-4-1.3c-0.8-0.6-1.2-1.6-1.2-3.2c0-1.5,0.5-2.7,1.6-3.4c1.1-0.7,2.4-1.1,4.1-1.1c1.3,0,2.9,0.1,4.9,0.4l0.9,0.2
				l-0.1,2C-274.4,496.5-276.2,496.3-277.6,496.3z"/>
			<path class="st0" d="M-257,508.4l0.9-0.1l0.1,1.9c-2.4,0.3-4.5,0.5-6.2,0.5c-2.3,0-3.9-0.7-4.9-2c-1-1.3-1.4-3.4-1.4-6.2
				c0-5.6,2.2-8.3,6.6-8.3c2.1,0,3.7,0.6,4.8,1.8s1.6,3.1,1.6,5.6l-0.1,1.8h-10.5c0,1.8,0.3,3.1,1,3.9c0.6,0.8,1.7,1.3,3.3,1.3
				S-258.6,508.5-257,508.4z M-257.8,501.5c0-1.9-0.3-3.3-0.9-4.1c-0.6-0.8-1.6-1.2-3-1.2c-1.4,0-2.5,0.4-3.2,1.3
				c-0.7,0.8-1.1,2.2-1.1,4.1h8.2V501.5z"/>
			<path class="st0" d="M-240.5,499.3v8.1c0.1,0.8,0.7,1.2,1.8,1.4l-0.1,1.9c-1.7,0-2.9-0.4-3.8-1.3c-1.9,0.8-3.8,1.3-5.7,1.3
				c-1.5,0-2.6-0.4-3.3-1.2c-0.8-0.8-1.1-2-1.1-3.6c0-1.5,0.4-2.7,1.2-3.4s2-1.2,3.7-1.3l5-0.5v-1.4c0-1.1-0.2-1.9-0.7-2.3
				c-0.5-0.5-1.1-0.7-1.9-0.7c-1.7,0-3.5,0.1-5.3,0.3l-1,0.1l-0.1-1.8c2.3-0.5,4.4-0.7,6.2-0.7s3.1,0.4,3.9,1.2
				C-241,496.2-240.5,497.5-240.5,499.3z M-250.3,505.8c0,1.9,0.8,2.9,2.4,2.9c1.4,0,2.9-0.2,4.3-0.7l0.7-0.3v-5.2l-4.7,0.4
				c-1,0.1-1.6,0.4-2.1,0.8C-250.1,504.2-250.3,504.9-250.3,505.8z"/>
			<path class="st0" d="M-235.8,510.4v-15.9h2.3v2.2c1.8-1.3,3.8-2.1,5.8-2.5v2.4c-0.9,0.2-1.8,0.4-2.8,0.8s-1.7,0.7-2.2,1l-0.8,0.4
				v11.7h-2.3V510.4z"/>
			<path class="st0" d="M-219.2,494.2c0.7,0,1.9,0.1,3.6,0.4l0.8,0.1l-0.1,1.9c-1.7-0.2-2.9-0.3-3.7-0.3c-1.8,0-3,0.4-3.7,1.3
				c-0.6,0.9-1,2.4-1,4.8s0.3,3.9,0.9,4.8c0.6,0.9,1.9,1.4,3.8,1.4l3.7-0.3l0.1,2c-2,0.3-3.4,0.4-4.4,0.4c-2.5,0-4.2-0.6-5.1-1.9
				c-0.9-1.3-1.4-3.4-1.4-6.4s0.5-5.1,1.5-6.3C-223.3,494.8-221.6,494.2-219.2,494.2z"/>
			<path class="st0" d="M-209,510.4h-2.4v-22.8h2.4v7.8c1.7-0.8,3.3-1.2,4.9-1.2c2.1,0,3.5,0.6,4.3,1.7c0.7,1.1,1.1,3.2,1.1,6.1v8.4
				h-2.4v-8.3c0-2.2-0.2-3.7-0.7-4.5c-0.4-0.8-1.3-1.2-2.7-1.2c-1.3,0-2.6,0.2-3.9,0.7l-0.6,0.2L-209,510.4L-209,510.4z"/>
		</g>
	</g>
	<g>
		<g>
			<g>
				<g>
					<defs>
						<circle id="SVGID_1_" cx="-395.5" cy="500.5" r="19.5"/>
					</defs>
					<clipPath id="SVGID_2_">
						<use xlink:href="#SVGID_1_"  style="overflow:visible;"/>
					</clipPath>
					<path class="st1" d="M-385.7,492H-414c-0.6,0-1-0.5-1-1v-9c0-0.6,0.5-1,1-1h35.1c0.6,0,1,0.5,1,1v2.1
						C-377.9,488.4-381.4,492-385.7,492z"/>
				</g>
				<g>
					<defs>
						<circle id="SVGID_3_" cx="-395.5" cy="500.5" r="19.5"/>
					</defs>
					<clipPath id="SVGID_4_">
						<use xlink:href="#SVGID_3_"  style="overflow:visible;"/>
					</clipPath>
					<path class="st2" d="M-377.8,520h-37.1l0,0v-10.9l0,0h28.3c4.9,0,8.9,4,8.9,8.9L-377.8,520L-377.8,520z"/>
				</g>
				<g>
					<defs>
						<circle id="SVGID_5_" cx="-395.5" cy="500.5" r="19.5"/>
					</defs>
					<clipPath id="SVGID_6_">
						<use xlink:href="#SVGID_5_"  style="overflow:visible;"/>
					</clipPath>
					<path class="st3" d="M-389.4,506h-27.5v-11h27.6c3,0,5.5,2.5,5.5,5.5l0,0C-383.9,503.5-386.3,506-389.4,506z"/>
				</g>
				<g>
					<defs>
						<circle id="SVGID_7_" cx="-395.5" cy="500.5" r="19.5"/>
					</defs>
					<clipPath id="SVGID_8_">
						<use xlink:href="#SVGID_7_"  style="overflow:visible;"/>
					</clipPath>
					<path class="st4" d="M-397.9,495H-416v11h18.1c0.4-1.7,0.6-3.5,0.6-5.5S-397.5,496.7-397.9,495z"/>
				</g>
			</g>
			<path class="st5" d="M-405.3,483.6c-3.3,1.9-6,4.8-7.7,8.3h14.4C-400.1,488.6-402.4,485.8-405.3,483.6z"/>
			<path class="st6" d="M-404.7,517.7c2.8-2.3,5-5.2,6.4-8.6H-413C-411.2,512.7-408.3,515.7-404.7,517.7z"/>
		</g>
	</g>
</g>
<rect x="-437" y="481" class="st7" width="260.3" height="39"/>
</svg>
