<?xml version="1.0" encoding="UTF-8" standalone="no"?>
<!-- Created with Inkscape (http://www.inkscape.org/) -->

<svg
   xmlns:dc="http://purl.org/dc/elements/1.1/"
   xmlns:cc="http://creativecommons.org/ns#"
   xmlns:rdf="http://www.w3.org/1999/02/22-rdf-syntax-ns#"
   xmlns:svg="http://www.w3.org/2000/svg"
   xmlns="http://www.w3.org/2000/svg"
   xmlns:sodipodi="http://sodipodi.sourceforge.net/DTD/sodipodi-0.dtd"
   xmlns:inkscape="http://www.inkscape.org/namespaces/inkscape"
   version="1.1"
   id="svg888"
   width="512"
   height="521"
   viewBox="0 0 512 521"
   sodipodi:docname="write-concern.svg"
   inkscape:version="0.92.4 (5da689c313, 2019-01-14)">
  <metadata
     id="metadata894">
    <rdf:RDF>
      <cc:Work
         rdf:about="">
        <dc:format>image/svg+xml</dc:format>
        <dc:type
           rdf:resource="http://purl.org/dc/dcmitype/StillImage" />
        <dc:title></dc:title>
      </cc:Work>
    </rdf:RDF>
  </metadata>
  <defs
     id="defs892" />
  <sodipodi:namedview
     pagecolor="#ffffff"
     bordercolor="#666666"
     borderopacity="1"
     objecttolerance="10"
     gridtolerance="10"
     guidetolerance="10"
     inkscape:pageopacity="0"
     inkscape:pageshadow="2"
     inkscape:window-width="1908"
     inkscape:window-height="947"
     id="namedview890"
     showgrid="false"
     inkscape:zoom="0.52033686"
     inkscape:cx="978.31178"
     inkscape:cy="564.49616"
     inkscape:window-x="0"
     inkscape:window-y="49"
     inkscape:window-maximized="1"
     inkscape:current-layer="svg888" />
  <g
     id="g4832"
     transform="matrix(0.50810254,0,0,0.50810254,0,-0.31320604)">
    <path
       style="fill:#f9fafa"
       d="M 0,513 V 0 h 504 504 v 513 513 H 504 0 Z"
       id="path4840"
       inkscape:connector-curvature="0" />
    <path
       style="fill:#3d93c3"
       d="M 26.222506,1002.4433 24,1000.8866 V 959.5 918.11341 l 2.222506,-1.55671 C 28.2129,915.16258 46.208405,915 198.53138,915 c 145.362,0 170.36853,0.20644 172.02749,1.42019 1.86772,1.36648 1.94113,2.99578 1.94113,43.08112 0,40.08579 -0.0734,41.71459 -1.94113,43.07979 -1.65811,1.212 -26.74001,1.4189 -172.02749,1.4189 -152.322975,0 -170.31848,-0.1626 -172.308874,-1.5567 z M 291.1767,970.35049 c 5.68862,-11.86853 7.12885,-16.94203 4.5733,-16.11036 -0.6875,0.22373 -2.29622,2.28623 -3.57492,4.58333 -1.27871,2.2971 -2.73207,4.17654 -3.22968,4.17654 -0.49761,0 -1.83423,-1.82192 -2.97026,-4.04872 -1.99324,-3.90709 -4.40338,-5.85637 -5.67218,-4.58757 -0.33594,0.33593 0.80847,3.68992 2.54312,7.4533 1.73466,3.76337 3.15392,7.60907 3.15392,8.54599 0,0.93692 -1.15566,3.98408 -2.56814,6.77147 -1.41248,2.7874 -2.30716,5.74812 -1.98817,6.57938 1.08236,2.82058 3.69595,-0.76786 9.73301,-13.36336 z m -179.4693,3.60167 c 6.22863,-2.17132 6.94676,-10.69941 1.27505,-15.14188 -1.62225,-1.27065 -4.30694,-3.35701 -5.96599,-4.63634 -5.44077,-4.19549 -3.08831,-8.8493 3.99311,-7.89948 3.43242,0.46038 3.99043,0.27152 3.99043,-1.35056 0,-3.94445 -10.65896,-3.67659 -13.47126,0.33853 -1.821172,2.60009 -1.948135,7.62708 -0.24694,9.77731 0.67001,0.84686 3.3686,3.06991 5.99686,4.94011 5.44538,3.87477 7.04484,7.57922 4.17767,9.67574 -2.3536,1.721 -4.2704,1.68987 -7.75148,-0.12587 -2.45528,-1.28068 -2.86406,-1.27839 -3.36188,0.0189 -0.787564,2.05237 1.29299,4.25458 4.48021,4.7422 1.47225,0.22524 2.94717,0.47695 3.2776,0.55936 0.33042,0.0824 1.95341,-0.3217 3.60662,-0.89801 z m 27.11413,-2.26475 c 0.27613,-1.43312 -0.32657,-1.57993 -4.2683,-1.03965 -3.62236,0.4965 -5.00753,0.25108 -6.57152,-1.16432 -4.06371,-3.6776 -2.22245,-5.17818 7.01829,-5.71972 3.81308,-0.22346 4.54891,-0.60818 4.82041,-2.52024 C 140.21754,958.44658 135.0685,953 132.02726,953 c -3.66102,0 -7.68969,2.76885 -9.46158,6.50282 -1.91129,4.02777 -1.48368,7.69463 1.32721,11.38108 3.10475,4.07183 14.18402,4.66815 14.92864,0.80351 z m -10.71725,-10.57744 c -2.54356,-1.65497 -0.45178,-4.26988 3.13884,-3.92384 2.48559,0.23954 3.25688,0.78751 3.25688,2.31387 0,2.21711 -3.93876,3.2086 -6.39572,1.60997 z m 30.96146,12.85485 C 162.2054,972.28452 161.29071,971 156.95455,971 c -5.54041,0 -9.45304,-3.75753 -8.56035,-8.22098 0.86472,-4.32364 2.13653,-5.52394 6.66337,-6.28875 4.11436,-0.69511 5.05833,-1.84808 2.36064,-2.88328 -5.18096,-1.98812 -10.69521,1.24781 -12.52316,7.34898 -2.59687,8.66756 6.56572,17.0789 14.17069,13.00885 z m 20.61916,-0.0314 c 5.01215,-1.89906 7.3151,-4.86486 7.3151,-9.42061 0,-7.78079 -8.32706,-12.8367 -15.70305,-9.53436 -8.91329,3.99059 -8.04988,16.1778 1.3456,18.99337 3.89442,1.16706 3.86031,1.16724 7.04235,-0.0384 z m -8.23035,-5.38794 c -2.73648,-2.73647 -2.86601,-3.33304 -1.50242,-6.91955 2.65309,-6.97814 13.04787,-5.02987 13.04787,2.44553 0,6.31782 -6.99212,9.02736 -11.54545,4.47402 z M 196,967.16349 C 196,960.64889 197.92316,957 201.3567,957 c 3.58722,0 4.6433,1.95089 4.6433,8.57756 0,4.24937 0.4645,6.56305 1.48817,7.41262 2.17612,1.80602 2.81465,-0.62519 2.34539,-8.93003 -0.54884,-9.71301 -2.1527,-11.34507 -10.26492,-10.44539 -3.33775,0.37017 -6.39925,1.17078 -6.80333,1.77914 -1.20662,1.81662 -0.88218,16.08923 0.39477,17.36618 1.99426,1.99426 2.83992,0.32773 2.83992,-5.59659 z M 234.5,958.5 c 0,-12.66667 -0.23333,-15 -1.5,-15 -0.98404,0 -1.6141,1.20253 -1.8317,3.49599 -0.41459,4.36945 -1.73236,6.00401 -4.8404,6.00401 -3.22138,0 -8.01674,2.55007 -9.29826,4.94461 -0.5663,1.05815 -1.02964,3.78811 -1.02964,6.06657 0,3.26081 0.63256,4.77522 2.97153,7.1142 2.75347,2.75347 3.43228,2.94963 9.25,2.67308 L 234.5,973.5 Z m -13.00887,11.11717 c -2.49918,-1.82744 -2.51968,-7.82315 -0.0361,-10.56743 2.38626,-2.63679 7.12604,-2.70111 8.50983,-0.11548 1.41029,2.63516 1.30778,9.39314 -0.16482,10.86574 -1.61473,1.61473 -5.98198,1.51864 -8.30887,-0.18283 z M 255.09625,972 c -0.22206,-0.825 -0.76709,-4.65 -1.21117,-8.5 -0.61437,-5.32632 -1.32139,-7.41842 -2.95703,-8.75 -2.6594,-2.16501 -5.79125,-2.23455 -8.70554,-0.1933 -3.3437,2.34202 -2.69582,3.34304 2.02749,3.13263 3.87708,-0.17272 4.25,0.0222 4.25,2.22145 0,1.86605 -0.79085,2.67468 -3.5,3.5787 -4.28837,1.43099 -6.63755,5.45073 -4.98741,8.53405 0.98257,1.83594 1.89109,2.0297 8.29541,1.76911 5.81692,-0.23669 7.1148,-0.57943 6.78825,-1.79264 z M 245.25,971.28154 c -1.71514,-0.61499 -1.57319,-3.76842 0.23727,-5.27097 1.98043,-1.64362 4.51273,-0.56461 4.51273,1.92286 0,2.15504 -2.7235,4.07474 -4.75,3.34811 z m 20.10785,0.96846 c 0.27094,-0.9625 0.51105,-3.94775 0.53358,-6.6339 0.0511,-6.09632 2.24828,-8.96396 6.20264,-8.09544 3.30786,0.72653 4.75601,-1.09915 2.58999,-3.26517 -1.2913,-1.2913 -2.04266,-1.3496 -4.46458,-0.3464 -1.6016,0.6634 -4.0866,0.91138 -5.52222,0.55106 -2.17753,-0.54652 -2.70286,-0.26598 -3.16906,1.69236 -0.43968,1.84692 -0.25528,9.62189 0.40551,17.09749 0.13402,1.51622 2.94709,0.69468 3.42414,-1 z m 111.23831,-8.55603 c -2.56938,-1.87878 -1.73217,-5.93611 1.40384,-6.8033 4.25074,-1.17544 590.86648,-1.0325 593.06574,0.14451 2.51698,1.34705 2.51698,5.58259 0,6.92964 C 969.74493,964.67169 875.45372,965 673.75687,965 432.2775,965 378.05636,964.7617 376.59616,963.69397 Z M 778.69081,950.25 c -3.15928,-6.38567 -11.87984,-32.31502 -11.3407,-33.71998 0.36812,-0.95932 1.85865,-1.53002 3.99606,-1.53002 1.87492,0 3.85275,-0.5625 4.39518,-1.25 0.6184,-0.78379 1.22656,-32.28482 1.63059,-84.46046 0.6327,-81.70683 0.60924,-83.22924 -1.29806,-84.25 -3.03729,-1.62551 -27.27973,-1.34072 -29.58864,0.3476 -2.09193,1.52965 -2.27699,-0.2444 2.60387,24.96143 1.0489,5.41671 1.63911,10.28216 1.31159,10.8121 -0.32752,0.52994 -2.885,0.82308 -5.68329,0.65143 -4.85554,-0.29785 -5.19032,-0.15232 -7.33354,3.1879 -8.09576,12.61727 -16.45685,20.65535 -28.34219,27.24725 L 702,816.15274 v 15.30119 c 0,11.4759 -0.33095,15.57584 -1.32379,16.39983 C 697.80357,850.23783 697,846.96016 697,832.85902 c 0,-7.55754 -0.37014,-13.96975 -0.82253,-14.24934 -0.4524,-0.27959 -3.93973,0.14385 -7.74963,0.94098 -25.06037,5.24332 -52.01579,-2.84583 -69.00917,-20.70919 -12.98625,-13.65107 -18.30169,-25.22064 -20.508,-44.63757 -0.53772,-4.73233 -1.22501,-8.85166 -1.5273,-9.15407 C 597.08108,744.74742 547.03365,744.275 486.16687,744 L 375.5,743.5 v -3 c 0,-2.78876 0.31686,-3.04759 4.5,-3.67588 2.475,-0.37173 92.78594,-0.70923 200.69098,-0.75 125.20432,-0.0473 196.40728,-0.4241 196.78878,-1.04137 0.32879,-0.53199 0.95847,-55.13367 1.39929,-121.33705 0.44083,-66.20339 1.12493,-120.89313 1.52024,-121.53275 0.95418,-1.5439 5.08712,-1.48671 6.39441,0.0885 0.71551,0.86213 0.78246,38.55275 0.21523,121.16 -0.45285,65.94971 -0.59197,120.51157 -0.30916,121.24857 0.28281,0.737 1.02856,1.35651 1.65722,1.37669 0.62865,0.0202 40.33923,0.004 88.24573,-0.0354 47.90649,-0.0396 88.94121,0.22193 91.18826,0.58125 4.24715,0.67914 5.67344,2.37881 4.66431,5.55831 -0.56948,1.79427 -3.77297,1.85912 -91.83155,1.85912 -71.45046,0 -91.59778,0.27114 -92.88409,1.25 -1.49627,1.13864 -1.66919,8.73331 -1.94112,85.25 l -0.29853,84 4.75,0.30479 c 4.08673,0.26223 4.75,0.60262 4.75,2.4377 C 795,920.07828 782.03935,953 780.92295,953 c -0.47937,0 -1.48384,-1.2375 -2.23214,-2.75 z M 685,811.59734 c 15.0615,-2.73781 24.17549,-7.0236 33.51488,-15.76014 3.62778,-3.39361 7.77459,-8.18137 9.21512,-10.63946 2.52664,-4.31137 2.55325,-4.51745 0.75345,-5.8335 C 727.45731,778.61391 726.08385,778 725.43132,778 c -0.65254,0 -1.66067,-0.57143 -2.24031,-1.26984 -0.78019,-0.94008 1.1314,-4.90034 7.36109,-15.25 4.62823,-7.68909 8.42237,-14.49018 8.43143,-15.11353 0.009,-0.62335 -0.99603,-1.40471 -2.23353,-1.73634 -3.1738,-0.85055 -124.71027,-0.58437 -127.75,0.27979 -2.35769,0.67025 -2.48159,1.04881 -2.17659,6.65032 0.41606,7.64138 3.47371,20.14152 6.26527,25.61343 13.29435,26.05908 42.09137,39.84403 71.91132,34.42351 z m 22.41072,47.0306 c -0.28246,-0.73609 0.63457,-3.9345 2.03785,-7.10757 C 712.67612,844.2223 712.64731,843.22528 709,836 c -1.65,-3.26863 -3,-6.66379 -3,-7.54481 0,-2.87114 3.24529,-1.09307 5.5573,3.04481 2.82396,5.05411 4.78663,5.49811 6.45881,1.4611 2.43487,-5.87828 6.69478,-8.26557 5.67808,-3.18203 -0.88905,4.44521 -12.80579,29.04978 -14.35822,29.6455 -0.77642,0.29794 -1.64279,-0.0605 -1.92525,-0.79663 z m -57.97081,-0.92393 c -0.27352,-0.71279 -0.3719,-7.80029 -0.21861,-15.75 L 649.5,827.5 655,827.22922 c 7.23025,-0.35598 11.41884,2.099 13.0883,7.67117 C 670.27851,842.21066 665.35578,849 657.86514,849 654.13212,849 654,849.11684 654,852.41821 c 0,1.88002 -0.27314,4.13002 -0.60699,5 -0.73205,1.90769 -3.26057,2.0905 -3.9531,0.2858 z M 662.19301,843.25 c 3.73634,-4.35039 2.8379,-9.16613 -2.09092,-11.20771 C 655.17047,829.99954 654,831.10433 654,837.80195 c 0,3.22559 0.3,6.16472 0.66667,6.53138 1.31482,1.31483 6.05234,0.63292 7.52634,-1.08333 z m 11.2469,14.45401 c -0.27352,-0.71279 -0.3719,-7.80029 -0.21861,-15.75 L 673.5,827.5 679,827.22922 c 7.23025,-0.35598 11.41884,2.099 13.0883,7.67117 C 694.27851,842.21066 689.35578,849 681.86514,849 c -3.54654,0 -3.86627,0.22668 -3.87879,2.75 -0.0214,4.3092 -1.08997,7.25 -2.63437,7.25 -0.77811,0 -1.63854,-0.58319 -1.91207,-1.29599 z m 12.73135,-14.359 c 2.25957,-2.04488 2.40732,-7.62358 0.25881,-9.77208 -1.87206,-1.87206 -5.89435,-3.02206 -7.37323,-2.10806 -1.14595,0.70824 -1.48156,11.77708 -0.39017,12.86846 1.25183,1.25183 5.67256,0.66964 7.50459,-0.98832 z M 616,847.47405 c 0,-0.83927 2.76052,-8.06264 6.13448,-16.05193 7.97447,-18.88293 8.05135,-18.88312 16.58147,-0.0422 3.45623,7.63398 6.28405,14.72148 6.28405,15.75 0,3.33244 -2.90284,1.98151 -5.11401,-2.37995 -2.72052,-5.36615 -3.3002,-5.71937 -9.38599,-5.71937 -6.08579,0 -6.66547,0.35322 -9.38599,5.71937 C 619.007,848.90601 616,850.50773 616,847.47405 Z m 18,-14.75154 C 634,830.31602 631.46416,826 630.05025,826 c -1.04193,0 -4.00854,7.22566 -3.38717,8.25 0.25023,0.4125 2.0034,0.75 3.89594,0.75 C 633.47309,835 634,834.65125 634,832.72251 Z M 27.25,784.51824 24,783.09655 v -42.0993 -42.0993 l 3.467881,-1.44898 c 5.305902,-2.21694 337.219079,-2.17933 341.508279,0.0387 4.01004,2.07367 4.26012,5.19936 3.86016,48.24613 -0.308,33.14867 -0.48667,36.3468 -2.1219,37.98136 -1.69801,1.6973 -10.08485,1.79563 -171,2.0048 C 55.290476,785.9077 30.023864,785.73164 27.25,784.51824 Z m 263.22136,-31.76956 c 3.47971,-7.28822 6.48468,-14.15072 6.6777,-15.25 0.63243,-3.60182 -2.51452,-2.17184 -4.95448,2.25132 -1.28943,2.3375 -2.75157,4.25 -3.24918,4.25 -0.49761,0 -1.79473,-1.7445 -2.88248,-3.87667 -1.99952,-3.91938 -4.52924,-5.79586 -5.56161,-4.12545 -0.30951,0.5008 0.80108,3.91839 2.46797,7.59465 1.6669,3.67625 3.03072,7.32569 3.03072,8.10986 0,0.78417 -1.13279,3.9023 -2.51731,6.92917 -2.41877,5.28796 -2.51798,7.36844 -0.35137,7.36844 0.5573,0 3.86032,-5.96309 7.34004,-13.25132 z m -175.23158,0.20353 c 0.99701,-1.23125 1.76022,-3.83803 1.76022,-6.0121 0,-3.28089 -0.54461,-4.23686 -3.75,-6.58246 -9.69854,-7.09707 -11.52263,-10.5431 -6.57628,-12.4237 1.47055,-0.5591 3.9872,-0.72806 5.59254,-0.37547 2.47161,0.54286 2.86496,0.35766 2.56729,-1.2087 -0.56957,-2.99705 -9.33935,-3.16268 -12.45548,-0.23524 -3.609362,3.39083 -3.301566,9.02598 0.6587,12.0594 10.31864,7.90373 11.76236,10.08803 8.47239,12.81846 -1.43415,1.19024 -4.37445,1.02 -9.36003,-0.54192 -1.94846,-0.61043 -2.289287,-0.41677 -1.99114,1.1314 0.90106,4.67879 11.61452,5.65222 15.08179,1.37033 z m 22.55444,1.47937 c 3.26674,-2.28812 1.82147,-3.41006 -3.57208,-2.77295 -3.93826,0.4652 -5.03278,0.21401 -6.59342,-1.51317 -2.41931,-2.67747 -1.44134,-5.12347 2.0899,-5.22703 l 2.78138,-0.0816 -3.25,-1.42129 c -1.7875,-0.78171 -3.25,-1.81491 -3.25,-2.29598 0,-1.73792 2.93845,-3.25728 5.68953,-2.94184 2.47488,0.28378 2.79286,0.71033 2.66302,3.57226 -0.1353,2.98233 0.10148,3.25 2.875,3.25 2.8721,0 2.99121,-0.16167 2.39444,-3.25 -0.84252,-4.36008 -3.95056,-6.75 -8.77823,-6.75 -6.50321,0 -9.61112,4.36555 -8.89897,12.5 0.58094,6.6358 10.24044,10.86027 15.84943,6.93158 z m 22.07466,0.22641 C 161.43082,752.77596 160.27389,752 155.90591,752 c -2.87173,0 -4.2507,-0.62287 -5.83333,-2.63486 -2.72177,-3.46016 -2.61667,-5.91196 0.38197,-8.91059 1.70418,-1.70419 3.56387,-2.45455 6.08333,-2.45455 4.22441,0 4.31128,-1.88361 0.15082,-3.27043 -1.98713,-0.66238 -3.66262,-0.41838 -6.4375,0.9375 -6.92943,3.3859 -7.77487,13.41605 -1.54395,18.31729 2.95034,2.32074 9.46818,2.71411 11.16163,0.67363 z m 20.91591,0.26719 c 6.44695,-2.24742 8.49532,-11.37234 3.64228,-16.22538 -7.1929,-7.1929 -18.92707,-2.99214 -18.92707,6.77578 0,8.09973 6.90724,12.37003 15.28479,9.4496 z m -9.71221,-5.56004 c -2.39443,-3.04402 -2.48647,-3.7103 -0.92288,-6.68088 1.54988,-2.94453 2.79072,-3.65087 6.44531,-3.66895 5.61795,-0.0278 8.27488,5.87004 4.84829,10.76218 -2.27799,3.25229 -7.65633,3.03844 -10.37072,-0.41235 z m 62.83312,5.24848 c 0.78022,-0.9401 1.06106,-6.01013 0.87245,-15.75 C 234.54621,726.88625 234.2508,724.5 233,724.5 c -0.85868,0 -1.61969,1.06887 -1.77995,2.5 -0.66905,5.97459 -1.22148,7 -3.77122,7 -7.62866,0 -12.19667,5.38778 -11.15467,13.15646 0.73145,5.45337 2.66284,7.16095 8.96462,7.92581 2.88267,0.34987 5.74862,0.69949 6.36878,0.77693 0.62015,0.0774 1.64532,-0.48307 2.27814,-1.24558 z m -10.60294,-2.81057 c -2.49883,-1.20731 -4.51885,-6.01096 -3.60856,-8.58123 1.67129,-4.71901 7.20597,-6.92165 10.1058,-4.02182 1.77441,1.77441 1.51415,10.343 -0.37143,12.22857 -1.79713,1.79714 -3.02579,1.87225 -6.12581,0.37448 z m 31.48734,2.82667 c 0.86176,-0.53259 0.92361,-1.29614 0.2126,-2.62467 -0.55148,-1.03046 -1.0027,-3.636 -1.0027,-5.79009 0,-6.09941 -1.73206,-9.86134 -5.20214,-11.29869 -2.54616,-1.05466 -3.50605,-1.02801 -5.60492,0.15557 -1.39292,0.78549 -2.73898,2.05159 -2.99123,2.81355 -0.35857,1.08312 0.31159,1.2409 3.07153,0.72313 2.54939,-0.47827 3.9624,-0.23002 5.08597,0.89355 2.19636,2.19636 1.10528,4.09492 -3.3861,5.89201 -4.59118,1.83703 -6.51686,4.72139 -5.01975,7.51877 0.56305,1.05206 1.48389,2.06456 2.04633,2.25 1.90027,0.62652 11.56594,0.22364 12.79041,-0.53313 z m -9.5401,-1.292 c -1.6747,-0.67575 -1.59297,-4.80819 0.12325,-6.23253 3.25268,-2.69948 6.4716,2.64996 3.42675,5.69481 -1.27897,1.27897 -1.59452,1.32677 -3.55,0.53772 z m -49.17509,-5.60393 C 196.70732,740.46598 198.08172,738 201.5,738 c 3.42133,0 4.37082,1.92777 4.69956,9.54169 0.23251,5.38497 0.6396,6.95831 1.80044,6.95831 1.21162,0 1.5,-1.57959 1.5,-8.2163 0,-11.15358 -0.91796,-12.03571 -11.5,-11.05107 -1.925,0.17911 -4.0625,0.6766 -4.75,1.10553 -1.317,0.82168 -1.80164,14.06071 -0.62679,17.12232 1.28205,3.34098 2.89561,0.66394 3.4517,-5.72669 z m 69.2948,5.01621 c 0.33164,-1.2375 0.60913,-4.3324 0.61664,-6.87756 0.0156,-5.29597 1.10878,-6.57497 6.01766,-7.04074 2.29346,-0.2176 3.49599,-0.84766 3.49599,-1.8317 0,-2.30777 -12.35433,-2.14037 -13.59854,0.18426 -1.01313,1.8929 -1.22909,13.79839 -0.29447,16.23395 0.88879,2.31616 3.06659,1.92941 3.76272,-0.66821 z m 327.24858,-36.5 c -2.60796,-7.0125 -5.67279,-15.12867 -6.81074,-18.03594 -1.13796,-2.90726 -1.77682,-5.57812 -1.41971,-5.93524 0.35712,-0.35711 2.53548,-0.90344 4.8408,-1.21406 3.81578,-0.51414 4.26089,-0.8785 4.96555,-4.06476 0.42572,-1.925 0.69001,-46.25793 0.5873,-98.51763 -0.10271,-52.2597 0.15599,-95.5722 0.5749,-96.25 0.99076,-1.60308 5.2934,-1.59111 6.33459,0.0176 0.44496,0.6875 1.03402,45.575 1.30902,99.75 l 0.5,98.5 4.23143,0.56476 c 2.32728,0.31062 4.50682,0.84016 4.84342,1.17676 0.9539,0.9539 -12.725,36.75848 -14.04332,36.75848 -0.64433,0 -3.30528,-5.7375 -5.91324,-12.75 z m 143.82336,10.45854 c -0.29953,-0.78055 -0.40893,-4.2968 -0.24312,-7.81387 L 736.5,712.5 h 3.5 3.5 v 7.5 7.5 l -3.25688,0.31387 c -2.11973,0.20428 -3.44702,-0.18164 -3.80147,-1.10533 z m 0,-32 c -0.29953,-0.78055 -0.40893,-4.2968 -0.24312,-7.81387 L 736.5,680.5 h 3.5 3.5 v 7.5 7.5 l -3.25688,0.31387 c -2.11973,0.20428 -3.44702,-0.18164 -3.80147,-1.10533 z M 631.79569,676.3297 c -0.32833,-7.40666 -1.47396,-8.65143 -4.85273,-5.27266 -1.81933,1.81933 -2.08224,2.91018 -1.58163,6.5625 0.47976,3.5002 0.29785,4.38046 -0.90521,4.38046 -3.3718,0 -4.3506,-10.01237 -1.33412,-13.647 1.36615,-1.64611 7.33523,-4.353 9.59899,-4.353 C 637.9873,664 643,669.18093 643,674.62398 643,677.93312 637.9323,683 634.62261,683 c -2.42577,0 -2.54355,-0.27791 -2.82692,-6.6703 z M 638.5,673.9863 c 0,-2.7917 -0.42293,-3.54664 -2.12272,-3.78917 -2.63255,-0.37562 -3.64921,1.95743 -2.34631,5.38432 1.48094,3.89518 4.46903,2.82863 4.46903,-1.59515 z m 174.13462,7.74334 c -1.41914,-1.04344 -1.86539,-2.65772 -1.86539,-6.74795 0,-6.11417 1.6384,-8.12471 8.23025,-10.09968 7.883,-2.3618 15.36944,4.89265 12.76352,12.36799 -1.02646,2.94451 -5.2555,5.75 -8.66765,5.75 -1.77545,0 -2.03769,-0.76063 -2.29966,-6.6703 -0.16263,-3.66867 -0.74569,-6.81135 -1.29569,-6.98375 -2.49505,-0.78205 -4.01803,1.81337 -4.49944,7.66782 -0.47116,5.7299 -0.61012,6.00686 -2.36594,4.71587 z M 827.5,673.9863 c 0,-2.81963 -0.38245,-3.4863 -2,-3.4863 -1.33151,0 -2.10999,0.77636 -2.32908,2.32273 -0.47639,3.36248 0.56315,5.37513 2.57606,4.98748 1.27092,-0.24476 1.75302,-1.29638 1.75302,-3.82391 z M 736.71406,663.38073 C 736.32133,662.98799 736,659.87177 736,656.45578 c 0,-6.80398 1.27585,-8.83812 5.19496,-8.28254 2.17278,0.30801 2.30504,0.75709 2.30504,7.82676 v 7.5 l -3.03594,0.29739 c -1.66977,0.16357 -3.35727,-0.0239 -3.75,-0.41666 z M 621.9836,659.96936 c -1.45507,-2.71883 -0.32385,-7.7169 2.03194,-8.97768 C 625.03468,650.44626 628.17768,650 631,650 c 2.82232,0 5.9693,-0.44839 6.9933,-0.99641 3.65684,-1.95709 8.0233,2.13807 6.10256,5.72338 -0.52243,0.97517 -1.19359,2.56053 -1.49148,3.52303 -0.76455,2.47034 -2.49355,2.1717 -3.55253,-0.61362 -0.49425,-1.29998 -1.64492,-2.64998 -2.55703,-3 C 631.66307,652.78227 625,655.31033 625,658.99769 c 0,2.7966 -1.73979,3.35703 -3.0164,0.97167 z M 811,657.15499 C 811,651.8871 813.31138,650 819.76364,650 c 2.80839,0 6.34098,-0.46948 7.8502,-1.04328 2.27373,-0.86447 3.08012,-0.7072 4.70492,0.9176 1.83482,1.83481 1.86371,2.20451 0.44937,5.75051 -1.81146,4.54167 -3.33987,5.31338 -4.31805,2.18022 -0.93477,-2.9941 -2.21934,-3.77105 -6.26582,-3.78974 -4.41509,-0.0204 -6.81863,1.39175 -7.58828,4.45831 C 813.56354,662.58717 811,661.64712 811,657.15499 Z M 622.11111,636.60755 c 0,-6.41008 0.29349,-7.75372 1.87897,-8.60224 3.0223,-1.61749 6.42069,0.3616 8.48616,4.94201 1.43293,3.17766 2.35505,4.07707 3.94677,3.84956 1.76637,-0.25248 2.04868,-0.93249 1.88766,-4.54688 -0.13685,-3.07205 0.19985,-4.25 1.21482,-4.25 3.31127,0 4.6206,7.89926 1.90496,11.49275 -1.13066,1.49615 -3.17868,2.15169 -8.2182,2.63052 -3.69174,0.35076 -7.69975,0.96247 -8.90669,1.35935 -2.13001,0.7004 -2.19445,0.49851 -2.19445,-6.87507 z M 630.5,635.60899 c 0,-2.988 -3.10565,-4.43191 -5.14533,-2.39223 -1.41475,1.41475 -1.47151,1.93753 -0.35627,3.28131 1.78077,2.1457 5.5016,1.5444 5.5016,-0.88908 z m 181.244,7.70918 c -0.25206,-0.44999 -0.48931,-3.88048 -0.52722,-7.62329 -0.0631,-6.23333 0.13149,-6.89644 2.31619,-7.89185 3.25455,-1.48288 6.91202,0.98524 8.47413,5.71848 0.93439,2.83124 1.64187,3.52731 3.33924,3.28542 1.77456,-0.2529 2.16532,-1.00025 2.21992,-4.24568 0.0795,-4.7261 1.69938,-5.61165 3.95839,-2.16398 1.91994,2.93021 1.2985,7.55678 -1.33133,9.91157 -1.01692,0.91056 -4.28977,1.67306 -8.19332,1.90885 -3.575,0.21594 -7.24198,0.73598 -8.14885,1.15564 -0.90687,0.41966 -1.85508,0.39484 -2.10715,-0.0552 z m 8.07555,-7.46604 c -0.49026,-3.29531 -3.40119,-4.69906 -5.46488,-2.63537 -1.39087,1.39087 -1.45964,1.95184 -0.39632,3.23305 0.7076,0.85261 2.38774,1.55019 3.73365,1.55019 1.93578,0 2.38033,-0.4488 2.12755,-2.14787 z M 737.75,631.91173 c -1.37216,-0.7928 -1.75,-2.3606 -1.75,-7.26142 0,-3.52802 0.52265,-6.77296 1.2,-7.45031 1.83712,-1.83712 5.60769,-1.42786 6.76482,0.73426 1.18355,2.21148 1.37079,11.00982 0.26987,12.68096 -1.14133,1.73248 -4.55043,2.41408 -6.48469,1.29651 z M 621.81939,621.50295 c -0.85191,-1.86974 -0.8487,-3.46177 0.0128,-6.3372 1.53721,-5.13073 4.16815,-7.29875 9.60022,-7.91102 4.13952,-0.46659 4.80586,-0.21646 8.04058,3.01826 3.59236,3.59236 4.67409,8.36785 2.62735,11.59889 -1.61169,2.54428 -3.59754,0.67774 -3.27402,-3.07732 0.24834,-2.88251 -0.21314,-3.95367 -2.46714,-5.72667 C 631.19765,609.00783 625,612.85048 625,620.11078 c 0,4.42635 -1.49916,5.08254 -3.18061,1.39217 z m 189.86811,1.85122 c -1.05928,-1.05929 -0.81367,-9.24991 0.34214,-11.40956 C 813.3375,609.50087 818.12738,607 821.5,607 c 4.148,0 8.08964,2.61547 9.996,6.63281 2.00727,4.23001 1.16317,8.61657 -1.76666,9.1808 -1.39368,0.2684 -1.73231,-0.40906 -1.74465,-3.49029 -0.0187,-4.6733 -0.73978,-5.89951 -4.25504,-7.23601 -5.46841,-2.07908 -9.90727,1.91449 -9.42771,8.48195 0.19306,2.64383 -1.23469,4.16466 -2.61444,2.78491 z M 473.62583,604.4673 c -1.18905,-3.09859 -0.70067,-27.99246 0.57417,-29.2673 1.66998,-1.66998 7.01624,-1.4974 11.70272,0.37775 10.54651,4.21988 8.27628,18.82962 -3.16321,20.35641 -4.17654,0.55744 -4.24694,0.63255 -4.73951,5.0569 -0.52048,4.67497 -3.12109,6.74173 -4.37417,3.47624 z m 12.18561,-14.50626 c 5.25522,-4.89598 0.33063,-13.87147 -6.22965,-11.35405 -1.18757,0.45571 -1.58179,2.03415 -1.58179,6.33333 0,3.14949 0.3,6.02635 0.66667,6.39301 1.32788,1.32789 5.00444,0.62173 7.14477,-1.37229 z m 11.8898,15.40686 c -1.26979,-1.26979 -0.81372,-28.85542 0.49876,-30.1679 1.60174,-1.60174 7.10512,-1.5213 11.08212,0.16198 5.0546,2.13939 7.05121,5.03087 7.05121,10.21153 0,5.89899 -3.33957,9.52601 -9.53201,10.35244 -4.2484,0.56699 -4.30747,0.6293 -4.80132,5.06511 -0.47548,4.27083 -2.42245,6.25316 -4.29876,4.37684 z M 510,590 c 5.01709,-5.01709 0.031,-13.86783 -6.41821,-11.39301 -1.18757,0.45571 -1.58179,2.03415 -1.58179,6.33333 0,3.14949 0.3,6.02635 0.66667,6.39301 C 504.01299,592.67966 508.0553,591.9447 510,590 Z m 21,14.46676 c 0,-0.84329 1.125,-3.75333 2.5,-6.46676 3.19247,-6.30003 3.14352,-7.70424 -0.5,-14.34321 -1.65,-3.00653 -3,-6.44224 -3,-7.63492 0,-3.63217 3.03115,-1.95356 5.82918,3.22813 1.41071,2.6125 2.91868,4.75 3.35103,4.75 0.43235,0 1.92626,-2.25 3.31979,-5 2.56832,-5.06834 4.11943,-6.15531 5.10788,-3.57946 0.49531,1.29076 -10.49806,26.36944 -12.85672,29.32946 C 533.36314,606.49191 531,606.31347 531,604.46676 Z m 91.70153,-3.09857 C 622.31569,600.98235 622,600.06667 622,599.33333 622,598.31046 624.34555,598 632.07332,598 c 9.0545,0 10.03947,0.177 9.73858,1.75 -0.2844,1.48676 -1.69416,1.79285 -9.3718,2.03486 -4.97038,0.15667 -9.35274,-0.0308 -9.73857,-0.41667 z M 648,600 c 0,-1.28889 0.50641,-1.99786 1.25,-1.75 0.6875,0.22917 1.25,1.01667 1.25,1.75 0,0.73333 -0.5625,1.52083 -1.25,1.75 -0.74359,0.24786 -1.25,-0.46111 -1.25,-1.75 z m 163.5,1 c -1.39071,-2.25021 1.08169,-3 9.89235,-3 9.72218,0 11.31232,0.446 9.47653,2.65799 -1.3372,1.61123 -18.39827,1.91249 -19.36888,0.34201 z m 26,0 c -0.7292,-1.17987 0.21667,-3 1.55902,-3 0.51754,0 0.94098,0.9 0.94098,2 0,2.10908 -1.45488,2.69104 -2.5,1 z m -99.92857,-1.57143 c -1.59501,-1.59501 -2.08805,-7.89965 -0.9498,-12.14545 0.72877,-2.71845 3.60956,-3.76494 6.3406,-2.30334 C 744.68822,585.90351 745,587.0541 745,592.5 c 0,5.33333 -0.32981,6.60614 -1.93426,7.46482 -2.62788,1.40639 -3.65158,1.30648 -5.49431,-0.53625 z M 440.59777,595.26443 C 440.26899,594.93566 440,594.10088 440,593.40936 c 0,-1.55676 10.86882,-27.43908 12.24495,-29.15936 1.6837,-2.10476 3.45345,-1.40585 5.06435,2 11.764,24.87205 12.76826,27.44074 11.22796,28.71908 -1.02234,0.84847 -1.82267,0.48354 -3.43507,-1.5663 C 463.94598,591.93291 463,590.37311 463,589.93657 463,587.61395 459.51509,586 454.5,586 c -5.82506,0 -7.42518,0.99094 -9.43496,5.84297 -1.23604,2.98407 -3.31353,4.57521 -4.46727,3.42146 z m 17.07548,-14.85532 c 0.33577,-0.875 -0.14196,-3.1688 -1.06162,-5.09735 -1.35152,-2.83416 -1.94159,-3.28281 -3.07759,-2.34001 -1.64469,1.36497 -2.96497,6.52197 -2.04912,8.00385 0.99504,1.61001 5.51179,1.19654 6.18833,-0.56649 z m 64.83421,14.32403 c -0.22926,-0.67823 -0.55685,-7.18026 -0.72798,-14.44897 -0.17113,-7.26871 -0.75402,-13.65227 -1.29531,-14.18569 -0.63626,-0.627 -3.28197,-0.47474 -7.48417,0.43071 -23.15362,4.9889 -50.477,-2.34062 -66.85183,-17.93307 -13.69793,-13.04346 -20.66583,-27.04233 -23.06537,-46.33959 -1.25215,-10.06984 -0.84024,-11.46358 3.26884,-11.06037 3.39686,0.33333 2.94562,-0.90372 5.60997,15.37967 2.19569,13.41919 10.37061,28.26521 20.44924,37.13678 9.67351,8.51496 25.45582,14.78564 40.22146,15.98091 11.52464,0.93291 26.31942,-2.48585 38.5317,-8.90386 9.32607,-4.9012 21.82114,-18.03131 21.83225,-22.94183 0.002,-0.94721 -1.30749,-2.10928 -3.06929,-2.72344 -2.13895,-0.74565 -2.97484,-1.61882 -2.75,-2.87266 C 547.72107,519.21755 565.36839,490 566.65693,490 c 1.54405,0 1.83539,1.03447 4.36528,15.5 4.38813,25.09071 4.70103,23 -3.44221,23 h -4.92 l -3.50291,6 c -4.95899,8.49405 -15.17987,18.33499 -24.90709,23.98119 l -8.25,4.78874 v 15.75805 c 0,13.25705 -0.24408,15.8517 -1.53785,16.34817 -0.84582,0.32457 -1.72543,0.0352 -1.95469,-0.64301 z m 99.67781,-5.45667 c 0.30962,-1.60771 1.76575,-1.77647 15.32843,-1.77647 12.65449,0 14.9863,0.23339 14.9863,1.5 0,1.25607 -2.4927,1.54496 -15.32842,1.77647 -14.22941,0.25665 -15.30389,0.1491 -14.98631,-1.5 z m 189.26088,0.6364 c -1.48279,-2.39921 1.76682,-2.95913 15.61986,-2.69137 12.79839,0.24737 14.44655,0.47411 14.74482,2.0285 0.30778,1.60387 -0.91789,1.75 -14.67849,1.75 -9.7331,0 -15.25064,-0.38239 -15.68619,-1.08713 z M 624.98983,579.25 c -2.13154,-1.92712 -3.26521,-4.09654 -3.78862,-7.25 -0.73842,-4.44884 -0.79781,-4.50568 -5.22406,-5 -3.0908,-0.34517 -4.47715,-0.96448 -4.47715,-2 0,-1.26876 2.38737,-1.5 15.4863,-1.5 17.50861,0 16.82067,-0.36693 15.52398,8.27999 -1.43372,9.56077 -10.7938,13.55153 -17.52045,7.47001 z m 11.43724,-2.81993 c 2.2369,-2.2369 3.01487,-6.19264 1.56215,-7.94306 C 636.48305,566.67219 627.9359,566.4641 626.2,568.2 c -1.82118,1.82118 -1.43745,5.56255 0.8,7.8 2.39131,2.39131 7.24443,2.61271 9.42707,0.43007 z m 177.64966,2.98104 C 811.81411,577.50724 811,575.9702 811,573.60224 c 0,-4.51996 -1.84547,-6.45095 -6.5,-6.80122 -2.7551,-0.20734 -4,-0.76786 -4,-1.80102 0,-1.26882 2.38889,-1.5 15.5,-1.5 h 15.5 l 0.32699,3.43282 C 832.70272,576.12629 828.65365,582 821.44036,582 c -3.153,0 -5.10072,-0.68477 -7.36363,-2.58889 z M 826,576 c 2.23745,-2.23745 2.62118,-5.97882 0.8,-7.8 -1.4726,-1.4726 -8.23058,-1.57511 -10.86574,-0.16482 -2.50688,1.34164 -2.45611,4.03167 0.13832,7.32996 2.53576,3.2237 7.0499,3.51238 9.92742,0.63486 z m -88.33333,-7.66667 C 737.3,567.96667 737,564.41915 737,560.44996 c 0,-6.55561 0.19802,-7.26848 2.16167,-7.78199 4.33266,-1.13301 5.83833,0.84431 5.83833,7.66721 0,3.53931 -0.52206,6.78688 -1.2,7.46482 -1.29351,1.29351 -5.04679,1.61988 -6.13333,0.53333 z M 622.87244,556.34631 C 622.1176,555.43677 621.5,552.47281 621.5,549.75972 621.5,542.94144 624.80526,540 632.46687,540 c 4.75243,0 5.64681,0.34638 7.94424,3.07673 3.70374,4.40165 3.50089,8.97809 -0.54902,12.38586 -1.75,1.47253 -4.07208,2.50702 -5.25,2.33889 -1.85591,-0.26491 -2.14836,-1.06564 -2.41111,-6.60168 -0.34691,-7.30916 -2.23551,-9.11032 -5.42393,-5.1728 -1.55055,1.91485 -1.78663,3.26793 -1.2504,7.16676 0.69189,5.03067 -0.20822,6.09978 -2.65421,3.15255 z M 638.5,549 c 0,-2.86828 -0.4061,-3.55768 -2.25,-3.81955 -2.0224,-0.28723 -2.25,0.0991 -2.25,3.81955 0,3.72042 0.2276,4.10678 2.25,3.81955 1.8439,-0.26187 2.25,-0.95127 2.25,-3.81955 z m 173.7,7.8 c -0.66,-0.66 -1.2,-3.77734 -1.2,-6.92742 0,-4.99635 0.33632,-5.99197 2.63486,-7.8 1.88981,-1.48652 4.08902,-2.07258 7.77749,-2.07258 6.14555,0 9.02087,1.75262 10.56847,6.44187 1.45278,4.40198 -0.56746,8.73006 -4.9157,10.53116 -4.8271,1.99945 -5.92858,0.92831 -6.2661,-6.09347 -0.31671,-6.58895 -1.21561,-7.75786 -4.25612,-5.53459 -1.95651,1.43064 -2.39812,5.11144 -1.19051,9.92291 0.74247,2.95823 -0.91885,3.76566 -3.15239,1.53212 z m 15.3,-7.8 c 0,-2.83333 -0.38095,-3.5 -2,-3.5 -1.59683,0 -2.0635,0.77167 -2.31502,3.82807 -0.28815,3.50155 -0.11755,3.80009 2,3.5 C 827.10156,552.55646 827.5,551.89761 827.5,549 Z M 737.71406,536.38073 C 737.32133,535.98799 737,534.65347 737,533.41512 737,529.40856 735.91461,528 732.82727,528 c -4.36596,0 -6.75,-1.57949 -6.10527,-4.04491 1.85512,-7.094 13.17776,-33.45509 14.36967,-33.45509 1.49869,0 14.11865,32.81732 13.65159,35.5 -0.17024,0.97787 -1.82443,1.67404 -4.7522,2 -4.38391,0.48807 -4.50299,0.59543 -4.99106,4.5 -0.44898,3.59188 -0.80976,4.03034 -3.53594,4.29739 -1.66977,0.16357 -3.35727,-0.0239 -3.75,-0.41666 z M 622,533.02305 c 0,-1.08732 1.2375,-2.7531 2.75,-3.70173 6.935,-4.3496 10.25,-7.55313 10.25,-9.90535 0,-2.24589 -0.36959,-2.41705 -5.25,-2.43128 -5.99206,-0.0175 -8.31308,-1.07493 -7.4271,-3.38377 0.52395,-1.3654 2.7341,-1.60092 15.02327,-1.60092 16.88746,0 17.26536,0.18881 16.32189,8.15491 -1.04588,8.8308 -6.13096,12.25169 -13.1564,8.85073 l -4.22465,-2.04511 -6.0196,4.01973 C 623.49498,535.50272 622,535.87211 622,533.02305 Z m 26.88375,-10.11623 C 651.16282,518.83259 649.8125,517 644.53138,517 640.2871,517 640,517.16925 640,519.67126 c 0,5.99003 6.10013,8.21176 8.88375,3.23556 z M 811,533.13289 c 0,-1.09685 1.75331,-3.00613 4.25,-4.62807 6.42336,-4.17283 8.75,-6.61359 8.75,-9.17913 0,-2.13698 -0.42599,-2.32693 -5.25,-2.341 -6.01935,-0.0176 -8.31401,-1.07251 -7.41706,-3.40993 0.54557,-1.42173 2.5517,-1.59223 15.89571,-1.35092 L 842.5,512.5 l 0.31076,4.8962 c 0.41906,6.60252 -1.35561,10.51568 -5.56706,12.27534 -3.124,1.30528 -3.78926,1.24277 -7.88751,-0.74116 -4.44805,-2.15326 -4.48932,-2.15457 -6.66598,-0.21029 C 819.82444,531.2799 813.56994,535 812.13197,535 811.50938,535 811,534.1598 811,533.13289 Z m 26.48286,-8.75861 c 0.89934,-0.89933 1.48976,-2.79827 1.32143,-4.25 -0.27796,-2.39719 -0.69251,-2.62428 -4.79059,-2.62428 -5.16049,0 -6.28724,1.90738 -3.57344,6.04917 1.85318,2.82832 4.70525,3.16246 7.0426,0.82511 z M 27,517.70595 l -2.5,-1.26457 -0.260889,-42.26717 -0.26089,-42.26716 3.478771,-1.45353 C 30.452802,429.20179 54.185347,429 198.40278,429 c 115.79793,0 168.32929,0.32784 170.26177,1.06256 1.53711,0.58441 3.13451,1.59691 3.54979,2.25 0.41527,0.65309 0.76193,19.72442 0.77035,42.38074 l 0.0153,41.19329 -2.22251,1.55671 c -1.99052,1.39422 -19.91732,1.55516 -171.75,1.54196 C 64.372023,518.97355 28.985747,518.71039 27,517.70595 Z M 272.17098,486.30336 C 280.31225,469.15572 280.36585,469 278.12712,469 c -1.16303,0 -2.48323,1.46331 -3.64541,4.04055 -2.22691,4.93842 -4.2231,4.85274 -6.98171,-0.29965 -2.02984,-3.79124 -4.5,-5.00307 -4.5,-2.20766 0,0.84329 1.125,3.75333 2.5,6.46676 3.11182,6.14087 3.12566,8.52825 0.0893,15.39408 -2.29805,5.1963 -2.37298,6.60592 -0.35113,6.60592 0.49764,0 3.61742,-5.71349 6.93285,-12.69664 z M 236.30474,488 c 0.25928,-0.275 0.13197,-4.28703 -0.28292,-8.91562 C 235.19354,469.84367 233.98287,468 228.74313,468 225.41017,468 222,469.59125 222,471.14647 c 0,0.68232 1.24482,0.84258 3.4017,0.43795 4.66744,-0.87562 8.21297,2.40091 5.5162,5.09768 -0.77614,0.77614 -0.70751,1.68192 0.2427,3.20346 1.60669,2.57272 0.20139,5.45462 -2.88545,5.91731 -2.46622,0.36967 -3.65567,-2.22334 -2.23638,-4.87531 1.16696,-2.18049 0.68456,-2.38504 -2.10451,-0.89238 -2.65087,1.41871 -2.64668,6.76573 0.006,7.74704 2.19932,0.81358 11.64581,0.97997 12.36441,0.21778 z m -99.49486,-6.04829 C 137.1915,475.31244 138.21114,474 142.98759,474 148.6852,474 152,470.90398 152,465.58241 c 0,-2.98172 -0.59554,-4.81139 -1.97132,-6.05645 -2.36237,-2.13792 -8.19118,-3.33888 -13.30663,-2.74168 L 133,457.21881 v 14.72393 c 0,8.09816 0.30937,15.0333 0.6875,15.41143 1.65012,1.65011 2.83482,-0.39971 3.12238,-5.40246 z m 0.85679,-11.61838 C 137.3,469.96667 137,467.9575 137,465.86852 c 0,-4.77646 2.07592,-6.11367 7,-4.50906 6.59393,2.14876 4.2192,9.64054 -3.05584,9.64054 -1.43595,0 -2.91083,-0.3 -3.27749,-0.66667 z M 161,480.9215 c 0.275,-3.53182 0.88158,-7.01236 1.34796,-7.73451 1.27581,-1.97551 -2.22717,-5.53213 -3.99975,-4.06101 -1.42615,1.18359 -1.99557,16.89333 -0.66071,18.22819 1.7093,1.7093 2.8512,-0.50819 3.3125,-6.43267 z M 179,478.5 c 0,-7.77778 -0.27193,-9.5 -1.5,-9.5 -1.22807,0 -1.5,1.72222 -1.5,9.5 0,7.77778 0.27193,9.5 1.5,9.5 1.22807,0 1.5,-1.72222 1.5,-9.5 z m 10.39301,7.91821 C 189.72686,485.54823 190,482.32116 190,479.24695 c 0,-12.22345 8.36982,-12.39364 9.43082,-0.19176 0.2604,2.99465 0.49499,6.23231 0.52132,7.19481 0.0263,0.9625 0.72286,1.75 1.54786,1.75 1.18579,0 1.5,-1.41972 1.5,-6.77749 0,-9.96054 3.37325,-13.84926 8,-9.22251 1.58598,1.58598 2,3.33333 2,8.44098 0,6.37312 1.35046,9.1619 3.11716,6.43714 1.33288,-2.05569 -0.10984,-15.08536 -1.89651,-17.12812 -1.7799,-2.03501 -5.41199,-2.27196 -8.194,-0.53457 -1.46252,0.91336 -2.76394,0.94269 -5.23643,0.11803 -1.80962,-0.60357 -5.54022,-0.94828 -8.29022,-0.76603 -2.75,0.18225 -5.3375,0.35414 -5.75,0.38197 -0.92705,0.0625 -1.00591,17.46135 -0.0833,18.38393 1.09507,1.09508 2.08209,0.76378 2.72634,-0.91512 z M 247.05644,483.25 c 0.031,-2.6125 0.59533,-6.325 1.25396,-8.25 1.04978,-3.06824 1.6207,-3.50658 4.628,-3.55334 1.88677,-0.0293 3.60991,-0.5916 3.82921,-1.24948 0.58299,-1.74899 -2.5466,-2.62549 -4.26938,-1.19571 -0.932,0.77349 -2.77077,0.98238 -4.98727,0.56656 L 244,468.90937 v 9.54532 c 0,7.81805 0.27143,9.54531 1.5,9.54531 1.11489,0 1.51449,-1.21953 1.55644,-4.75 z M 170.5,469.93036 c 0,-1.90913 -3.23376,-2.39621 -5.18077,-0.78034 -1.41197,1.17184 -1.32499,1.38736 0.79804,1.9775 3.12185,0.86778 4.38273,0.52337 4.38273,-1.19716 z M 179,461 c 0,-0.55 -0.675,-1 -1.5,-1 -0.825,0 -1.5,0.45 -1.5,1 0,0.55 0.675,1 1.5,1 0.825,0 1.5,-0.45 1.5,-1 z m 196.66832,21.33499 c -1.15586,-1.15586 -0.72682,-5.04155 0.68615,-6.21421 0.99748,-0.82783 79.57791,-1.05778 298.14102,-0.87245 281.40966,0.23863 296.84374,0.34234 297.89041,2.00167 0.80516,1.27644 0.80516,2.22356 0,3.5 -1.04668,1.65935 -16.51342,1.76304 -298.57656,2.00166 -163.60998,0.13841 -297.77344,-0.0491 -298.14102,-0.41667 z M 737.57143,468.42857 C 736.15457,467.01172 736,449.26818 736,288.0452 V 109.23326 l -2.25,-0.60297 c -1.2375,-0.33164 -3.54375,-0.60913 -5.125,-0.61664 -2.64541,-0.0126 -2.82809,-0.24818 -2.28763,-2.95052 0.32306,-1.61528 2.44249,-7.802784 4.70985,-13.750003 8.21578,-21.549721 8.20822,-21.535623 10.33521,-19.27027 1.78583,1.901986 13.69333,34.025543 13.01774,35.118673 -0.28501,0.46116 -1.87123,0.83847 -3.52493,0.83847 -1.6537,0 -3.87714,0.46583 -4.94098,1.03518 -1.88184,1.00713 -1.93426,2.79384 -1.93426,65.92858 0,57.57782 0.17662,65.07 1.56671,66.4601 1.25868,1.25867 3.8987,1.54722 13.42743,1.46755 6.52339,-0.0545 12.34337,0.19915 12.93328,0.56374 0.58992,0.36458 1.07258,3.10423 1.07258,6.08809 0,4.51222 -0.46278,5.93856 -2.75,8.47571 -3.11764,3.45832 -8.23888,4.72303 -12.49954,3.08681 -3.26208,-1.25274 -6.74147,-6.53819 -6.74672,-10.24877 -0.004,-3.05364 -2.27782,-4.31586 -5.07618,-2.81822 C 744.04218,249.0478 744,251.4647 744,358.5 c 0,107.16641 -0.04,109.45104 -1.93426,110.46482 -2.50156,1.33879 -2.63522,1.32284 -4.49431,-0.53625 z M 766.68555,255.82569 C 769.205,253.45878 769.6964,250.0964 767.8,248.2 c -1.4726,-1.4726 -8.23058,-1.57511 -10.86574,-0.16482 -2.77734,1.48639 -2.42708,5.43201 0.7006,7.89224 3.37806,2.65718 6.14709,2.62606 9.05069,-0.10173 z M 426.48186,464.31922 c -5.00292,-11.92103 -11.57581,-30.59652 -11.29312,-32.08706 0.23824,-1.25616 1.49404,-1.81666 4.56989,-2.03966 3.15328,-0.22861 4.26361,-0.74169 4.32807,-2 0.56807,-11.08879 -0.62532,-245.61005 -1.61916,-318.1925 -0.29817,-21.776486 -0.1413,-39.077754 0.36116,-39.830076 0.50054,-0.749462 2.15053,-1.185989 3.77981,-1 L 429.5,69.5 430.13722,81 c 0.35047,6.325 0.9739,77.2 1.38539,157.5 0.4115,80.3 1.02475,156.125 1.36278,168.5 l 0.61461,22.5 4.23143,0.56476 c 2.32728,0.31062 4.53074,0.86408 4.89657,1.2299 1.22679,1.2268 -11.46189,35.81664 -13.37232,36.45345 -0.64405,0.21468 -1.89227,-1.32832 -2.77382,-3.42889 z M 394,352.12723 c 0,-0.48002 2.31548,-1.09526 5.14552,-1.36719 3.88347,-0.37315 5.59492,-1.07885 6.97776,-2.87723 l 1.83225,-2.38281 0.0222,2.71482 c 0.0137,1.67678 -0.71734,3.11062 -1.91202,3.75 C 403.72046,353.21997 394,353.35082 394,352.12723 Z m 359.12838,-0.47254 c -3.50073,-4.21812 -1.52566,-13.03374 3.52579,-15.7372 7.35122,-3.93425 16.34583,0.64253 16.34583,8.31735 0,4.76505 -3.95611,9.0275 -7.94716,8.56256 -2.39574,-0.2791 -2.57116,-0.68201 -2.85056,-6.5474 -0.25742,-5.40403 -0.55885,-6.25 -2.22694,-6.25 -1.06108,0 -2.68253,1.14968 -3.60323,2.55485 -1.35086,2.06166 -1.47321,3.2091 -0.63382,5.94409 1.3413,4.37035 -0.12772,6.14661 -2.60991,3.15575 z M 768.5,344 c 0,-4.37719 -3.07037,-5.55997 -4.07212,-1.56868 -0.85875,3.42153 0.1641,5.79391 2.3191,5.37889 C 768.01632,347.56576 768.5,346.51447 768.5,344 Z m -363.45218,0.0397 c -0.79869,-0.4992 -3.72369,-1.24655 -6.5,-1.66077 L 393.5,341.6258 l 5.95976,-0.80314 c 6.16339,-0.83058 7.9821,-0.20379 7.38402,2.54479 -0.24133,1.10906 -0.77654,1.3094 -1.79596,0.67225 z M 406,331.65499 c 0,-3.19032 -2.66616,-5.30055 -7.75,-6.13402 -6.69372,-1.0974 -5.02237,-2.64618 2.5,-2.31666 l 6.75,0.29569 0.30226,5.25 c 0.18416,3.19866 -0.10889,5.25 -0.75,5.25 C 406.47352,334 406,332.94474 406,331.65499 Z m 347.17431,-3.96944 c -2.55672,-2.72151 -2.79392,-6.35592 -0.61761,-9.46304 2.4515,-3.5 3.707,-2.74282 2.94367,1.77529 -0.55261,3.27088 -0.35844,4.11943 1.06786,4.66676 1.18206,0.4536 2.35429,-0.10908 3.64118,-1.7478 4.24393,-5.40416 4.86851,-5.91676 7.20937,-5.91676 4.51137,0 6.98444,5.1797 4.97423,10.41821 C 771.23295,330.4413 769,329.17892 769,325.5 c 0,-4.55132 -1.44805,-4.43065 -6,0.5 -4.21384,4.56441 -6.71763,4.99392 -9.82569,1.68555 z m -352.61723,-11.5932 c -0.30853,-0.4992 -0.13861,-1.9617 0.37759,-3.25 0.69441,-1.73303 0.95505,-1.88712 1.00194,-0.59235 0.0728,2.01015 3.06487,2.34852 4.86339,0.55 1.4741,-1.4741 1.55693,-0.33545 0.16482,2.26574 -1.06113,1.98273 -5.38836,2.67601 -6.40774,1.02661 z m 353.63447,-4.91956 c -1.52928,-0.21677 -2.20116,-0.89183 -1.99056,-2 0.25102,-1.32088 1.83124,-1.77798 7.51156,-2.17279 8.08096,-0.56167 9.58825,-1.49231 9.11563,-5.62818 -0.32379,-2.83344 -0.4307,-2.8785 -7.99875,-3.37182 -8.22408,-0.53608 -9.41646,-1.02783 -8.47038,-3.49329 0.50577,-1.31802 2.21512,-1.53213 10.32373,-1.29313 l 9.71759,0.28642 0.25567,6.61925 c 0.34927,9.04306 -0.65056,10.20937 -9.31303,10.86379 -3.76365,0.28433 -7.88181,0.36972 -9.15146,0.18975 z M 393,309.27921 c 0,-3.96359 7.04475,-6.80399 10.86803,-4.38193 1.10339,0.699 0.95392,1.28077 -0.77268,3.00737 -1.79652,1.79652 -2.23466,1.89589 -2.72502,0.61803 -0.858,-2.2359 -4.02433,-1.85475 -5.81363,0.69983 L 393,311.44501 Z m 46.59329,-4.44948 c -2.72282,-3.88737 -2.04034,-8.58268 1.80671,-12.42973 2.89737,-2.89737 4.0914,-3.4 8.07692,-3.4 3.8359,0 5.20257,0.52564 7.6,2.92308 C 462.69237,297.53853 459.53489,307 452.04545,307 H 449 v -5.87756 c 0,-7.27613 -1.73982,-9.38262 -5.03106,-6.09138 -2.06039,2.06039 -2.323,5.00144 -0.87896,9.84394 0.70683,2.37034 -1.82771,2.33753 -3.49669,-0.0453 z M 455.5,297.9863 c 0,-2.81963 -0.38245,-3.4863 -2,-3.4863 -1.33151,0 -2.10999,0.77636 -2.32908,2.32273 -0.47639,3.36248 0.56315,5.37513 2.57606,4.98748 1.27092,-0.24476 1.75302,-1.29638 1.75302,-3.82391 z m -62.89076,-2.14316 c -2.24322,-7.64779 9.3051,-13.08663 13.88952,-6.54145 C 408.18167,291.70438 408.54446,298 407,298 c -0.55,0 -1,-1.56463 -1,-3.47695 0,-8.6402 -11.06982,-7.755 -12.21725,0.97695 l -0.39421,3 z M 754.5886,284.92293 c -4.75354,-5.64926 -4.62397,-11.0414 0.38569,-16.05106 5.04216,-5.04217 13.09106,-3.51375 16.53142,3.13917 C 775.48726,279.71052 769.85318,288 760.63855,288 c -2.63693,0 -4.07712,-0.7325 -6.04995,-3.07707 z m 12.70992,-3.74011 c 4.51349,-3.96664 -1.24938,-12.64123 -7.04418,-10.60331 -3.67846,1.29365 -5.85513,5.80649 -4.37135,9.06303 1.98158,4.34908 7.38927,5.07873 11.41553,1.54028 z m -328.13844,3.57726 c -1.69144,-1.69144 -1.41917,-5.22502 0.58992,-7.65599 1.31982,-1.59696 3.34781,-2.27249 8.25,-2.74808 3.575,-0.34684 7.08828,-1.09532 7.80729,-1.6633 0.95995,-0.75831 2.01883,-0.32114 3.98544,1.64547 2.30564,2.30565 2.50632,2.95333 1.44271,4.65642 -0.67949,1.08805 -1.23544,2.91736 -1.23544,4.06516 0,2.9068 -3.39878,2.13065 -3.82661,-0.87385 -0.40333,-2.83239 -4.39427,-4.50903 -8.59711,-3.61174 -3.89826,0.83226 -5.57628,2.18318 -5.57628,4.48926 0,2.35363 -1.36653,3.17004 -2.83992,1.69665 z m -44.91631,-3.4962 C 391.55849,280.33468 394.35454,279 398.98644,279 c 4.06834,0 5.209,-0.43301 6.94098,-2.63486 L 408,273.73028 v 2.51242 c 0,1.38182 -0.66628,3.06537 -1.48061,3.74121 -1.47743,1.22616 -9.89477,2.10383 -12.27562,1.27997 z m -34.22283,-1.73865 C 359.25217,278.59891 357.09703,278 354.53254,278 c -4.60056,0 -7.58287,-2.22878 -7.46486,-5.57874 0.0615,-1.74639 0.16372,-1.72258 1.12286,0.2616 0.72378,1.4973 2.35136,2.39745 5.18231,2.86613 2.26993,0.3758 4.90689,1.09269 5.8599,1.59309 2.12601,1.11631 11.69649,-1.77647 13.48545,-4.07612 1.06306,-1.36653 1.22224,-1.2839 1.25,0.64886 0.0366,2.54985 -2.62548,4.28518 -6.57372,4.28518 -1.50535,0 -3.49541,0.68635 -4.42236,1.52523 -1.51048,1.36697 -1.8167,1.36697 -2.95118,0 z M 404.5,272 c -0.33992,-0.55 -2.58992,-1 -5,-1 -2.41008,0 -4.66008,-0.45 -5,-1 -0.38803,-0.62784 1.82295,-1 5.94098,-1 5.89235,0 6.55902,0.20328 6.55902,2 0,2.10908 -1.45488,2.69104 -2.5,1 z m 35.19455,-5.11113 c -1.41901,-0.8255 -1.55531,-1.35172 -0.63679,-2.45846 1.16594,-1.40488 11.85287,-1.84383 18.19224,-0.74721 2.99733,0.51849 3.69673,2.73953 1.16821,3.70981 -2.61835,1.00476 -16.78564,0.6233 -18.72366,-0.50414 z m 24.87548,-0.77556 c -0.68055,-1.10115 1.86765,-3.3423 2.77198,-2.43797 0.36189,0.3619 0.65799,1.25799 0.65799,1.99133 0,1.4897 -2.57786,1.82538 -3.42997,0.44664 z m -70.49745,-4.74817 c -2.72177,-3.46016 -2.61667,-5.91196 0.38197,-8.91059 4.89044,-4.89045 13.54545,-1.78517 13.54545,4.8599 0,6.52 -9.75365,9.35678 -13.92742,4.05069 z m 10.32208,-0.66445 c 2.80592,-2.05175 1.78117,-6.92756 -1.71273,-8.14927 -5.615,-1.96337 -11.03333,3.95432 -7.16372,7.82393 1.95342,1.95342 6.42574,2.11734 8.87645,0.32534 z m 51.26018,-2.37918 c -0.37317,-0.37318 -0.40536,-2.13443 -0.0715,-3.9139 C 456.34527,250.34601 454.24551,249 447.14753,249 440.87694,249 439,248.28425 439,245.89301 439,244.16147 439.85565,244 449.03138,244 c 8.38632,0 10.13488,0.2697 10.66248,1.64461 0.38509,1.00352 -0.083,2.16675 -1.20076,2.98409 -1.71464,1.25378 -1.72503,1.45753 -0.16248,3.18414 1.9677,2.17429 2.13597,4.32057 0.46938,5.98716 -1.36385,1.36385 -2.16927,1.4974 -3.14516,0.52151 z M 361.5,241 c -2.14824,-2.2 -4.44142,-4 -5.09596,-4 -1.37681,0 -2.39082,2.22081 -2.43445,5.33179 -0.0235,1.67838 -0.21259,1.82934 -0.83685,0.66821 -0.44354,-0.825 -0.76735,-3.06851 -0.71959,-4.98558 0.11847,-4.75446 2.23549,-4.89423 7.06919,-0.46673 5.17452,4.73968 7.20518,5.74755 10.1108,5.01829 2.23334,-0.56053 2.91797,-2.06887 2.45846,-5.41633 -0.10195,-0.7427 0.29473,-1.05364 0.88152,-0.69099 1.68826,1.04341 1.24252,5.07241 -0.76186,6.88635 C 369.12403,246.10272 365.76104,245.3637 361.5,241 Z m 32.16667,3.33333 C 393.3,243.96667 393,241.97433 393,239.90591 c 0,-6.80505 7.20156,-9.87633 15.13519,-6.45475 l 3.36481,1.45116 -5.21626,-0.58646 c -8.82064,-0.99168 -13.7204,2.58228 -11.80665,8.61197 0.66992,2.11072 0.38644,2.60236 -0.81042,1.4055 z m 18.52275,-3.75199 c 0.0724,-1.92553 0.50938,-3.26749 0.9711,-2.98213 1.15779,0.71555 1.05864,5.14731 -0.13162,5.88293 -0.56561,0.34957 -0.91614,-0.86166 -0.83948,-2.9008 z m 42.44561,-6.07159 c -13.4973,-5.60214 -15.67594,-6.90287 -14.08503,-8.40931 0.5225,-0.49475 5.57912,-2.80738 11.23694,-5.13917 5.65782,-2.33179 10.12387,-4.73949 9.92456,-5.35044 -0.19931,-0.61096 -4.98612,-2.99352 -10.63736,-5.29458 -5.65123,-2.30106 -10.5405,-4.44927 -10.86503,-4.77381 -1.24729,-1.24729 2.76058,-3.43837 15.60628,-8.53189 9.62647,-3.81704 13.61799,-4.97717 14.40762,-4.18754 1.84003,1.84003 -0.63732,3.6644 -9.77106,7.19556 -5.93351,2.29394 -8.44791,3.75201 -8.24455,4.78092 0.16093,0.81422 4.19888,3.03653 8.97322,4.93846 12.87334,5.12829 12.87782,7.31941 0.0254,12.40386 -4.94594,1.95662 -8.8199,4.09192 -8.98571,4.95286 -0.20555,1.06734 2.21598,2.48876 8.21559,4.82251 8.66022,3.36868 11.2452,5.17181 10.0912,7.03902 -0.98568,1.59486 -2.06253,1.29357 -15.89204,-4.44645 z m 298.43755,0.85539 C 749.86608,231.28874 750.86045,224 754.62308,224 c 1.25732,0 1.42422,0.76055 0.87729,3.9978 -0.55607,3.29134 -0.36199,4.11807 1.09827,4.67842 1.17327,0.45023 2.13381,0.0671 2.83752,-1.13176 4.25785,-7.25381 8.62152,-9.34818 11.90885,-5.71572 C 773.98542,228.74635 773.3065,236 770.39301,236 769.5181,236 769,234.90617 769,233.05902 c 0,-4.22621 -1.93382,-4.87219 -4.40121,-1.47022 -5.1943,7.16177 -8.11145,8.11751 -11.52621,3.77634 z M 400.74609,226.75 c -0.23132,-0.6875 -0.21359,-2.04798 0.0394,-3.0233 0.42761,-1.64856 0.54617,-1.6554 1.68554,-0.0972 1.42329,1.94646 3.27761,1.13624 4.53567,-1.98181 l 0.86654,-2.14767 0.0634,2.25 c 0.11306,4.01329 -6.07479,8.31607 -7.19052,5 z m -7.64641,-6.51618 c -0.0846,-2.77148 0.41445,-3.51135 3.2948,-4.88489 3.96232,-1.8895 8.07055,-1.21704 9.55931,1.56472 0.84741,1.5834 0.70816,1.81071 -0.85828,1.40108 -1.02839,-0.26893 -2.19025,0.0296 -2.58193,0.66329 -0.50551,0.81794 -1.28061,0.6378 -2.67139,-0.62084 -2.3645,-2.13984 -4.93481,-0.96122 -5.96977,2.73746 -0.59677,2.13273 -0.68436,2.03517 -0.77274,-0.86082 z m 369.56699,-0.90049 C 762.3,218.96667 762,216.02754 762,212.80195 c 0,-6.92107 -2.00847,-8.74466 -5.23823,-4.75607 -1.86351,2.30133 -1.92478,4.80994 -0.22481,9.20412 1.12855,2.91716 -3.02915,2.15994 -4.37644,-0.79705 -1.56865,-3.4428 -1.46014,-6.01929 0.42038,-9.9822 2.88388,-6.07731 12.55773,-7.48597 17.49602,-2.54767 4.19078,4.19077 4.12589,9.88704 -0.15365,13.48803 -2.9874,2.51373 -5.89491,3.28391 -7.2566,1.92222 z M 769,210.5 c 0,-1.24031 -0.64362,-2.78927 -1.43026,-3.44212 -2.56199,-2.12627 -4.84107,4.27079 -2.39353,6.71833 C 766.77939,215.37939 769,213.47679 769,210.5 Z m -376.55899,-3.88592 c -1.33531,-3.31658 0.83859,-5.07546 6.95811,-5.62974 3.44121,-0.31169 6.04966,-1.09244 6.59437,-1.9738 0.75323,-1.21876 1.3176,-1.06691 3.43789,0.925 l 2.53673,2.38313 -2.23406,2.10359 c -2.09198,1.96983 -2.31537,1.99404 -3.51279,0.38059 -0.70331,-0.94765 -2.84574,-2.01698 -4.76096,-2.37628 -3.78769,-0.71057 -6.12123,0.55074 -7.472,4.03871 -0.75669,1.95391 -0.81814,1.95982 -1.54729,0.1488 z M 752.18045,194.7816 c 0.19644,-1.36372 2.43852,-3.6838 5.81955,-6.022 5.2778,-3.64993 8.22014,-7.8728 6.60845,-9.48448 -0.42015,-0.42015 -3.31199,-0.99143 -6.42632,-1.26952 -4.16168,-0.3716 -5.74411,-0.93514 -5.97069,-2.12631 -0.18917,-0.99446 0.57982,-1.85858 1.99014,-2.23634 3.01207,-0.80679 22.66308,-0.82002 26.67342,-0.018 3.03914,0.60783 3.125,0.77404 3.125,6.04966 0,11.06504 -6.14587,15.48848 -14.41709,10.37658 l -3.15316,-1.94876 -6.39261,4.44876 c -7.25964,5.05215 -8.30594,5.34917 -7.85669,2.23036 z m 26.78437,-9.71586 c 1.79061,-3.34578 1.24133,-5.9759 -1.38573,-6.63524 -5.52299,-1.38619 -8.82977,1.52913 -6.79643,5.99184 1.47684,3.24131 6.57716,3.64237 8.18216,0.6434 z M 364.5,192 c -0.33992,-0.55 -0.16803,-1 0.38197,-1 0.55,0 1.27811,0.45 1.61803,1 0.33992,0.55 0.16803,1 -0.38197,1 -0.55,0 -1.27811,-0.45 -1.61803,-1 z m -9.87077,-1.28184 c -1.596,-1.16703 -1.38115,-1.52532 2.39862,-4 2.2834,-1.49499 5.01125,-2.71816 6.06189,-2.71816 2.54506,0 2.47152,3.04047 -0.0897,3.71025 -1.1,0.28766 -2,1.09738 -2,1.79939 0,1.16104 -2.07678,2.49036 -3.89066,2.49036 -0.39989,0 -1.51594,-0.57683 -2.48011,-1.28184 z m 38.03744,-2.38483 c -0.97973,-0.97973 -0.81234,-6.12527 0.22002,-6.7633 0.48768,-0.30141 1.44278,0.12204 2.12245,0.94098 1.40428,1.69205 9.51372,2.07004 10.49086,0.48899 1.1364,-1.83874 2.64292,-1.02688 2.31955,1.25 -0.28701,2.02087 -0.95603,2.28032 -6.56955,2.54772 -3.4375,0.16374 -6.25,0.72624 -6.25,1.25 0,1.09791 -1.35516,1.26379 -2.33333,0.28561 z M 354.25,183.33772 c -2.87717,-1.16096 -1.0428,-3.08591 3.5,-3.67282 2.6125,-0.33752 5.83287,-0.92109 7.15637,-1.29681 1.696,-0.48147 2.19519,-0.34143 1.69098,0.47439 -0.39346,0.63663 -1.93058,1.15752 -3.41582,1.15752 -1.61743,0 -3.20135,0.8021 -3.94946,2 -1.23262,1.97374 -2.53752,2.32412 -4.98207,1.33772 z M 406.07465,170.75 c 0.38372,-2.95499 -0.27043,-3.93386 -3.54253,-5.30103 -1.90734,-0.79693 -4.92234,-1.44897 -6.7,-1.44897 -2.26042,0 -2.91598,-0.31614 -2.18055,-1.05157 0.58617,-0.58617 3.88335,-0.9181 7.45,-0.75 L 407.5,162.5 l 0.25969,4.75 c 0.15445,2.82521 -0.16722,4.75 -0.79384,4.75 -0.57944,0 -0.98048,-0.5625 -0.8912,-1.25 z M 393.5,155 c -0.99397,-1.60828 0.42513,-3 3.05902,-3 3.64753,0 3.36978,-3.76029 -0.30902,-4.18358 -5.06653,-0.58297 -3.21365,-3.13814 3.25,-4.48184 7.45702,-1.5502 7.5,-1.55212 7.5,-0.33458 0,0.55 -0.8632,1 -1.91821,1 -4.84758,0 -7.25394,3.5524 -2.83179,4.18045 3.22631,0.45821 2.8422,3.25141 -0.5,3.63597 -1.94275,0.22354 -2.75,0.88402 -2.75,2.25 0,1.38335 -0.69462,1.93358 -2.44098,1.93358 -1.34254,0 -2.7191,-0.45 -3.05902,-1 z M 347,150.71169 C 347,148.18096 350.53122,146 354.62874,146 c 2.18419,0 4.43443,-0.46317 5.00053,-1.02927 0.7057,-0.7057 1.94747,-0.55045 3.95,0.49384 1.6064,0.83771 4.06823,1.52588 5.47073,1.52927 2.8412,0.007 4.95,1.65179 4.95,3.86115 0,1.27294 -0.21896,1.27281 -1.75,-9.9e-4 -2.72589,-2.2679 -11.00002,-4.05815 -13.23288,-2.86316 -1.0371,0.55504 -3.16509,1.00916 -4.72887,1.00916 -1.56378,0 -3.84337,0.70052 -5.06574,1.5567 C 347.38992,151.8403 347,151.86749 347,150.71169 Z M 28.322621,102.30949 C 23.500826,101.35823 23.5,101.35053 23.5,57.380786 c 0,-38.324069 0.129079,-41.439332 1.785643,-43.095534 1.697925,-1.697552 10.12278,-1.798163 171.499997,-2.048078 160.06065,-0.247876 171.99609,-0.102662 175.4108,2.134146 0.10805,0.07077 0.44555,9.019877 0.75,19.886895 L 373.5,54.016431 671.39357,54.004924 c 219.32246,-0.0085 298.25134,0.285413 299.25,1.114229 1.99569,1.656272 1.65332,5.651588 -0.58704,6.850592 -1.33331,0.713567 -95.2834,1.034887 -299.25,1.023469 L 373.5,62.976571 373,80.955614 c -0.43121,15.505562 -0.74566,18.224296 -2.28562,19.761716 -1.69803,1.69522 -10.08695,1.78853 -171,1.9022 -93.06791,0.0657 -170.194201,-0.0738 -171.391759,-0.31004 z M 152.61856,68.376713 C 158.10841,65.771611 160.5,61.537158 160.5,54.422158 c 0,-5.083723 -0.448,-6.665196 -2.73896,-9.668805 -3.39744,-4.454268 -7.84952,-5.999488 -17.6995,-6.143104 L 132.5,38.5 132.22461,54.25 131.94921,70 h 8.62427 c 5.88556,0 9.71057,-0.515487 12.04508,-1.623287 z M 138.25,66.014161 C 136.13104,65.119761 136,64.48492 136,55.114012 c 0,-5.472741 0.27314,-10.662241 0.60699,-11.532225 0.44575,-1.161614 1.97313,-1.577871 5.75,-1.567045 6.33808,0.01817 9.38881,1.489187 12.44296,5.999827 2.61114,3.856353 2.47917,9.103617 -0.33705,13.401705 -2.62412,4.00492 -11.59226,6.548234 -16.2129,4.597887 z m 32.82491,-3.280372 C 171.75312,54.939608 173.05782,53 177.62244,53 179.84276,53 181,52.522716 181,51.606989 c 0,-2.2273 -3.07022,-2.791001 -5.72547,-1.051214 -2.246,1.471638 -2.59055,1.468204 -4.25981,-0.04246 -2.59696,-2.350209 -3.23369,-0.700679 -3.20984,8.315464 0.0293,11.071397 0.07,11.379225 1.44512,10.924902 0.74777,-0.247054 1.48099,-3.067536 1.82491,-7.019894 z M 232.5,68.003537 c 0,-1.123641 -0.94716,-1.414861 -3.80178,-1.168921 -4.43505,0.382101 -8.98306,-2.104604 -8.50041,-4.647747 0.24886,-1.311297 1.76533,-1.798191 6.81116,-2.186869 5.79669,-0.446515 6.5253,-0.741379 6.81144,-2.756518 C 234.2912,53.92779 229.01854,49 225,49 c -4.79383,0 -9,4.668297 -9,9.988818 0,8.006302 3.1666,11.102384 11,10.755051 4.1078,-0.182139 5.5,-0.622664 5.5,-1.740332 z M 221.35674,56.487265 C 220.61332,54.549954 222.71265,52 225.05102,52 c 0.99337,0 2.56317,0.757047 3.48845,1.682326 1.57643,1.576434 1.5689,1.765265 -0.1197,3 -2.4293,1.776345 -6.34806,1.66812 -7.06303,-0.195061 z M 244,62.421453 C 244.275,58.614654 244.86406,54.9375 245.30902,54.25 245.75398,53.5625 247.63992,53 249.5,53 c 3.92341,0 5.12749,-1.234336 2.95938,-3.033715 -1.15787,-0.960944 -2.10415,-0.99354 -3.98356,-0.137221 -1.35573,0.61771 -3.8174,0.85262 -5.47039,0.522022 L 240,49.75 v 9.458333 c 0,5.202084 0.30937,9.767709 0.6875,10.145834 1.74589,1.745888 2.85294,-0.571052 3.3125,-6.932714 z m -54,-2.362436 c 0,-8.019212 -0.94321,-11.449144 -2.67281,-9.719545 -0.80342,0.803424 -1.46519,13.811801 -0.83485,16.410528 0.30017,1.2375 1.21219,2.25 2.02671,2.25 C 189.71656,69 190,67.288769 190,60.059017 Z m 19.20438,-0.394677 c 2.09655,-4.855937 3.56883,-9.22228 3.27174,-9.702984 -1.11268,-1.800348 -3.3305,0.329885 -5.31498,5.105063 C 206.03347,57.779889 204.64348,60 204.07226,60 c -0.57121,0 -2.17873,-2.25 -3.57226,-5 -1.39353,-2.75 -3.20111,-5 -4.01685,-5 -2.15727,0 -1.89383,1.233211 2.26546,10.604709 2.48182,5.591935 4.23781,8.351972 5.19624,8.167396 0.7962,-0.153334 3.16299,-4.251828 5.25953,-9.107765 z M 189.45729,43.069098 c 0.73955,-1.196602 -1.14162,-2.382227 -2.4736,-1.559017 C 185.86533,42.201265 186.59952,44 188,44 c 0.48508,0 1.14086,-0.418906 1.45729,-0.930902 z M 495.75,0.26779495 c 2.3375,-0.21053484 6.1625,-0.21053484 8.5,0 2.3375,0.21053483 0.425,0.38279061 -4.25,0.38279061 -4.675,0 -6.5875,-0.17225578 -4.25,-0.38279061 z m 71,0 c 2.3375,-0.21053484 6.1625,-0.21053484 8.5,0 2.3375,0.21053483 0.425,0.38279061 -4.25,0.38279061 -4.675,0 -6.5875,-0.17225578 -4.25,-0.38279061 z m 78.07139,-0.0173126 c 16.12677,-0.15450517 42.22677,-0.15439236 58,2.507e-4 C 718.59463,0.40537611 705.4,0.53178943 673.5,0.53165155 641.6,0.53151366 628.69463,0.40498752 644.82139,0.25048235 Z M 849.25,0.253232 c 6.4625,-0.17418645 17.0375,-0.17418645 23.5,0 6.4625,0.17418644 1.175,0.31670261 -11.75,0.31670261 -12.925,0 -18.2125,-0.14251617 -11.75,-0.31670261 z"
       id="path4838"
       inkscape:connector-curvature="0" />
    <path
       style="fill:#5ea634"
       d="m 27.5,1002.8051 c -1.1,-0.6238 -2.330609,-1.6226 -2.734687,-2.2196 -0.404078,-0.59704 -0.741578,-19.41263 -0.75,-41.81245 L 24,918.04611 l 2.337515,-1.5316 c 2.080091,-1.36293 21.126642,-1.50313 172.950075,-1.27306 138.48803,0.20987 170.85731,0.5036 171.91248,1.56001 1.02431,1.02551 1.29993,10.00242 1.29993,42.33898 v 41.03756 l -2.36078,1.911 c -2.30368,1.8648 -6.45226,1.9103 -171.5,1.8806 C 74.436503,1003.9473 28.968645,1003.6379 27.5,1002.8051 Z m 263.6767,-32.45461 c 5.68936,-11.87007 7.12665,-16.93509 4.5733,-16.11633 -0.6875,0.22046 -2.15,2.05674 -3.25,4.08063 -2.51496,4.62728 -4.65718,4.67582 -6.8133,0.15439 -1.63667,-3.43211 -4.14462,-5.3446 -5.38374,-4.10547 -0.33594,0.33593 0.80847,3.68992 2.54312,7.4533 1.73466,3.76337 3.15392,7.60907 3.15392,8.54599 0,0.93692 -1.15566,3.98408 -2.56814,6.77147 -1.41248,2.7874 -2.30716,5.74812 -1.98817,6.57938 1.08236,2.82058 3.69595,-0.76786 9.73301,-13.36336 z M 115.25,971.80904 c 0.9625,-1.11683 1.75,-3.60076 1.75,-5.51982 0,-3.54161 -0.29742,-3.91087 -10.25,-12.72597 -3.19612,-2.83083 -3.3669,-3.8035 -1.07092,-6.09947 1.21316,-1.21316 2.73932,-1.53687 5.5,-1.16659 3.2583,0.43703 3.82092,0.23482 3.82092,-1.37329 0,-3.94445 -10.65896,-3.67659 -13.47126,0.33853 -1.821172,2.60009 -1.948135,7.62708 -0.24694,9.77731 0.67001,0.84686 3.3686,3.06991 5.99686,4.94011 5.44538,3.87477 7.04484,7.57922 4.17767,9.67574 -2.3536,1.721 -4.2704,1.68987 -7.75148,-0.12587 -2.45528,-1.28068 -2.86406,-1.27839 -3.36188,0.0189 -1.944015,5.06603 10.821,7.00166 14.90703,2.26043 z m 23.55243,-0.0225 c 0.24598,-1.27661 -0.66225,-1.54318 -4.86565,-1.42808 -4.00269,0.10959 -5.42387,-0.26633 -6.30243,-1.66707 C 126.01557,966.1105 129.20427,964 134.72251,964 c 5.23475,0 6.26645,-1.70292 3.96086,-6.5378 -3.11982,-6.54231 -12.6153,-5.34011 -16.11769,2.04062 -1.91129,4.02777 -1.48368,7.69463 1.32721,11.38108 3.0555,4.00724 14.18156,4.68086 14.90954,0.90268 z M 128.25,961.3595 c -1.93215,-0.81331 -1.47759,-3.15249 0.75,-3.8595 2.92442,-0.92818 6.1691,0.37871 5.79832,2.33544 -0.31487,1.66166 -4.11839,2.5469 -6.54832,1.52406 z m 30.81574,12.60532 c 3.11648,-1.66789 2.25818,-2.6682 -2.77628,-3.23566 -5.83284,-0.65745 -8.75272,-3.66288 -7.86599,-8.09649 0.83443,-4.17216 2.14285,-5.3836 6.6341,-6.1424 4.11436,-0.69511 5.05833,-1.84808 2.36064,-2.88328 -5.18096,-1.98812 -10.69521,1.24781 -12.52316,7.34898 -2.59687,8.66756 6.56572,17.0789 14.17069,13.00885 z m 21.03504,-0.10642 C 185.61771,972.00557 187,970.23719 187,965.0321 c 0,-3.80608 -0.51669,-5.15293 -2.82528,-7.3647 -4.18392,-4.00846 -8.10288,-4.82677 -12.87777,-2.68898 -8.91329,3.99059 -8.04988,16.1778 1.3456,18.99337 3.89014,1.16577 3.63798,1.16961 7.45823,-0.11339 z m -7.93119,-4.45217 c -1.85448,-1.29893 -2.21938,-2.36127 -1.97251,-5.74253 0.24823,-3.39976 0.8023,-4.38703 3.06901,-5.46851 4.78573,-2.28335 9.73391,0.7038 9.73391,5.87624 0,5.77076 -5.99324,8.72289 -10.83041,5.3348 z M 196,966.94098 c 0,-4.60765 0.44886,-6.38984 2,-7.94098 4.43778,-4.43778 8,-1.34354 8,6.94898 0,3.92054 0.4833,6.20723 1.48817,7.0412 2.17612,1.80602 2.81465,-0.62519 2.34539,-8.93003 -0.54884,-9.71301 -2.1527,-11.34507 -10.26492,-10.44539 -3.33775,0.37017 -6.39925,1.17078 -6.80333,1.77914 -1.20662,1.81662 -0.88218,16.08923 0.39477,17.36618 2.01097,2.01097 2.83992,0.31242 2.83992,-5.8191 z M 234.5,958.5 c 0,-12.66667 -0.23333,-15 -1.5,-15 -0.98404,0 -1.6141,1.20253 -1.8317,3.49599 -0.44067,4.64435 -1.43391,5.64217 -6.26073,6.28958 -7.38571,0.99063 -10.63909,5.92367 -8.77888,13.31124 1.45783,5.78954 4.33365,7.44842 12.37131,7.13623 l 6,-0.23304 z m -13.00887,11.11717 c -2.49918,-1.82744 -2.51968,-7.82315 -0.0361,-10.56743 2.38626,-2.63679 7.12604,-2.70111 8.50983,-0.11548 1.54657,2.88979 1.24922,8.70884 -0.53625,10.49431 -1.94086,1.94086 -5.42778,2.02371 -7.93744,0.1886 z M 255.17939,971.5 c -0.17634,-1.1 -0.72958,-4.925 -1.22942,-8.5 -1.27729,-9.13555 -5.94315,-12.49478 -11.72746,-8.4433 -3.3437,2.34202 -2.69582,3.34304 2.02749,3.13263 3.87981,-0.17284 4.25,0.0212 4.25,2.22734 0,1.80349 -0.76118,2.66217 -3,3.38427 -4.05499,1.30788 -5.18961,2.32622 -5.94495,5.33573 -1.0888,4.33812 0.87365,5.48085 8.85114,5.15399 6.45684,-0.26456 7.06502,-0.47024 6.7732,-2.29066 z m -10.82061,-2.0074 c -0.35287,-0.91958 0.0567,-2.33669 0.92693,-3.20689 2.12414,-2.12414 4.94144,-0.90648 4.53443,1.95982 -0.39439,2.77734 -4.51323,3.71785 -5.46136,1.24707 z m 20.99907,2.7574 c 0.27094,-0.9625 0.51105,-3.94775 0.53358,-6.6339 0.0511,-6.09632 2.24828,-8.96396 6.20264,-8.09544 3.30786,0.72653 4.75601,-1.09915 2.58999,-3.26517 -1.2913,-1.2913 -2.04266,-1.3496 -4.46458,-0.3464 -1.6016,0.6634 -4.0866,0.91138 -5.52222,0.55106 -2.17753,-0.54652 -2.70286,-0.26598 -3.16906,1.69236 -0.43968,1.84692 -0.25528,9.62189 0.40551,17.09749 0.13402,1.51622 2.94709,0.69468 3.42414,-1 z m 110.03483,-10.82156 c -0.35543,-1.41618 -0.22845,-2.99267 0.2822,-3.50332 0.56823,-0.56823 116.33104,-0.83081 298.37678,-0.67678 L 971.5,957.5 v 3 3 l -297.73053,0.25166 -297.73053,0.25166 z M 30,785.25858 c -1.375,-0.24251 -3.2875,-1.14465 -4.25,-2.00474 -1.611313,-1.43988 -1.75,-4.72673 -1.75,-41.47457 0,-24.12106 0.387274,-40.63438 0.978891,-41.73983 0.53839,-1.00599 2.405541,-2.32641 4.149223,-2.93426 4.889936,-1.70464 334.123246,-1.40366 338.870906,0.30979 3.23585,1.16783 3.55965,1.66979 4.30511,6.67392 1.30425,8.75521 0.42862,77.58029 -1.00525,79.01311 -0.66061,0.66013 -3.36061,1.55845 -6,1.99627 -4.88487,0.81031 -330.730265,0.9661 -335.29888,0.16031 z m 260.47136,-32.5099 c 3.47971,-7.28822 6.48468,-14.15072 6.6777,-15.25 0.63243,-3.60182 -2.51452,-2.17184 -4.95448,2.25132 -1.28943,2.3375 -2.7396,4.25 -3.22259,4.25 -0.48298,0 -1.63293,-1.59056 -2.55542,-3.53458 -1.7934,-3.7793 -4.87852,-6.14501 -5.8866,-4.51391 -0.32527,0.5263 0.77242,3.96476 2.43931,7.64102 1.6669,3.67625 3.03072,7.32569 3.03072,8.10986 0,0.78417 -1.13279,3.9023 -2.51731,6.92917 -2.41877,5.28796 -2.51798,7.36844 -0.35137,7.36844 0.5573,0 3.86032,-5.96309 7.34004,-13.25132 z m -175.18246,0.14287 c 1.23509,-1.52527 1.71441,-3.51561 1.51022,-6.27109 -0.26689,-3.6017 -0.9123,-4.50187 -5.98988,-8.35422 -8.78494,-6.66512 -8.86937,-10.856 -0.21495,-10.66931 3.60581,0.0778 4.43358,-0.21852 4.19056,-1.5 -0.21767,-1.14781 -1.6705,-1.68405 -5.16577,-1.9067 -6.31209,-0.40208 -9.61908,2.31665 -9.61908,7.90803 0,3.02924 0.59695,4.19651 3.10714,6.07568 5.54391,4.15026 9.89286,8.59186 9.89286,10.10362 0,3.60196 -3.83691,4.37031 -10.85087,2.17292 -1.94846,-0.61043 -2.289287,-0.41677 -1.99114,1.1314 0.9093,4.72158 11.61758,5.64844 15.13091,1.30967 z m 22.50532,1.54003 c 3.23904,-2.26871 1.79412,-3.47396 -3.32379,-2.77247 -2.91603,0.39968 -4.96276,0.17718 -5.95649,-0.64754 -2.39988,-1.99172 -1.8147,-4.73991 1.23606,-5.80494 l 2.75,-0.96004 -2.75,-0.7317 c -1.5125,-0.40244 -2.75,-1.30282 -2.75,-2.00085 0,-2.22121 2.82706,-3.77426 5.60241,-3.07769 2.2896,0.57465 2.55228,1.04018 2.03799,3.61166 -0.55229,2.76145 -0.39031,2.95199 2.5096,2.95199 2.95959,0 3.07156,-0.1472 2.47199,-3.25 -0.84252,-4.36008 -3.95056,-6.75 -8.77823,-6.75 -6.50321,0 -9.61112,4.36555 -8.89897,12.5 0.58094,6.6358 10.24044,10.86027 15.84943,6.93158 z m 22.07466,0.22641 C 161.43082,752.77596 160.27389,752 155.90591,752 c -2.87173,0 -4.2507,-0.62287 -5.83333,-2.63486 -2.72177,-3.46016 -2.61667,-5.91196 0.38197,-8.91059 1.70418,-1.70419 3.56387,-2.45455 6.08333,-2.45455 4.22441,0 4.31128,-1.88361 0.15082,-3.27043 -1.98713,-0.66238 -3.66262,-0.41838 -6.4375,0.9375 -6.92943,3.3859 -7.77487,13.41605 -1.54395,18.31729 2.95034,2.32074 9.46818,2.71411 11.16163,0.67363 z m 21.58275,-0.0733 C 185.65253,752.82944 187,750.4128 187,744.63387 c 0,-3.9321 -0.40867,-4.78914 -3.25,-6.81575 -4.81817,-3.4366 -11.79085,-3.23179 -15.47727,0.45464 -2.18476,2.18475 -2.77273,3.69989 -2.77273,7.14501 0,8.45739 7.4303,12.72736 15.95163,9.16692 z m -9.79664,-4.4134 c -2.0937,-2.31351 -2.13923,-7.54417 -0.0836,-9.59983 2.14978,-2.14979 7.7281,-2.00293 9.77358,0.25731 2.07984,2.2982 2.12117,6.06069 0.0983,8.94875 -1.96251,2.80187 -7.41066,3.02104 -9.78831,0.39377 z m 62.25071,4.44236 c 0.78022,-0.9401 1.06106,-6.01013 0.87245,-15.75 C 234.54621,726.88625 234.2508,724.5 233,724.5 c -0.98896,0 -1.80566,1.58105 -2.39718,4.64069 -0.89395,4.624 -0.91447,4.64299 -5.70189,5.27806 -6.60711,0.87647 -9.34701,4.58706 -8.66075,11.72909 0.60655,6.31243 2.44828,8.13698 9.0186,8.93443 2.88267,0.34987 5.74862,0.69949 6.36878,0.77693 0.62015,0.0774 1.64532,-0.48307 2.27814,-1.24558 z M 223.5,751.80505 c -2.85416,-1.61848 -3.46736,-2.8327 -3.48469,-6.90006 -0.0177,-4.16072 2.41196,-6.90499 6.11343,-6.90499 3.6256,0 4.87126,1.82289 4.87126,7.12857 0,6.75189 -2.86673,9.30385 -7.5,6.67648 z m 31.2901,2.82467 c 0.86176,-0.53259 0.92361,-1.29614 0.2126,-2.62467 -0.55148,-1.03046 -1.0027,-3.636 -1.0027,-5.79009 0,-6.09941 -1.73206,-9.86134 -5.20214,-11.29869 -2.54616,-1.05466 -3.50605,-1.02801 -5.60492,0.15557 -4.23152,2.38621 -3.89515,3.94128 0.8126,3.75681 7.03923,-0.27582 7.65322,3.89037 0.96757,6.56543 -4.59118,1.83703 -6.51686,4.72139 -5.01975,7.51877 0.56305,1.05206 1.48389,2.06456 2.04633,2.25 1.90027,0.62652 11.56594,0.22364 12.79041,-0.53313 z m -9.5401,-1.292 c -1.6747,-0.67575 -1.59297,-4.80819 0.12325,-6.23253 3.25268,-2.69948 6.4716,2.64996 3.42675,5.69481 -1.27897,1.27897 -1.59452,1.32677 -3.55,0.53772 z m -49.49348,-2.91502 c 0.49255,-7.53186 1.32986,-10.39856 3.35357,-11.48162 1.551,-0.83007 2.5819,-0.71769 4.41112,0.48086 2.06503,1.35306 2.42701,2.47572 2.68294,8.32107 0.22803,5.20806 0.6397,6.75699 1.79585,6.75699 1.21343,0 1.5,-1.59332 1.5,-8.33988 0,-7.63207 -0.20681,-8.50721 -2.43677,-10.31153 -1.76503,-1.42813 -3.14338,-1.77041 -5,-1.24165 -1.40978,0.40149 -3.68823,0.77357 -5.06323,0.82684 -4.41638,0.17108 -5,1.22667 -5,9.04345 0,4.04756 0.28044,8.09002 0.62321,8.98325 1.073,2.79619 2.86545,1.05839 3.13331,-3.03778 z m 69.61319,2.3273 c 0.33164,-1.2375 0.60913,-4.3324 0.61664,-6.87756 0.0156,-5.29597 1.10878,-6.57497 6.01766,-7.04074 2.29346,-0.2176 3.49599,-0.84766 3.49599,-1.8317 0,-2.30777 -12.35433,-2.14037 -13.59854,0.18426 -1.01313,1.8929 -1.22909,13.79839 -0.29447,16.23395 0.88879,2.31616 3.06659,1.92941 3.76272,-0.66821 z m 110.01785,-10.18242 c -0.30619,-0.79791 -0.39999,-2.26454 -0.20845,-3.25917 0.33439,-1.73636 8.32126,-1.81847 200.4601,-2.06086 215.98088,-0.27246 204.19619,-0.54554 201.40647,4.66709 l -1.0931,2.04248 -200.00416,0.0306 c -173.86117,0.0266 -200.07692,-0.15902 -200.56086,-1.42015 z m 412.06072,-0.004 c -1.55734,-1.15638 -1.72695,-1.80957 -0.84527,-3.25523 C 788.26328,736.5863 794.40209,736.44585 887.5,737 l 84,0.5 v 3 3 l -91.05172,0.25523 c -78.15909,0.21908 -91.32759,0.0504 -93,-1.19143 z M 26,100 C 24.065131,98.065131 24,96.666667 24,57.056704 V 16.113408 l 2.222506,-1.556704 C 28.212904,13.162575 46.211836,13 198.56752,13 c 163.54192,0 170.18652,0.07074 171.77749,1.828741 1.41263,1.560931 1.65723,4.526435 1.6703,20.25 0.008,10.131692 0.34592,18.871259 0.75,19.421259 0.48695,0.662792 101.39115,1 299.23469,1 h 298.5 v 3 3 l -299,0.241002 -299,0.241002 -0.25256,18.258998 C 372.00967,97.430349 371.87137,98.602519 369.88665,100.25 367.89706,101.90153 358.21867,102 197.88922,102 29.333333,102 27.984303,101.9843 26,100 Z M 153.5,68.729433 C 158.00283,66.210479 162,59.519004 162,54.5 c 0,-5.006849 -3.99769,-11.708328 -8.5,-14.248865 -3.45716,-1.950784 -5.2214,-2.222765 -13,-2.004116 l -9,0.252981 -0.27699,15.424305 c -0.20955,11.669531 0.0339,15.621579 1,16.234687 0.70235,0.445711 4.87699,0.809871 9.27699,0.809245 6.42343,-9.14e-4 8.78829,-0.442118 12,-2.238804 z m -16.06975,-4.050612 c -0.27884,-0.726649 -0.37722,-5.789149 -0.21862,-11.25 L 137.5,43.5 l 5.68069,-0.297836 c 5.03314,-0.263885 6.03451,0.02109 8.78473,2.5 6.06579,5.467419 4.57429,15.79201 -2.72172,18.840479 -4.3922,1.835179 -11.13167,1.912867 -11.81345,0.136178 z M 172,63.311814 C 172,55.732779 173.13599,54 178.10473,54 c 3.61181,0 4.0009,-0.235667 3.71482,-2.25 -0.37031,-2.607431 -5.00121,-3.674049 -7.38002,-1.699813 -1.11828,0.928089 -1.77143,0.919248 -2.9268,-0.03962 -0.81799,-0.678876 -2.16799,-0.973099 -3,-0.653829 -2.00217,0.768306 -2.24631,20.213055 -0.26273,20.925654 2.45305,0.881256 3.75,-1.529538 3.75,-6.97058 z m 60.47135,6.332794 c 3.32654,-2.432425 1.282,-4.483848 -3.88801,-3.901112 C 223.85933,66.27596 221,65.006816 221,62.377555 221,61.363732 222.55192,61 226.87756,61 c 6.61298,0 8.56956,-1.370351 7.58089,-5.309517 -1.04824,-4.176514 -5.04384,-7.145028 -9.61716,-7.145028 -9.70692,0 -13.55893,14.380744 -5.53994,20.682309 2.67035,2.098441 10.53007,2.347209 13.17,0.416844 z M 222.18816,55.261484 c 0.41369,-2.148117 3.41218,-2.838058 5.34887,-1.230753 C 229.56571,55.714387 228.40995,57 224.86766,57 c -2.32491,0 -2.93773,-0.397616 -2.6795,-1.738516 z m 21.24041,14.167087 C 244.49139,68.365752 245,66.00303 245,62.128571 245,55.566055 246.0868,54 250.64098,54 c 3.56784,0 4.67998,-1.000015 3.76471,-3.385163 -0.47969,-1.250071 -2.04246,-1.520215 -7.75324,-1.340243 L 239.5,49.5 l -0.28823,9.917355 c -0.21101,7.260324 0.0569,10.136333 1,10.734687 1.64442,1.043323 1.3936,1.099736 3.2168,-0.723471 z M 190.75454,60.5 C 191.02207,51.040349 190.25061,48.306118 187.60092,49.322898 186.27923,49.830079 186,51.699035 186,60.038166 c 0,9.90306 0.0441,10.094676 2.25,9.781385 2.12061,-0.301175 2.26464,-0.837113 2.50454,-9.319551 z m 14.93644,8.25 c 1.89816,-2.932806 8.09598,-18.285696 7.66396,-18.984715 C 213.0948,49.344378 211.99253,49 210.90545,49 c -1.38277,0 -2.5418,1.318735 -3.85823,4.389835 -1.03493,2.414409 -2.3223,4.662137 -2.8608,4.994951 -0.5385,0.332814 -2.03825,-1.530112 -3.33276,-4.139835 -1.60956,-3.244857 -3.06499,-4.845976 -4.60366,-5.064502 -3.03891,-0.431594 -2.89208,1.213749 0.84567,9.476334 1.70262,3.763769 3.49148,7.855717 3.97525,9.093217 0.96157,2.459729 3.34186,2.974936 4.62006,1 z M 189.82035,43.716462 c 1.42606,-1.718296 -0.18113,-4.175732 -2.21943,-3.393564 C 185.64564,41.073213 185.4581,45 187.37756,45 c 0.75765,0 1.85691,-0.577592 2.44279,-1.283538 z M 495.75,0.26779495 c 2.3375,-0.21053484 6.1625,-0.21053484 8.5,0 2.3375,0.21053483 0.425,0.38279061 -4.25,0.38279061 -4.675,0 -6.5875,-0.17225578 -4.25,-0.38279061 z m 71,0 c 2.3375,-0.21053484 6.1625,-0.21053484 8.5,0 2.3375,0.21053483 0.425,0.38279061 -4.25,0.38279061 -4.675,0 -6.5875,-0.17225578 -4.25,-0.38279061 z m 78.07139,-0.0173126 c 16.12677,-0.15450517 42.22677,-0.15439236 58,2.507e-4 C 718.59463,0.40537611 705.4,0.53178943 673.5,0.53165155 641.6,0.53151366 628.69463,0.40498752 644.82139,0.25048235 Z M 849.25,0.253232 c 6.4625,-0.17418645 17.0375,-0.17418645 23.5,0 6.4625,0.17418644 1.175,0.31670261 -11.75,0.31670261 -12.925,0 -18.2125,-0.14251617 -11.75,-0.31670261 z"
       id="path4836"
       inkscape:connector-curvature="0" />
    <path
       style="fill:#5b5a56"
       d="M 26,100 C 24.065131,98.065131 24,96.666667 24,57.056704 V 16.113408 l 2.222506,-1.556704 C 28.212904,13.162575 46.211836,13 198.56752,13 c 163.54192,0 170.18652,0.07074 171.77749,1.828741 1.41263,1.560931 1.65723,4.526435 1.6703,20.25 0.008,10.131692 0.34592,18.871259 0.75,19.421259 0.48695,0.662792 101.39115,1 299.23469,1 h 298.5 v 3 3 l -299,0.241002 -299,0.241002 -0.25256,18.258998 C 372.00967,97.430349 371.87137,98.602519 369.88665,100.25 367.89706,101.90153 358.21867,102 197.88922,102 29.333333,102 27.984303,101.9843 26,100 Z M 153.5,68.729433 C 158.00283,66.210479 162,59.519004 162,54.5 c 0,-5.006849 -3.99769,-11.708328 -8.5,-14.248865 -3.45716,-1.950784 -5.2214,-2.222765 -13,-2.004116 l -9,0.252981 -0.27699,15.424305 c -0.20955,11.669531 0.0339,15.621579 1,16.234687 0.70235,0.445711 4.87699,0.809871 9.27699,0.809245 6.42343,-9.14e-4 8.78829,-0.442118 12,-2.238804 z m -16.06975,-4.050612 c -0.27884,-0.726649 -0.37722,-5.789149 -0.21862,-11.25 L 137.5,43.5 l 5.68069,-0.297836 c 5.03314,-0.263885 6.03451,0.02109 8.78473,2.5 6.06579,5.467419 4.57429,15.79201 -2.72172,18.840479 -4.3922,1.835179 -11.13167,1.912867 -11.81345,0.136178 z M 172,63.311814 C 172,55.732779 173.13599,54 178.10473,54 c 3.61181,0 4.0009,-0.235667 3.71482,-2.25 -0.37031,-2.607431 -5.00121,-3.674049 -7.38002,-1.699813 -1.11828,0.928089 -1.77143,0.919248 -2.9268,-0.03962 -0.81799,-0.678876 -2.16799,-0.973099 -3,-0.653829 -2.00217,0.768306 -2.24631,20.213055 -0.26273,20.925654 2.45305,0.881256 3.75,-1.529538 3.75,-6.97058 z m 60.47135,6.332794 c 3.32654,-2.432425 1.282,-4.483848 -3.88801,-3.901112 C 223.85933,66.27596 221,65.006816 221,62.377555 221,61.363732 222.55192,61 226.87756,61 c 6.61298,0 8.56956,-1.370351 7.58089,-5.309517 -1.04824,-4.176514 -5.04384,-7.145028 -9.61716,-7.145028 -9.70692,0 -13.55893,14.380744 -5.53994,20.682309 2.67035,2.098441 10.53007,2.347209 13.17,0.416844 z M 222.18816,55.261484 c 0.41369,-2.148117 3.41218,-2.838058 5.34887,-1.230753 C 229.56571,55.714387 228.40995,57 224.86766,57 c -2.32491,0 -2.93773,-0.397616 -2.6795,-1.738516 z m 21.24041,14.167087 C 244.49139,68.365752 245,66.00303 245,62.128571 245,55.566055 246.0868,54 250.64098,54 c 3.56784,0 4.67998,-1.000015 3.76471,-3.385163 -0.47969,-1.250071 -2.04246,-1.520215 -7.75324,-1.340243 L 239.5,49.5 l -0.28823,9.917355 c -0.21101,7.260324 0.0569,10.136333 1,10.734687 1.64442,1.043323 1.3936,1.099736 3.2168,-0.723471 z M 190.75454,60.5 C 191.02207,51.040349 190.25061,48.306118 187.60092,49.322898 186.27923,49.830079 186,51.699035 186,60.038166 c 0,9.90306 0.0441,10.094676 2.25,9.781385 2.12061,-0.301175 2.26464,-0.837113 2.50454,-9.319551 z m 14.93644,8.25 c 1.89816,-2.932806 8.09598,-18.285696 7.66396,-18.984715 C 213.0948,49.344378 211.99253,49 210.90545,49 c -1.38277,0 -2.5418,1.318735 -3.85823,4.389835 -1.03493,2.414409 -2.3223,4.662137 -2.8608,4.994951 -0.5385,0.332814 -2.03825,-1.530112 -3.33276,-4.139835 -1.60956,-3.244857 -3.06499,-4.845976 -4.60366,-5.064502 -3.03891,-0.431594 -2.89208,1.213749 0.84567,9.476334 1.70262,3.763769 3.49148,7.855717 3.97525,9.093217 0.96157,2.459729 3.34186,2.974936 4.62006,1 z M 189.82035,43.716462 c 1.42606,-1.718296 -0.18113,-4.175732 -2.21943,-3.393564 C 185.64564,41.073213 185.4581,45 187.37756,45 c 0.75765,0 1.85691,-0.577592 2.44279,-1.283538 z M 495.75,0.26779495 c 2.3375,-0.21053484 6.1625,-0.21053484 8.5,0 2.3375,0.21053483 0.425,0.38279061 -4.25,0.38279061 -4.675,0 -6.5875,-0.17225578 -4.25,-0.38279061 z m 71,0 c 2.3375,-0.21053484 6.1625,-0.21053484 8.5,0 2.3375,0.21053483 0.425,0.38279061 -4.25,0.38279061 -4.675,0 -6.5875,-0.17225578 -4.25,-0.38279061 z m 78.07139,-0.0173126 c 16.12677,-0.15450517 42.22677,-0.15439236 58,2.507e-4 C 718.59463,0.40537611 705.4,0.53178943 673.5,0.53165155 641.6,0.53151366 628.69463,0.40498752 644.82139,0.25048235 Z M 849.25,0.253232 c 6.4625,-0.17418645 17.0375,-0.17418645 23.5,0 6.4625,0.17418644 1.175,0.31670261 -11.75,0.31670261 -12.925,0 -18.2125,-0.14251617 -11.75,-0.31670261 z"
       id="path4834"
       inkscape:connector-curvature="0" />
  </g>
</svg>
