<?xml version="1.0" encoding="ISO-8859-1"?>
<!-- Wikimedia Commons, User:Sven. Hand edited. :)-->
<!DOCTYPE svg PUBLIC "-//W3C//DTD SVG 1.1//EN" 
 "http://www.w3.org/Graphics/SVG/1.1/DTD/svg11.dtd">  
<svg width="469.157pt" height="72.905pt" viewBox="0 0 469.157 72.905"
  xmlns="http://www.w3.org/2000/svg">
	<g id="Layer_x0020_1" style="fill-rule:nonzero;clip-rule:nonzero;stroke:#000000;stroke-miterlimit:4;">
		<g style="stroke:none;">
			<path d="M121.063,25.141c-0.454-0.156-1.068-0.273-1.843-0.352s-1.443-0.117-2.006-0.117c-0.938,0-1.646,0.239-2.123,0.717c-0.478,0.479-0.716,1.219-0.716,2.221v2.312h4.438v4.625h-4.438V55.11h-7.188V34.547h-2.375v-4.625h2.375v-3.234     c0-2.266,0.778-4.168,2.336-5.707c1.557-1.539,3.502-2.309,5.834-2.309c1.174,0,2.289,0.098,3.346,0.293s1.843,0.426,2.359,0.691v5.484z"/>
			<path d="M139.36,37.485c-0.453-0.363-1.09-0.683-1.91-0.96c-0.82-0.276-1.785-0.415-2.895-0.415c-1.297,0-2.391,0.191-3.281,0.572s-1.633,0.852-2.227,1.412V55.11h-7.188V29.922l7.188-0.5v2.484l2.273-1.402c0.703-0.436,1.512-0.798,2.426-1.087     c0.914-0.288,1.754-0.433,2.52-0.433c0.812,0,1.465,0.051,1.957,0.152s0.871,0.215,1.137,0.34v8.008z"/>
			<path d="M167.438,43.61H148.75c0.39,2.033,1.197,3.5,2.422,4.4s2.71,1.35,4.458,1.35c1.404,0,2.956-0.207,4.657-0.621c1.7-0.414,3.042-0.957,4.025-1.629v6.375c-0.922,0.654-2.31,1.172-4.161,1.553c-1.853,0.381-3.342,0.572-4.467,0.572     c-4.455,0-7.933-1.214-10.434-3.643c-2.501-2.428-3.751-5.68-3.751-9.756c0-4.106,1.276-7.421,3.831-9.943c2.554-2.521,5.744-3.783,9.571-3.783c3.826,0,6.876,1.349,9.149,4.045c2.272,2.697,3.401,6.391,3.386,11.08z M160.813,40.235     c-0.357-1.88-1.077-3.298-2.157-4.254c-1.08-0.955-2.421-1.434-4.021-1.434c-1.866,0-3.273,0.518-4.222,1.552s-1.523,2.413-1.725,4.136h12.125z"/>
			<path d="M195.797,43.61H177.11c0.39,2.033,1.197,3.5,2.422,4.4s2.71,1.35,4.458,1.35c1.404,0,2.956-0.207,4.657-0.621c1.7-0.414,3.042-0.957,4.025-1.629v6.375c-0.922,0.654-2.31,1.172-4.161,1.553c-1.853,0.381-3.342,0.572-4.467,0.572     c-4.455,0-7.933-1.214-10.434-3.643c-2.501-2.428-3.751-5.68-3.751-9.756c0-4.106,1.276-7.421,3.831-9.943c2.554-2.521,5.744-3.783,9.571-3.783c3.826,0,6.876,1.349,9.149,4.045c2.272,2.697,3.401,6.391,3.386,11.08z M189.172,40.235     c-0.357-1.88-1.077-3.298-2.157-4.254c-1.08-0.955-2.421-1.434-4.021-1.434c-1.866,0-3.273,0.518-4.222,1.552s-1.523,2.413-1.725,4.136h12.125z"/>
			<path d="M223.243,55.11h-5.438l-1.562-2.25l-3.778,2.05c-0.313,0.172-0.768,0.299-1.361,0.385c-0.595,0.085-1.111,0.128-1.549,0.128c-3.692,0-6.497-1.244-8.413-3.733c-1.917-2.488-2.883-5.611-2.898-9.368c-0.016-4.069,1.137-7.31,3.458-9.72     s5.39-3.616,9.204-3.616c1.094,0,2.055,0.086,2.883,0.258s1.626,0.477,2.393,0.914V19.11h7.062v36z M216.18,47.422V36.219c-0.392-0.488-1.041-0.91-1.948-1.265c-0.908-0.354-1.894-0.532-2.957-0.532c-1.973,0-3.439,0.578-4.401,1.733     c-0.963,1.155-1.443,2.99-1.443,5.504c0,2.562,0.512,4.476,1.537,5.74c1.025,1.266,2.414,1.897,4.166,1.897c1.127,0,2.116-0.185,2.97-0.556c0.853-0.37,1.545-0.81,2.077-1.319z"/>
			<path d="M253.454,43.61h-18.688c0.39,2.033,1.197,3.5,2.422,4.4s2.71,1.35,4.458,1.35c1.404,0,2.956-0.207,4.657-0.621c1.7-0.414,3.042-0.957,4.025-1.629v6.375c-0.922,0.654-2.31,1.172-4.161,1.553c-1.853,0.381-3.342,0.572-4.467,0.572     c-4.455,0-7.933-1.214-10.434-3.643c-2.501-2.428-3.751-5.68-3.751-9.756c0-4.106,1.276-7.421,3.831-9.943c2.554-2.521,5.744-3.783,9.571-3.783c3.826,0,6.876,1.349,9.149,4.045c2.272,2.697,3.401,6.391,3.386,11.08z M246.829,40.235     c-0.357-1.88-1.077-3.298-2.157-4.254c-1.08-0.955-2.421-1.434-4.021-1.434c-1.866,0-3.273,0.518-4.222,1.552s-1.523,2.413-1.725,4.136h12.125z"/>
			<path d="M276.313,46.474c0,2.749-0.984,4.959-2.951,6.63s-4.402,2.506-7.307,2.506c-1.358,0-2.986-0.138-4.883-0.411c-1.897-0.274-3.58-0.804-5.047-1.589v-6.312c1.156,0.646,2.469,1.203,3.938,1.672s3.172,0.703,5.109,0.703c1.391,0,2.512-0.2,3.363-0.602     c0.852-0.4,1.277-1.126,1.277-2.175c0-0.687-0.359-1.244-1.077-1.674s-1.966-0.723-3.745-0.879c-3.184-0.266-5.416-1.038-6.695-2.319c-1.28-1.28-1.92-2.998-1.92-5.153c0-2.436,0.98-4.442,2.941-6.02s4.371-2.366,7.23-2.366c1.25,0,2.586,0.113,4.008,0.34     s2.633,0.509,3.633,0.848v6.375c-1.25-0.557-2.496-0.967-3.738-1.23c-1.242-0.263-2.582-0.395-4.02-0.395c-1.156,0-2.059,0.196-2.707,0.587c-0.648,0.392-0.973,0.848-0.973,1.369c0,0.953,0.46,1.581,1.38,1.886s1.886,0.488,2.899,0.551     c3.086,0.203,5.405,0.969,6.956,2.296s2.327,3.115,2.327,5.363z"/>
			<path d="M304.704,55.11h-8.574l-7.052-11.068l-1.499,1.394v9.675h-7.188v-36h7.188v19.421l9.669-9.671l4.769,3.185l-7.687,7.119l10.374,15.946z"/>
			<path d="M318.938,50.735l-5.219,4.875c-2.156-0.891-3.773-2.192-4.852-3.905c-1.078-1.712-1.617-3.757-1.617-6.134V34.547h-2.375v-4.625h2.375V21.61l7.188-0.5v8.812h3.75v4.625h-3.75v9.009c0,1.799,0.406,3.293,1.219,4.481s1.906,2.088,3.281,2.697z"/>
			<path d="M347.165,42.047c0,4.139-1.186,7.434-3.557,9.885c-2.371,2.452-5.623,3.678-9.756,3.678c-4.445,0-7.775-1.233-9.99-3.701c-2.215-2.467-3.322-5.754-3.322-9.861c0-3.732,1.192-6.926,3.579-9.58s5.631-3.982,9.733-3.982c4.117,0,7.365,1.227,9.744,3.678     c2.379,2.452,3.568,5.747,3.568,9.885z M339.915,42.047c0-2.036-0.536-3.848-1.606-5.434c-1.071-1.586-2.553-2.379-4.444-2.379c-2.174,0-3.729,0.724-4.667,2.169c-0.938,1.446-1.407,3.327-1.407,5.644c0,2.161,0.562,4.004,1.688,5.527     c1.125,1.523,2.634,2.285,4.526,2.285c2.11,0,3.623-0.617,4.538-1.854c0.914-1.236,1.372-3.223,1.372-5.959z"/>
			<path d="M376.461,41.833c0,3.89-1.192,7.096-3.577,9.618c-2.385,2.523-5.282,3.784-8.691,3.784c-1.174,0-2.249-0.094-3.226-0.279c-0.978-0.186-1.771-0.426-2.381-0.721v8.5h-7.062V29.922l6.758-0.5l0.367,1.492l2.391-1.172c0.766-0.375,1.445-0.668,2.039-0.879     s1.297-0.316,2.109-0.316c3.453,0,6.195,1.254,8.227,3.761c2.031,2.508,3.047,5.683,3.047,9.524z M369.274,42.157c0-2.061-0.541-3.844-1.621-5.35s-2.568-2.26-4.463-2.26c-1.253,0-2.239,0.198-2.96,0.594c-0.721,0.396-1.269,0.808-1.644,1.234v11.859     c0.375,0.434,1.002,0.781,1.879,1.044s1.848,0.394,2.913,0.394c2.02,0,3.508-0.636,4.463-1.908c0.955-1.271,1.433-3.141,1.433-5.607z"/>
			<path d="M389.211,55.11h-7.438v-7.625h7.438v7.625z"/>
			<path d="M421.157,42.047c0,4.139-1.186,7.434-3.557,9.885c-2.371,2.452-5.623,3.678-9.756,3.678c-4.445,0-7.775-1.233-9.99-3.701c-2.215-2.467-3.322-5.754-3.322-9.861c0-3.732,1.192-6.926,3.579-9.58s5.631-3.982,9.733-3.982c4.117,0,7.365,1.227,9.744,3.678     c2.379,2.452,3.568,5.747,3.568,9.885z M413.907,42.047c0-2.036-0.536-3.848-1.606-5.434c-1.071-1.586-2.553-2.379-4.444-2.379c-2.174,0-3.729,0.724-4.667,2.169c-0.938,1.446-1.407,3.327-1.407,5.644c0,2.161,0.562,4.004,1.688,5.527     c1.125,1.523,2.634,2.285,4.526,2.285c2.11,0,3.623-0.617,4.538-1.854c0.914-1.236,1.372-3.223,1.372-5.959z"/>
			<path d="M443.016,37.485c-0.453-0.363-1.09-0.683-1.91-0.96c-0.82-0.276-1.785-0.415-2.895-0.415c-1.297,0-2.391,0.191-3.281,0.572s-1.633,0.852-2.227,1.412V55.11h-7.188V29.922l7.188-0.5v2.484l2.273-1.402c0.703-0.436,1.512-0.798,2.426-1.087     c0.914-0.288,1.754-0.433,2.52-0.433c0.812,0,1.465,0.051,1.957,0.152s0.871,0.215,1.137,0.34v8.008z"/>
			<path d="M469.157,51.914c0,1.577-0.301,2.994-0.9,4.251c-0.601,1.256-1.392,2.329-2.373,3.22c-0.967,0.874-2.034,1.592-3.203,2.153c-1.17,0.561-2.284,0.968-3.344,1.221l-6.242-0.023v-4.062c3.568,0,5.971-0.348,7.207-1.042c1.236-0.695,1.855-1.868,1.855-3.521     v-1.781l-2.509,1.688c-0.47,0.312-1.017,0.531-1.642,0.656s-1.204,0.188-1.735,0.188c-3.533,0-6.269-1.184-8.207-3.551s-2.907-5.59-2.907-9.668c0-3.797,1.134-6.918,3.401-9.363s5.121-3.668,8.562-3.668c1.126,0,2.275,0.19,3.448,0.57s2.244,0.981,3.214,1.805     l3.875-1.5l1.5,0.438v21.991z M462.344,46.782V36.735c-0.404-0.645-0.926-1.16-1.563-1.546s-1.509-0.579-2.612-0.579c-2.068,0-3.546,0.648-4.433,1.943c-0.887,1.296-1.329,2.794-1.329,4.495c0,2.264,0.458,4.121,1.376,5.572s2.31,2.177,4.176,2.177     c0.948,0,1.812-0.18,2.589-0.539s1.377-0.852,1.797-1.477z"/>
		</g>
		<g style="fill:#FFFFFF;stroke:#3B80AE;stroke-width:2.4588;">
			<g>
				<path style="stroke:#BABABA;" d="M85.277,40.796c2.058,7.884-2.667,15.942-10.551,17.999L27.143,71.21c-7.884,2.057-15.943-2.667-18-10.552l-7.448-28.55c-2.057-7.884,2.667-15.942,10.551-17.999L59.83,1.695c7.884-2.057,15.942,2.667,17.999,10.551l7.449,28.55z"/>
				<path style="fill:#3B80AE;stroke:none;" d="M80.444,39.778c1.749,7.854-1.816,13.621-9.504,15.447l-42.236,11.02c-7.569,2.396-14.089-1.181-15.838-8.836L6.53,33.127c-1.749-8.145,0.709-12.889,9.503-15.447L58.27,6.661c8.144-1.826,14.089,1.363,15.838,8.835l6.336,24.282z"/>
			</g>
			<path style="opacity:0.5;fill:none;stroke:#FFFFFF;" d="M45.542,51.793L24.104,31.102l38.1-4.393L45.542,51.793z"/>
			<path d="M72.325,28.769c0.405,1.55-0.525,3.136-2.075,3.541l-12.331,3.217c-1.551,0.404-3.137-0.525-3.542-2.076l-2.295-8.801c-0.405-1.551,0.524-3.137,2.076-3.542l12.33-3.217c1.551-0.405,3.137,0.525,3.542,2.076l2.295,8.801z"/>
			<path d="M36.51,33.625c0.496,1.9-0.645,3.844-2.545,4.34l-15.112,3.943c-1.901,0.496-3.845-0.644-4.34-2.544l-2.814-10.786c-0.496-1.901,0.644-3.844,2.544-4.34l15.113-3.942c1.901-0.496,3.845,0.643,4.34,2.544l2.814,10.786z"/>
			<path d="M52.493,53.208c0.278,1.065-0.36,2.154-1.425,2.432L42.6,57.848c-1.064,0.277-2.153-0.36-2.431-1.426l-1.577-6.043c-0.277-1.064,0.36-2.153,1.425-2.432l8.468-2.209c1.064-0.277,2.154,0.361,2.431,1.426l1.577,6.043z"/>
		</g>
	</g>
</svg>
