<svg xmlns="http://www.w3.org/2000/svg" version="1.1" x="0px" y="0px" viewBox="0 0 200 40" enable-background="new 0 0 200 40" xml:space="preserve"><path fill="#482366" d="M45.665 5.431c-2.434 0-4.528 1.421-5.52 3.475L27.764 8.895l-0.54-1.541c1.17-0.619 1.97-1.848 1.97-3.264 0-2.038-1.652-3.691-3.69-3.691s-3.69 1.653-3.69 3.691c0 1.724 1.184 3.168 2.783 3.572 0.043 0.449 0.087 0.991 0.122 1.234h-3.36c-0.298-2.002-2.019-3.539-4.102-3.539 -2.293 0-4.152 1.859-4.152 4.153 0 2.293 1.859 4.152 4.152 4.152 1.632 0 3.04-0.944 3.719-2.314 0.839 0.143 1.931 0.398 2.829 0.617 -0.573 0.904-1.17 2.049-1.784 3.531C17.65 17.949 12.223 22.28 8.79 25.631l-0.381 1.482c1.091-0.661 2.275-1.3 3.493-1.905 0 0.002 0.002 0.006 0.002 0.006 2.383-1.115 1.842 0.737 1.684 1.343 0.475-0.16 0.963-0.32 1.462-0.482l0.99-2.755c1.379-0.582 2.709-1.102 3.899-1.546 -0.514 1.887-1.03 4.056-1.546 6.562 -2.669 2.911-3.417 5.975-3.621 7.244 1.681-0.737 3.365-1.452 5.028-2.13 1.316-2.722 5.806-5.597 10.049-6.431 2.778-0.544 4.761-0.08 5.443 1.069 1.814-0.514 3.556-0.965 5.201-1.352 -0.865-1.43-3.087-4.116-7.669-4.364 -0.052-2.335 0.878-3.39 0.878-3.39l7.934-2.806c1.079 0.942 2.485 1.518 4.029 1.518 3.388 0 6.132-2.746 6.132-6.133S49.053 5.431 45.665 5.431"/><path fill="#482366" d="M56.155 27.208c0.283 1.457-4.067 3.799-16.936 7.079C26.35 37.565 9.555 39.082 9.555 39.082s1.819-0.782 4.727-1.942c5.651-2.261 15.417-5.954 23.915-8.118C51.064 25.741 55.875 25.755 56.155 27.208"/><polygon fill="#006ea3" points="159.49,34.007 159.49,9.018 154.732,9.018 154.732,24.585 144.661,9.018 140.398,9.018    140.398,34.007 145.157,34.007 145.157,17.909 155.227,34.007  "/><polygon fill="#006ea3" points="163.89,34.007 180.3,34.006 180.3,29.777 168.652,29.777 168.652,23.522 178.569,23.522    178.569,19.292 168.652,19.292 168.652,13.248 180.3,13.247 180.3,9.017 163.89,9.017  "/><path fill="#006ea3" d="M88.645 28.623c-0.804-0.894-1.008-2.047-1.107-3.211 -0.213-2.494-0.202-5.078-0.018-7.573 0.087-1.184 0.248-2.414 1.047-3.346 1.605-1.874 4.863-1.982 6.507-0.089 0.754 0.842 0.996 1.895 1.112 2.995 0.261 2.481 0.227 5.067 0.058 7.553 -0.086 1.261-0.238 2.588-1.091 3.582C93.546 30.404 90.295 30.519 88.645 28.623M85.117 11.538c-1.659 1.657-2.235 3.844-2.382 6.124 -0.152 2.345-0.13 4.757-0.031 7.104 0.095 2.267 0.493 4.543 2.027 6.307 1.58 1.817 3.798 2.908 6.19 3.108 4.857 0.406 9.24-2.593 9.955-7.514 0.311-2.139 0.333-4.338 0.211-6.495 -0.012-2.26-0.033-4.68-1.089-6.739C97.194 7.975 89.264 7.393 85.117 11.538"/><polygon fill="#006ea3" points="121.417,13.247 127.003,13.247 127.003,34.007 131.763,34.007 131.763,13.322 131.763,13.247    137.35,13.247 137.35,9.017 121.417,9.017  "/><polygon fill="#006ea3" points="183.35,9.018 183.35,13.247 188.935,13.247 188.935,34.007 193.696,34.007 193.696,13.321  193.696,13.247 199.282,13.247 199.282,9.018  "/><polygon fill="#006ea3" points="79.184,34.007 79.184,9.018 74.425,9.018 74.425,19.292 65.77,19.292 65.77,9.018 61.009,9.018    61.009,34.007 65.77,34.007 65.77,23.486 74.425,23.486 74.425,34.007  "/><path fill="#006ea3" d="M119.081 21.994c-0.979-1.064-2.382-1.811-4.656-2.319l-2.938-0.666c-1.012-0.227-1.787-0.673-2.238-1.16 -0.42-0.458-0.59-1.023-0.59-1.569 0-0.082 0.004-0.162 0.012-0.237 0.145-1.558 1.337-2.782 3.594-2.787 0.023 0.001 0.041 0.003 0.06 0.002v-0.006h5.988V9.005h-5.998v0.006l-0.077-0.005c-0.018 0-0.035 0-0.063-0.001h-0.012l-0.008-0.001c-4.796 0.003-7.929 2.716-8.291 6.802 -0.027 0.295-0.04 0.581-0.04 0.866l-0.002 0.015c0 1.671 0.475 3.037 1.418 4.134 1.044 1.177 2.584 1.971 4.717 2.464l3.011 0.675c1.148 0.271 1.687 0.559 2.14 1.047 0.41 0.446 0.602 1.049 0.602 1.754 0 0.118-0.004 0.241-0.018 0.37 -0.158 1.708-1.424 2.464-3.682 2.518h-0.003v0.003h-7.739v4.349L112.008 34l0.105-0.001v-0.001 -0.003l0.072-0.002c4.501-0.122 8.002-2.31 8.385-6.59 0.028-0.328 0.042-0.648 0.042-0.958C120.613 24.673 120.135 23.155 119.081 21.994"/><path fill="#006ea3" d="M9.67 35.848c0.082-0.675 1.023-1.167 1.533-1.461 0.553-0.319 1.131-0.595 1.715-0.853 0.413-0.182 0.646-0.176 0.816-0.609 0.178-0.454 0.379-0.899 0.602-1.333 -3.037 0.875-6.065 1.832-8.988 3.039 -1.57 0.649-3.511 1.359-4.699 2.637 -1.133 1.219 0.696 1.742 1.681 1.893 1.422 0.218 2.882 0.21 4.317 0.17 1.675-0.811 3.358-1.605 5.051-2.377C11.177 36.876 9.567 36.688 9.67 35.848"/></svg>