<?xml version="1.0"?>
<svg xmlns="http://www.w3.org/2000/svg" width="700" height="400" version="1.0" id="ezcGraph"><defs/><g id="chart" color-rendering="optimizeQuality" shape-rendering="geometricPrecision" text-rendering="optimizeLegibility"><path d=" M 0.0000,400.0000 L 0.0000,0.0000 L 700.0000,0.0000 L 700.0000,400.0000 L 0.0000,400.0000 z " style="fill: #eeeeec; fill-opacity: 1.00; stroke: none;"/><path d=" M 0.0000,22.0000 L 0.0000,0.0000 L 700.0000,0.0000 L 700.0000,22.0000 L 0.0000,22.0000 z " style="fill: #000000; fill-opacity: 0.00; stroke: none;"/><path d=" M 0.0000,400.0000 L 0.0000,22.0000 L 140.0000,22.0000 L 140.0000,400.0000 L 0.0000,400.0000 z " style="fill: #000000; fill-opacity: 0.00; stroke: none;"/><path d=" M 2.0000,55.0000 L 2.0000,41.0000 L 16.0000,41.0000 L 16.0000,55.0000 L 2.0000,55.0000 z " style="fill: #3465a4; fill-opacity: 1.00; stroke: none;"/><path d=" M 2.0000,73.0000 L 2.0000,59.0000 L 16.0000,59.0000 L 16.0000,73.0000 L 2.0000,73.0000 z " style="fill: #4e9a06; fill-opacity: 1.00; stroke: none;"/><path d=" M 140.0000,362.2000 L 700.0000,362.2000" style="fill: none; stroke: #2e3436; stroke-width: 1; stroke-opacity: 1.00; stroke-linecap: round; stroke-linejoin: round;"/><path d=" M 692.0000,366.2000 L 700.0000,362.2000 L 692.0000,358.2000 L 692.0000,366.2000 z " style="fill: #2e3436; fill-opacity: 1.00; stroke: none;"/><path d=" M 285.6000,59.8000 L 285.6000,362.2000" style="fill: none; stroke: #000000; stroke-width: 1; stroke-opacity: 0.00; stroke-linecap: round; stroke-linejoin: round;"/><path d=" M 285.6000,359.2000 L 285.6000,362.2000" style="fill: none; stroke: #2e3436; stroke-width: 1; stroke-opacity: 1.00; stroke-linecap: round; stroke-linejoin: round;"/><path d=" M 375.2000,59.8000 L 375.2000,362.2000" style="fill: none; stroke: #000000; stroke-width: 1; stroke-opacity: 0.00; stroke-linecap: round; stroke-linejoin: round;"/><path d=" M 375.2000,359.2000 L 375.2000,362.2000" style="fill: none; stroke: #2e3436; stroke-width: 1; stroke-opacity: 1.00; stroke-linecap: round; stroke-linejoin: round;"/><path d=" M 464.8000,59.8000 L 464.8000,362.2000" style="fill: none; stroke: #000000; stroke-width: 1; stroke-opacity: 0.00; stroke-linecap: round; stroke-linejoin: round;"/><path d=" M 464.8000,359.2000 L 464.8000,362.2000" style="fill: none; stroke: #2e3436; stroke-width: 1; stroke-opacity: 1.00; stroke-linecap: round; stroke-linejoin: round;"/><path d=" M 554.4000,59.8000 L 554.4000,362.2000" style="fill: none; stroke: #000000; stroke-width: 1; stroke-opacity: 0.00; stroke-linecap: round; stroke-linejoin: round;"/><path d=" M 554.4000,359.2000 L 554.4000,362.2000" style="fill: none; stroke: #2e3436; stroke-width: 1; stroke-opacity: 1.00; stroke-linecap: round; stroke-linejoin: round;"/><path d=" M 644.0000,59.8000 L 644.0000,362.2000" style="fill: none; stroke: #000000; stroke-width: 1; stroke-opacity: 0.00; stroke-linecap: round; stroke-linejoin: round;"/><path d=" M 644.0000,359.2000 L 644.0000,362.2000" style="fill: none; stroke: #2e3436; stroke-width: 1; stroke-opacity: 1.00; stroke-linecap: round; stroke-linejoin: round;"/><path d=" M 196.0000,400.0000 L 196.0000,22.0000" style="fill: none; stroke: #2e3436; stroke-width: 1; stroke-opacity: 1.00; stroke-linecap: round; stroke-linejoin: round;"/><path d=" M 192.0000,30.0000 L 196.0000,22.0000 L 200.0000,30.0000 L 192.0000,30.0000 z " style="fill: #2e3436; fill-opacity: 1.00; stroke: none;"/><path d=" M 196.0000,262.4080 L 644.0000,262.4080" style="fill: none; stroke: #000000; stroke-width: 1; stroke-opacity: 0.00; stroke-linecap: round; stroke-linejoin: round;"/><path d=" M 196.0000,261.4000 L 199.0000,261.4000" style="fill: none; stroke: #2e3436; stroke-width: 1; stroke-opacity: 1.00; stroke-linecap: round; stroke-linejoin: round;"/><path d=" M 196.0000,159.5920 L 644.0000,159.5920" style="fill: none; stroke: #000000; stroke-width: 1; stroke-opacity: 0.00; stroke-linecap: round; stroke-linejoin: round;"/><path d=" M 196.0000,160.6000 L 199.0000,160.6000" style="fill: none; stroke: #2e3436; stroke-width: 1; stroke-opacity: 1.00; stroke-linecap: round; stroke-linejoin: round;"/><path d=" M 196.0000,59.8000 L 644.0000,59.8000" style="fill: none; stroke: #000000; stroke-width: 1; stroke-opacity: 0.00; stroke-linecap: round; stroke-linejoin: round;"/><path d=" M 196.0000,59.8000 L 199.0000,59.8000" style="fill: none; stroke: #2e3436; stroke-width: 1; stroke-opacity: 1.00; stroke-linecap: round; stroke-linejoin: round;"/><path d=" M 196.0000,214.0331 L 196.0000,214.0331" style="fill: none; stroke: #3465a4; stroke-width: 1; stroke-opacity: 1.00; stroke-linecap: round; stroke-linejoin: round;"/><path d=" M 196.0000,362.2000 L 196.0000,214.0331 L 213.9200,208.9288 L 213.9200,362.2000 L 196.0000,362.2000 z " style="fill: #3465a4; fill-opacity: 0.10; stroke: none;"/><path d=" M 196.0000,214.0331 L 213.9200,208.9288" style="fill: none; stroke: #3465a4; stroke-width: 1; stroke-opacity: 1.00; stroke-linecap: round; stroke-linejoin: round;"/><path d=" M 213.9200,362.2000 L 213.9200,208.9288 L 231.8400,210.4494 L 231.8400,362.2000 L 213.9200,362.2000 z " style="fill: #3465a4; fill-opacity: 0.10; stroke: none;"/><path d=" M 213.9200,208.9288 L 231.8400,210.4494" style="fill: none; stroke: #3465a4; stroke-width: 1; stroke-opacity: 1.00; stroke-linecap: round; stroke-linejoin: round;"/><path d=" M 231.8400,362.2000 L 231.8400,210.4494 L 249.7600,205.6704 L 249.7600,362.2000 L 231.8400,362.2000 z " style="fill: #3465a4; fill-opacity: 0.10; stroke: none;"/><path d=" M 231.8400,210.4494 L 249.7600,205.6704" style="fill: none; stroke: #3465a4; stroke-width: 1; stroke-opacity: 1.00; stroke-linecap: round; stroke-linejoin: round;"/><path d=" M 249.7600,362.2000 L 249.7600,205.6704 L 267.6800,201.9650 L 267.6800,362.2000 L 249.7600,362.2000 z " style="fill: #3465a4; fill-opacity: 0.10; stroke: none;"/><path d=" M 249.7600,205.6704 L 267.6800,201.9650" style="fill: none; stroke: #3465a4; stroke-width: 1; stroke-opacity: 1.00; stroke-linecap: round; stroke-linejoin: round;"/><path d=" M 267.6800,362.2000 L 267.6800,201.9650 L 285.6000,198.3854 L 285.6000,362.2000 L 267.6800,362.2000 z " style="fill: #3465a4; fill-opacity: 0.10; stroke: none;"/><path d=" M 267.6800,201.9650 L 285.6000,198.3854" style="fill: none; stroke: #3465a4; stroke-width: 1; stroke-opacity: 1.00; stroke-linecap: round; stroke-linejoin: round;"/><path d=" M 285.6000,362.2000 L 285.6000,198.3854 L 303.5200,197.1954 L 303.5200,362.2000 L 285.6000,362.2000 z " style="fill: #3465a4; fill-opacity: 0.10; stroke: none;"/><path d=" M 285.6000,198.3854 L 303.5200,197.1954" style="fill: none; stroke: #3465a4; stroke-width: 1; stroke-opacity: 1.00; stroke-linecap: round; stroke-linejoin: round;"/><path d=" M 303.5200,362.2000 L 303.5200,197.1954 L 321.4400,191.3810 L 321.4400,362.2000 L 303.5200,362.2000 z " style="fill: #3465a4; fill-opacity: 0.10; stroke: none;"/><path d=" M 303.5200,197.1954 L 321.4400,191.3810" style="fill: none; stroke: #3465a4; stroke-width: 1; stroke-opacity: 1.00; stroke-linecap: round; stroke-linejoin: round;"/><path d=" M 321.4400,362.2000 L 321.4400,191.3810 L 339.3600,188.3680 L 339.3600,362.2000 L 321.4400,362.2000 z " style="fill: #3465a4; fill-opacity: 0.10; stroke: none;"/><path d=" M 321.4400,191.3810 L 339.3600,188.3680" style="fill: none; stroke: #3465a4; stroke-width: 1; stroke-opacity: 1.00; stroke-linecap: round; stroke-linejoin: round;"/><path d=" M 339.3600,362.2000 L 339.3600,188.3680 L 357.2800,188.3680 L 357.2800,362.2000 L 339.3600,362.2000 z " style="fill: #3465a4; fill-opacity: 0.10; stroke: none;"/><path d=" M 339.3600,188.3680 L 357.2800,188.3680" style="fill: none; stroke: #3465a4; stroke-width: 1; stroke-opacity: 1.00; stroke-linecap: round; stroke-linejoin: round;"/><path d=" M 357.2800,362.2000 L 357.2800,188.3680 L 375.2000,188.3680 L 375.2000,362.2000 L 357.2800,362.2000 z " style="fill: #3465a4; fill-opacity: 0.10; stroke: none;"/><path d=" M 357.2800,188.3680 L 375.2000,188.3680" style="fill: none; stroke: #3465a4; stroke-width: 1; stroke-opacity: 1.00; stroke-linecap: round; stroke-linejoin: round;"/><path d=" M 375.2000,362.2000 L 375.2000,188.3680 L 393.1200,182.5098 L 393.1200,362.2000 L 375.2000,362.2000 z " style="fill: #3465a4; fill-opacity: 0.10; stroke: none;"/><path d=" M 375.2000,188.3680 L 393.1200,182.5098" style="fill: none; stroke: #3465a4; stroke-width: 1; stroke-opacity: 1.00; stroke-linecap: round; stroke-linejoin: round;"/><path d=" M 393.1200,362.2000 L 393.1200,182.5098 L 411.0400,176.1667 L 411.0400,362.2000 L 393.1200,362.2000 z " style="fill: #3465a4; fill-opacity: 0.10; stroke: none;"/><path d=" M 393.1200,182.5098 L 411.0400,176.1667" style="fill: none; stroke: #3465a4; stroke-width: 1; stroke-opacity: 1.00; stroke-linecap: round; stroke-linejoin: round;"/><path d=" M 411.0400,362.2000 L 411.0400,176.1667 L 428.9600,172.4223 L 428.9600,362.2000 L 411.0400,362.2000 z " style="fill: #3465a4; fill-opacity: 0.10; stroke: none;"/><path d=" M 411.0400,176.1667 L 428.9600,172.4223" style="fill: none; stroke: #3465a4; stroke-width: 1; stroke-opacity: 1.00; stroke-linecap: round; stroke-linejoin: round;"/><path d=" M 428.9600,362.2000 L 428.9600,172.4223 L 446.8800,167.8620 L 446.8800,362.2000 L 428.9600,362.2000 z " style="fill: #3465a4; fill-opacity: 0.10; stroke: none;"/><path d=" M 428.9600,172.4223 L 446.8800,167.8620" style="fill: none; stroke: #3465a4; stroke-width: 1; stroke-opacity: 1.00; stroke-linecap: round; stroke-linejoin: round;"/><path d=" M 446.8800,362.2000 L 446.8800,167.8620 L 464.8000,163.4164 L 464.8000,362.2000 L 446.8800,362.2000 z " style="fill: #3465a4; fill-opacity: 0.10; stroke: none;"/><path d=" M 446.8800,167.8620 L 464.8000,163.4164" style="fill: none; stroke: #3465a4; stroke-width: 1; stroke-opacity: 1.00; stroke-linecap: round; stroke-linejoin: round;"/><path d=" M 464.8000,362.2000 L 464.8000,163.4164 L 482.7200,159.0120 L 482.7200,362.2000 L 464.8000,362.2000 z " style="fill: #3465a4; fill-opacity: 0.10; stroke: none;"/><path d=" M 464.8000,163.4164 L 482.7200,159.0120" style="fill: none; stroke: #3465a4; stroke-width: 1; stroke-opacity: 1.00; stroke-linecap: round; stroke-linejoin: round;"/><path d=" M 482.7200,362.2000 L 482.7200,159.0120 L 500.6400,155.7739 L 500.6400,362.2000 L 482.7200,362.2000 z " style="fill: #3465a4; fill-opacity: 0.10; stroke: none;"/><path d=" M 482.7200,159.0120 L 500.6400,155.7739" style="fill: none; stroke: #3465a4; stroke-width: 1; stroke-opacity: 1.00; stroke-linecap: round; stroke-linejoin: round;"/><path d=" M 500.6400,362.2000 L 500.6400,155.7739 L 518.5600,145.8163 L 518.5600,362.2000 L 500.6400,362.2000 z " style="fill: #3465a4; fill-opacity: 0.10; stroke: none;"/><path d=" M 500.6400,155.7739 L 518.5600,145.8163" style="fill: none; stroke: #3465a4; stroke-width: 1; stroke-opacity: 1.00; stroke-linecap: round; stroke-linejoin: round;"/><path d=" M 518.5600,362.2000 L 518.5600,145.8163 L 536.4800,137.7442 L 536.4800,362.2000 L 518.5600,362.2000 z " style="fill: #3465a4; fill-opacity: 0.10; stroke: none;"/><path d=" M 518.5600,145.8163 L 536.4800,137.7442" style="fill: none; stroke: #3465a4; stroke-width: 1; stroke-opacity: 1.00; stroke-linecap: round; stroke-linejoin: round;"/><path d=" M 536.4800,362.2000 L 536.4800,137.7442 L 554.4000,138.7559 L 554.4000,362.2000 L 536.4800,362.2000 z " style="fill: #3465a4; fill-opacity: 0.10; stroke: none;"/><path d=" M 536.4800,137.7442 L 554.4000,138.7559" style="fill: none; stroke: #3465a4; stroke-width: 1; stroke-opacity: 1.00; stroke-linecap: round; stroke-linejoin: round;"/><path d=" M 554.4000,362.2000 L 554.4000,138.7559 L 572.3200,127.3405 L 572.3200,362.2000 L 554.4000,362.2000 z " style="fill: #3465a4; fill-opacity: 0.10; stroke: none;"/><path d=" M 554.4000,138.7559 L 572.3200,127.3405" style="fill: none; stroke: #3465a4; stroke-width: 1; stroke-opacity: 1.00; stroke-linecap: round; stroke-linejoin: round;"/><path d=" M 572.3200,362.2000 L 572.3200,127.3405 L 590.2400,140.9192 L 590.2400,362.2000 L 572.3200,362.2000 z " style="fill: #3465a4; fill-opacity: 0.10; stroke: none;"/><path d=" M 572.3200,127.3405 L 590.2400,140.9192" style="fill: none; stroke: #3465a4; stroke-width: 1; stroke-opacity: 1.00; stroke-linecap: round; stroke-linejoin: round;"/><path d=" M 590.2400,362.2000 L 590.2400,140.9192 L 608.1600,138.6963 L 608.1600,362.2000 L 590.2400,362.2000 z " style="fill: #3465a4; fill-opacity: 0.10; stroke: none;"/><path d=" M 590.2400,140.9192 L 608.1600,138.6963" style="fill: none; stroke: #3465a4; stroke-width: 1; stroke-opacity: 1.00; stroke-linecap: round; stroke-linejoin: round;"/><path d=" M 608.1600,362.2000 L 608.1600,138.6963 L 626.0800,157.7251 L 626.0800,362.2000 L 608.1600,362.2000 z " style="fill: #3465a4; fill-opacity: 0.10; stroke: none;"/><path d=" M 608.1600,138.6963 L 626.0800,157.7251" style="fill: none; stroke: #3465a4; stroke-width: 1; stroke-opacity: 1.00; stroke-linecap: round; stroke-linejoin: round;"/><path d=" M 626.0800,362.2000 L 626.0800,157.7251 L 644.0000,147.0844 L 644.0000,362.2000 L 626.0800,362.2000 z " style="fill: #3465a4; fill-opacity: 0.10; stroke: none;"/><path d=" M 626.0800,157.7251 L 644.0000,147.0844" style="fill: none; stroke: #3465a4; stroke-width: 1; stroke-opacity: 1.00; stroke-linecap: round; stroke-linejoin: round;"/><path d=" M 196.0000,348.7853 L 196.0000,348.7853" style="fill: none; stroke: #4e9a06; stroke-width: 1; stroke-opacity: 1.00; stroke-linecap: round; stroke-linejoin: round;"/><path d=" M 196.0000,362.2000 L 196.0000,348.7853 L 213.9200,348.7934 L 213.9200,362.2000 L 196.0000,362.2000 z " style="fill: #4e9a06; fill-opacity: 0.10; stroke: none;"/><path d=" M 196.0000,348.7853 L 213.9200,348.7934" style="fill: none; stroke: #4e9a06; stroke-width: 1; stroke-opacity: 1.00; stroke-linecap: round; stroke-linejoin: round;"/><path d=" M 213.9200,362.2000 L 213.9200,348.7934 L 231.8400,348.7405 L 231.8400,362.2000 L 213.9200,362.2000 z " style="fill: #4e9a06; fill-opacity: 0.10; stroke: none;"/><path d=" M 213.9200,348.7934 L 231.8400,348.7405" style="fill: none; stroke: #4e9a06; stroke-width: 1; stroke-opacity: 1.00; stroke-linecap: round; stroke-linejoin: round;"/><path d=" M 231.8400,362.2000 L 231.8400,348.7405 L 249.7600,348.6535 L 249.7600,362.2000 L 231.8400,362.2000 z " style="fill: #4e9a06; fill-opacity: 0.10; stroke: none;"/><path d=" M 231.8400,348.7405 L 249.7600,348.6535" style="fill: none; stroke: #4e9a06; stroke-width: 1; stroke-opacity: 1.00; stroke-linecap: round; stroke-linejoin: round;"/><path d=" M 249.7600,362.2000 L 249.7600,348.6535 L 267.6800,348.6754 L 267.6800,362.2000 L 249.7600,362.2000 z " style="fill: #4e9a06; fill-opacity: 0.10; stroke: none;"/><path d=" M 249.7600,348.6535 L 267.6800,348.6754" style="fill: none; stroke: #4e9a06; stroke-width: 1; stroke-opacity: 1.00; stroke-linecap: round; stroke-linejoin: round;"/><path d=" M 267.6800,362.2000 L 267.6800,348.6754 L 285.6000,348.6271 L 285.6000,362.2000 L 267.6800,362.2000 z " style="fill: #4e9a06; fill-opacity: 0.10; stroke: none;"/><path d=" M 267.6800,348.6754 L 285.6000,348.6271" style="fill: none; stroke: #4e9a06; stroke-width: 1; stroke-opacity: 1.00; stroke-linecap: round; stroke-linejoin: round;"/><path d=" M 285.6000,362.2000 L 285.6000,348.6271 L 303.5200,348.6836 L 303.5200,362.2000 L 285.6000,362.2000 z " style="fill: #4e9a06; fill-opacity: 0.10; stroke: none;"/><path d=" M 285.6000,348.6271 L 303.5200,348.6836" style="fill: none; stroke: #4e9a06; stroke-width: 1; stroke-opacity: 1.00; stroke-linecap: round; stroke-linejoin: round;"/><path d=" M 303.5200,362.2000 L 303.5200,348.6836 L 321.4400,348.6042 L 321.4400,362.2000 L 303.5200,362.2000 z " style="fill: #4e9a06; fill-opacity: 0.10; stroke: none;"/><path d=" M 303.5200,348.6836 L 321.4400,348.6042" style="fill: none; stroke: #4e9a06; stroke-width: 1; stroke-opacity: 1.00; stroke-linecap: round; stroke-linejoin: round;"/><path d=" M 321.4400,362.2000 L 321.4400,348.6042 L 339.3600,348.7032 L 339.3600,362.2000 L 321.4400,362.2000 z " style="fill: #4e9a06; fill-opacity: 0.10; stroke: none;"/><path d=" M 321.4400,348.6042 L 339.3600,348.7032" style="fill: none; stroke: #4e9a06; stroke-width: 1; stroke-opacity: 1.00; stroke-linecap: round; stroke-linejoin: round;"/><path d=" M 339.3600,362.2000 L 339.3600,348.7032 L 357.2800,348.7032 L 357.2800,362.2000 L 339.3600,362.2000 z " style="fill: #4e9a06; fill-opacity: 0.10; stroke: none;"/><path d=" M 339.3600,348.7032 L 357.2800,348.7032" style="fill: none; stroke: #4e9a06; stroke-width: 1; stroke-opacity: 1.00; stroke-linecap: round; stroke-linejoin: round;"/><path d=" M 357.2800,362.2000 L 357.2800,348.7032 L 375.2000,348.7032 L 375.2000,362.2000 L 357.2800,362.2000 z " style="fill: #4e9a06; fill-opacity: 0.10; stroke: none;"/><path d=" M 357.2800,348.7032 L 375.2000,348.7032" style="fill: none; stroke: #4e9a06; stroke-width: 1; stroke-opacity: 1.00; stroke-linecap: round; stroke-linejoin: round;"/><path d=" M 375.2000,362.2000 L 375.2000,348.7032 L 393.1200,348.9071 L 393.1200,362.2000 L 375.2000,362.2000 z " style="fill: #4e9a06; fill-opacity: 0.10; stroke: none;"/><path d=" M 375.2000,348.7032 L 393.1200,348.9071" style="fill: none; stroke: #4e9a06; stroke-width: 1; stroke-opacity: 1.00; stroke-linecap: round; stroke-linejoin: round;"/><path d=" M 393.1200,362.2000 L 393.1200,348.9071 L 411.0400,348.9159 L 411.0400,362.2000 L 393.1200,362.2000 z " style="fill: #4e9a06; fill-opacity: 0.10; stroke: none;"/><path d=" M 393.1200,348.9071 L 411.0400,348.9159" style="fill: none; stroke: #4e9a06; stroke-width: 1; stroke-opacity: 1.00; stroke-linecap: round; stroke-linejoin: round;"/><path d=" M 411.0400,362.2000 L 411.0400,348.9159 L 428.9600,349.0156 L 428.9600,362.2000 L 411.0400,362.2000 z " style="fill: #4e9a06; fill-opacity: 0.10; stroke: none;"/><path d=" M 411.0400,348.9159 L 428.9600,349.0156" style="fill: none; stroke: #4e9a06; stroke-width: 1; stroke-opacity: 1.00; stroke-linecap: round; stroke-linejoin: round;"/><path d=" M 428.9600,362.2000 L 428.9600,349.0156 L 446.8800,349.0586 L 446.8800,362.2000 L 428.9600,362.2000 z " style="fill: #4e9a06; fill-opacity: 0.10; stroke: none;"/><path d=" M 428.9600,349.0156 L 446.8800,349.0586" style="fill: none; stroke: #4e9a06; stroke-width: 1; stroke-opacity: 1.00; stroke-linecap: round; stroke-linejoin: round;"/><path d=" M 446.8800,362.2000 L 446.8800,349.0586 L 464.8000,348.9934 L 464.8000,362.2000 L 446.8800,362.2000 z " style="fill: #4e9a06; fill-opacity: 0.10; stroke: none;"/><path d=" M 446.8800,349.0586 L 464.8000,348.9934" style="fill: none; stroke: #4e9a06; stroke-width: 1; stroke-opacity: 1.00; stroke-linecap: round; stroke-linejoin: round;"/><path d=" M 464.8000,362.2000 L 464.8000,348.9934 L 482.7200,349.0582 L 482.7200,362.2000 L 464.8000,362.2000 z " style="fill: #4e9a06; fill-opacity: 0.10; stroke: none;"/><path d=" M 464.8000,348.9934 L 482.7200,349.0582" style="fill: none; stroke: #4e9a06; stroke-width: 1; stroke-opacity: 1.00; stroke-linecap: round; stroke-linejoin: round;"/><path d=" M 482.7200,362.2000 L 482.7200,349.0582 L 500.6400,349.1054 L 500.6400,362.2000 L 482.7200,362.2000 z " style="fill: #4e9a06; fill-opacity: 0.10; stroke: none;"/><path d=" M 482.7200,349.0582 L 500.6400,349.1054" style="fill: none; stroke: #4e9a06; stroke-width: 1; stroke-opacity: 1.00; stroke-linecap: round; stroke-linejoin: round;"/><path d=" M 500.6400,362.2000 L 500.6400,349.1054 L 518.5600,349.1578 L 518.5600,362.2000 L 500.6400,362.2000 z " style="fill: #4e9a06; fill-opacity: 0.10; stroke: none;"/><path d=" M 500.6400,349.1054 L 518.5600,349.1578" style="fill: none; stroke: #4e9a06; stroke-width: 1; stroke-opacity: 1.00; stroke-linecap: round; stroke-linejoin: round;"/><path d=" M 518.5600,362.2000 L 518.5600,349.1578 L 536.4800,349.1793 L 536.4800,362.2000 L 518.5600,362.2000 z " style="fill: #4e9a06; fill-opacity: 0.10; stroke: none;"/><path d=" M 518.5600,349.1578 L 536.4800,349.1793" style="fill: none; stroke: #4e9a06; stroke-width: 1; stroke-opacity: 1.00; stroke-linecap: round; stroke-linejoin: round;"/><path d=" M 536.4800,362.2000 L 536.4800,349.1793 L 554.4000,349.2663 L 554.4000,362.2000 L 536.4800,362.2000 z " style="fill: #4e9a06; fill-opacity: 0.10; stroke: none;"/><path d=" M 536.4800,349.1793 L 554.4000,349.2663" style="fill: none; stroke: #4e9a06; stroke-width: 1; stroke-opacity: 1.00; stroke-linecap: round; stroke-linejoin: round;"/><path d=" M 554.4000,362.2000 L 554.4000,349.2663 L 572.3200,349.1950 L 572.3200,362.2000 L 554.4000,362.2000 z " style="fill: #4e9a06; fill-opacity: 0.10; stroke: none;"/><path d=" M 554.4000,349.2663 L 572.3200,349.1950" style="fill: none; stroke: #4e9a06; stroke-width: 1; stroke-opacity: 1.00; stroke-linecap: round; stroke-linejoin: round;"/><path d=" M 572.3200,362.2000 L 572.3200,349.1950 L 590.2400,349.3242 L 590.2400,362.2000 L 572.3200,362.2000 z " style="fill: #4e9a06; fill-opacity: 0.10; stroke: none;"/><path d=" M 572.3200,349.1950 L 590.2400,349.3242" style="fill: none; stroke: #4e9a06; stroke-width: 1; stroke-opacity: 1.00; stroke-linecap: round; stroke-linejoin: round;"/><path d=" M 590.2400,362.2000 L 590.2400,349.3242 L 608.1600,349.3241 L 608.1600,362.2000 L 590.2400,362.2000 z " style="fill: #4e9a06; fill-opacity: 0.10; stroke: none;"/><path d=" M 590.2400,349.3242 L 608.1600,349.3241" style="fill: none; stroke: #4e9a06; stroke-width: 1; stroke-opacity: 1.00; stroke-linecap: round; stroke-linejoin: round;"/><path d=" M 608.1600,362.2000 L 608.1600,349.3241 L 626.0800,349.3162 L 626.0800,362.2000 L 608.1600,362.2000 z " style="fill: #4e9a06; fill-opacity: 0.10; stroke: none;"/><path d=" M 608.1600,349.3241 L 626.0800,349.3162" style="fill: none; stroke: #4e9a06; stroke-width: 1; stroke-opacity: 1.00; stroke-linecap: round; stroke-linejoin: round;"/><path d=" M 626.0800,362.2000 L 626.0800,349.3162 L 644.0000,349.4181 L 644.0000,362.2000 L 626.0800,362.2000 z " style="fill: #4e9a06; fill-opacity: 0.10; stroke: none;"/><path d=" M 626.0800,349.3162 L 644.0000,349.4181" style="fill: none; stroke: #4e9a06; stroke-width: 1; stroke-opacity: 1.00; stroke-linecap: round; stroke-linejoin: round;"/><text x="240" text-length="220px" y="21" style="font-size: 20px; font-family: sans-serif; fill: #2e3436; fill-opacity: 1.00; stroke: none;">PHP Usage Statistics</text><text x="46.9" text-length="46.2px" y="38" style="font-size: 14px; font-family: sans-serif; fill: #2e3436; fill-opacity: 1.00; stroke: none;">Legend</text><text x="17" text-length="53.9px" y="55" style="font-size: 14px; font-family: sans-serif; fill: #2e3436; fill-opacity: 1.00; stroke: none;">Domains</text><text x="17" text-length="92.4px" y="73" style="font-size: 14px; font-family: sans-serif; fill: #2e3436; fill-opacity: 1.00; stroke: none;">IP addresses</text><text x="262.5" text-length="46.2px" y="376.2" style="font-size: 12px; font-family: sans-serif; fill: #2e3436; fill-opacity: 1.00; stroke: none;">2004-06</text><text x="352.1" text-length="46.2px" y="376.2" style="font-size: 12px; font-family: sans-serif; fill: #2e3436; fill-opacity: 1.00; stroke: none;">2004-11</text><text x="441.7" text-length="46.2px" y="376.2" style="font-size: 12px; font-family: sans-serif; fill: #2e3436; fill-opacity: 1.00; stroke: none;">2005-04</text><text x="531.3" text-length="46.2px" y="376.2" style="font-size: 12px; font-family: sans-serif; fill: #2e3436; fill-opacity: 1.00; stroke: none;">2005-09</text><text x="620.9" text-length="46.2px" y="376.2" style="font-size: 12px; font-family: sans-serif; fill: #2e3436; fill-opacity: 1.00; stroke: none;">2006-02</text><text x="187.4" text-length="6.6px" y="360.2" style="font-size: 12px; font-family: sans-serif; fill: #2e3436; fill-opacity: 1.00; stroke: none;">0</text><text x="180.8" text-length="13.2px" y="259.4" style="font-size: 12px; font-family: sans-serif; fill: #2e3436; fill-opacity: 1.00; stroke: none;">10</text><text x="180.8" text-length="13.2px" y="158.6" style="font-size: 12px; font-family: sans-serif; fill: #2e3436; fill-opacity: 1.00; stroke: none;">20</text><text x="180.8" text-length="13.2px" y="73.8" style="font-size: 12px; font-family: sans-serif; fill: #2e3436; fill-opacity: 1.00; stroke: none;">30</text></g></svg>
