<?xml version="1.0" encoding="UTF-8" standalone="no"?>
<!DOCTYPE svg PUBLIC "-//W3C//DTD SVG 1.0//EN"
 "http://www.w3.org/TR/2001/REC-SVG-20010904/DTD/svg10.dtd" [
 <!ATTLIST svg xmlns:xlink CDATA #FIXED "http://www.w3.org/1999/xlink">
]>
<!-- Generated by dot version 2.8 (Fri Dec  8 12:52:02 UTC 2006)
     For user: (derick) Derick Rethans,,, -->
<!-- Title: Test Pages: 1 -->
<svg width="100%" height="100%"
 viewBox = "0 0 712 726"
 xmlns="http://www.w3.org/2000/svg" xmlns:xlink="http://www.w3.org/1999/xlink">
<g id="graph0" class="graph" style="font-family:Times-Roman;font-size:14.00;">
<title>Test</title>
<polygon style="fill:white;stroke:white;" points="-2,728 -2,-2 714,-2 714,728 -2,728"/>
<!-- 0 -->
<g id="node1" class="node"><title>0</title>
<text text-anchor="middle" x="260" y="26" style="font-family:Arial;">From:      </text>
<polygon style="fill:none;stroke:black;" points="218,31 218,11 301,11 301,31 218,31"/>
<text text-anchor="middle" x="444" y="26" style="font-family:Arial;">John Doe &lt;john@doe.com&gt;</text>
<polygon style="fill:none;stroke:black;" points="303,31 303,11 584,11 584,31 303,31"/>
<text text-anchor="middle" x="260" y="48" style="font-family:Arial;">To:        </text>
<polygon style="fill:none;stroke:black;" points="218,53 218,33 301,33 301,53 218,53"/>
<text text-anchor="middle" x="444" y="48" style="font-family:Arial;">Derick Rethans &lt;dr@ez.no&gt;</text>
<polygon style="fill:none;stroke:black;" points="303,53 303,33 584,33 584,53 303,53"/>
<text text-anchor="middle" x="260" y="70" style="font-family:Arial;">Date:      </text>
<polygon style="fill:none;stroke:black;" points="218,75 218,55 301,55 301,75 218,75"/>
<text text-anchor="middle" x="444" y="70" style="font-family:Arial;">Fri, 21 Apr 06 14:04:46 +0200</text>
<polygon style="fill:none;stroke:black;" points="303,75 303,55 584,55 584,75 303,75"/>
<text text-anchor="middle" x="260" y="92" style="font-family:Arial;">Subject:   </text>
<polygon style="fill:none;stroke:black;" points="218,97 218,77 301,77 301,97 218,97"/>
<text text-anchor="middle" x="444" y="92" style="font-family:Arial;">Example of an HTML email with attachments</text>
<polygon style="fill:none;stroke:black;" points="303,97 303,77 584,77 584,97 303,97"/>
<text text-anchor="middle" x="260" y="114" style="font-family:Arial;">MessageId: </text>
<polygon style="fill:none;stroke:black;" points="218,119 218,99 301,99 301,119 218,119"/>
<text text-anchor="middle" x="444" y="114" style="font-family:Arial;">&lt;2006042114142146.32705.2@doe.com&gt;</text>
<polygon style="fill:none;stroke:black;" points="303,119 303,99 584,99 584,119 303,119"/>
<polygon style="fill:none;stroke:black;" points="215,122 215,8 587,8 587,122 215,122"/>
</g>
<!-- 1 -->
<g id="node3" class="node"><title>1</title>
<text text-anchor="middle" x="401" y="185" style="font-family:Arial;">1. ezcMailMultipartMixed</text>
<polygon style="fill:none;stroke:black;" points="322,190 322,170 480,170 480,190 322,190"/>
<polygon style="fill:none;stroke:black;" points="319,193 319,167 483,167 483,193 319,193"/>
</g>
<!-- 0&#45;&gt;1 -->
<g id="edge2" class="edge"><title>0&#45;&gt;1</title>
<path style="fill:none;stroke:black;" d="M401,126C401,135 401,144 401,152"/>
<polygon style="fill:black;stroke:black;" points="405,152 401,162 398,152 405,152"/>
</g>
<!-- 1.1 -->
<g id="node5" class="node"><title>1.1</title>
<text text-anchor="middle" x="291" y="257" style="font-family:Arial;">1.1. ezcMailMultipartAlternative</text>
<polygon style="fill:none;stroke:black;" points="192,262 192,242 390,242 390,262 192,262"/>
<polygon style="fill:none;stroke:black;" points="189,265 189,239 393,239 393,265 189,265"/>
</g>
<!-- 1&#45;&gt;1.1 -->
<g id="edge4" class="edge"><title>1&#45;&gt;1.1</title>
<path style="fill:none;stroke:black;" d="M373,198C359,207 342,218 327,228"/>
<polygon style="fill:black;stroke:black;" points="328,231 318,234 324,226 328,231"/>
</g>
<!-- 1.2 -->
<g id="node21" class="node"><title>1.2</title>
<text text-anchor="middle" x="512" y="257" style="font-family:Arial;">1.2. ezcMailFile</text>
<polygon style="fill:none;stroke:black;" points="461,262 461,242 563,242 563,262 461,262"/>
<polygon style="fill:none;stroke:black;" points="458,265 458,239 566,239 566,265 458,265"/>
</g>
<!-- 1&#45;&gt;1.2 -->
<g id="edge20" class="edge"><title>1&#45;&gt;1.2</title>
<path style="fill:none;stroke:black;" d="M429,198C443,207 461,218 476,228"/>
<polygon style="fill:black;stroke:black;" points="478,225 484,234 474,231 478,225"/>
</g>
<!-- 1.1.1 -->
<g id="node7" class="node"><title>1.1.1</title>
<text text-anchor="middle" x="96" y="372" style="font-family:Arial;">1.1.1. ezcMailText</text>
<polygon style="fill:none;stroke:black;" points="37,377 37,357 155,357 155,377 37,377"/>
<polygon style="fill:none;stroke:black;" points="34,380 34,354 158,354 158,380 34,380"/>
</g>
<!-- 1.1&#45;&gt;1.1.1 -->
<g id="edge6" class="edge"><title>1.1&#45;&gt;1.1.1</title>
<path style="fill:none;stroke:black;" d="M247,270C225,280 198,292 175,306 158,317 140,331 125,343"/>
<polygon style="fill:black;stroke:black;" points="127,346 117,349 123,340 127,346"/>
</g>
<!-- 1.1.2 -->
<g id="node11" class="node"><title>1.1.2</title>
<text text-anchor="middle" x="291" y="372" style="font-family:Arial;">1.1.2. ezcMailMultipartRelated</text>
<polygon style="fill:none;stroke:black;" points="195,377 195,357 387,357 387,377 195,377"/>
<polygon style="fill:none;stroke:black;" points="192,380 192,354 390,354 390,380 192,380"/>
</g>
<!-- 1.1&#45;&gt;1.1.2 -->
<g id="edge10" class="edge"><title>1.1&#45;&gt;1.1.2</title>
<path style="fill:none;stroke:black;" d="M291,270C291,289 291,317 291,339"/>
<polygon style="fill:black;stroke:black;" points="295,339 291,349 288,339 295,339"/>
</g>
<!-- 1.1.1.content -->
<g id="node9" class="node"><title>1.1.1.content</title>
<text text-anchor="middle" x="96" y="486" style="font-family:Arial;">Original Charset: us&#45;ascii</text>
<polygon style="fill:none;stroke:black;" points="15,491 15,471 177,471 177,491 15,491"/>
<text text-anchor="middle" x="96" y="508" style="font-family:Arial;">Charset:          utf&#45;8</text>
<polygon style="fill:none;stroke:black;" points="15,513 15,493 177,493 177,513 15,513"/>
<text text-anchor="middle" x="96" y="530" style="font-family:Arial;">Encoding:         8bit</text>
<polygon style="fill:none;stroke:black;" points="15,535 15,515 177,515 177,535 15,535"/>
<text text-anchor="middle" x="96" y="552" style="font-family:Arial;">Type:             plain</text>
<polygon style="fill:none;stroke:black;" points="15,557 15,537 177,537 177,557 15,557"/>
<polygon style="fill:none;stroke:black;" points="12,560 12,468 180,468 180,560 12,560"/>
</g>
<!-- 1.1.1&#45;&gt;1.1.1.content -->
<g id="edge8" class="edge"><title>1.1.1&#45;&gt;1.1.1.content</title>
<path style="fill:none;stroke:black;stroke-dasharray:5,2;" d="M96,385C96,402 96,428 96,454"/>
<polygon style="fill:black;stroke:black;" points="100,454 96,464 93,454 100,454"/>
</g>
<!-- 1.1.2.0 -->
<g id="node13" class="node"><title>1.1.2.0</title>
<text text-anchor="middle" x="286" y="519" style="font-family:Arial;">1.1.2.0. ezcMailText</text>
<polygon style="fill:none;stroke:black;" points="221,524 221,504 351,504 351,524 221,524"/>
<polygon style="fill:none;stroke:black;" points="218,527 218,501 354,501 354,527 218,527"/>
</g>
<!-- 1.1.2&#45;&gt;1.1.2.0 -->
<g id="edge12" class="edge"><title>1.1.2&#45;&gt;1.1.2.0</title>
<path style="fill:none;stroke:black;" d="M290,385C289,410 288,455 287,486"/>
<polygon style="fill:black;stroke:black;" points="291,486 287,496 284,486 291,486"/>
</g>
<!-- 1.1.2.1 -->
<g id="node17" class="node"><title>1.1.2.1</title>
<text text-anchor="middle" x="510" y="519" style="font-family:Arial;">1.1.2.1. ezcMailFile</text>
<polygon style="fill:none;stroke:black;" points="447,524 447,504 573,504 573,524 447,524"/>
<polygon style="fill:none;stroke:black;" points="444,527 444,501 576,501 576,527 444,527"/>
</g>
<!-- 1.1.2&#45;&gt;1.1.2.1 -->
<g id="edge16" class="edge"><title>1.1.2&#45;&gt;1.1.2.1</title>
<path style="fill:none;stroke:black;" d="M318,385C357,411 431,460 475,490"/>
<polygon style="fill:black;stroke:black;" points="477,487 483,496 473,493 477,487"/>
</g>
<!-- 1.1.2.0.content -->
<g id="node15" class="node"><title>1.1.2.0.content</title>
<text text-anchor="middle" x="258" y="633" style="font-family:Arial;">Original Charset: us&#45;ascii</text>
<polygon style="fill:none;stroke:black;" points="177,638 177,618 339,618 339,638 177,638"/>
<text text-anchor="middle" x="258" y="655" style="font-family:Arial;">Charset:          utf&#45;8</text>
<polygon style="fill:none;stroke:black;" points="177,660 177,640 339,640 339,660 177,660"/>
<text text-anchor="middle" x="258" y="677" style="font-family:Arial;">Encoding:         8bit</text>
<polygon style="fill:none;stroke:black;" points="177,682 177,662 339,662 339,682 177,682"/>
<text text-anchor="middle" x="258" y="699" style="font-family:Arial;">Type:             html</text>
<polygon style="fill:none;stroke:black;" points="177,704 177,684 339,684 339,704 177,704"/>
<polygon style="fill:none;stroke:black;" points="174,707 174,615 342,615 342,707 174,707"/>
</g>
<!-- 1.1.2.0&#45;&gt;1.1.2.0.content -->
<g id="edge14" class="edge"><title>1.1.2.0&#45;&gt;1.1.2.0.content</title>
<path style="fill:none;stroke:black;stroke-dasharray:5,2;" d="M283,532C279,549 274,576 270,601"/>
<polygon style="fill:black;stroke:black;" points="273,602 268,611 267,601 273,602"/>
</g>
<!-- 1.1.2.1.content -->
<g id="node19" class="node"><title>1.1.2.1.content</title>
<text text-anchor="middle" x="538" y="622" style="font-family:Arial;">Disposition Type: attachment</text>
<polygon style="fill:none;stroke:black;" points="379,627 379,607 697,607 697,627 379,627"/>
<text text-anchor="middle" x="538" y="644" style="font-family:Arial;">Content Type:     application</text>
<polygon style="fill:none;stroke:black;" points="379,649 379,629 697,629 697,649 379,649"/>
<text text-anchor="middle" x="538" y="666" style="font-family:Arial;">Mime Type:        octet&#45;stream</text>
<polygon style="fill:none;stroke:black;" points="379,671 379,651 697,651 697,671 379,671"/>
<text text-anchor="middle" x="538" y="688" style="font-family:Arial;">Content ID:       consoletools&#45;table.png@1421450</text>
<polygon style="fill:none;stroke:black;" points="379,693 379,673 697,673 697,693 379,693"/>
<text text-anchor="middle" x="538" y="710" style="font-family:Arial;">Filename:         /tmp/9609&#45;1/consoletools&#45;table.png</text>
<polygon style="fill:none;stroke:black;" points="379,715 379,695 697,695 697,715 379,715"/>
<polygon style="fill:none;stroke:black;" points="376,718 376,604 700,604 700,718 376,718"/>
</g>
<!-- 1.1.2.1&#45;&gt;1.1.2.1.content -->
<g id="edge18" class="edge"><title>1.1.2.1&#45;&gt;1.1.2.1.content</title>
<path style="fill:none;stroke:black;stroke-dasharray:5,2;" d="M513,532C516,547 520,568 524,590"/>
<polygon style="fill:black;stroke:black;" points="527,590 526,600 521,591 527,590"/>
</g>
<!-- 1.2.content -->
<g id="node23" class="node"><title>1.2.content</title>
<text text-anchor="middle" x="543" y="328" style="font-family:Arial;">Disposition Type: attachment</text>
<polygon style="fill:none;stroke:black;" points="427,333 427,313 659,313 659,333 427,333"/>
<text text-anchor="middle" x="543" y="350" style="font-family:Arial;">Content Type:     application</text>
<polygon style="fill:none;stroke:black;" points="427,355 427,335 659,335 659,355 427,355"/>
<text text-anchor="middle" x="543" y="372" style="font-family:Arial;">Mime Type:        octet&#45;stream</text>
<polygon style="fill:none;stroke:black;" points="427,377 427,357 659,357 659,377 427,377"/>
<text text-anchor="middle" x="543" y="394" style="font-family:Arial;">Content ID:       </text>
<polygon style="fill:none;stroke:black;" points="427,399 427,379 659,379 659,399 427,399"/>
<text text-anchor="middle" x="543" y="416" style="font-family:Arial;">Filename:         /tmp/9609&#45;2/mail.php</text>
<polygon style="fill:none;stroke:black;" points="427,421 427,401 659,401 659,421 427,421"/>
<polygon style="fill:none;stroke:black;" points="424,424 424,310 662,310 662,424 424,424"/>
</g>
<!-- 1.2&#45;&gt;1.2.content -->
<g id="edge22" class="edge"><title>1.2&#45;&gt;1.2.content</title>
<path style="fill:none;stroke:black;stroke-dasharray:5,2;" d="M517,270C519,277 522,287 524,296"/>
<polygon style="fill:black;stroke:black;" points="527,295 527,306 521,297 527,295"/>
</g>
</g>
</svg>
