<?xml version="1.0" encoding="UTF-8" standalone="no"?>
<!-- Created by diasvg.py -->
<svg width="12.447cm" height="22.200cm" viewBox="4.000 0.400 16.447 22.600"
 xmlns="http://www.w3.org/2000/svg"
 xmlns:xlink="http://www.w3.org/1999/xlink">
<rect x="4.200" y="3.000" width="8.541" height="16.941" fill="#959595" stroke="none" stroke-width="0"/>
<path stroke="none" fill="#959595" d ="M 4.200,3.000 A 0.200,0.200 0 0,0 4.000,3.200 "/>
<path stroke="none" fill="#959595" d ="M 12.941,3.200 A 0.200,0.200 0 0,0 12.741,3.000 "/>
<rect x="4.000" y="3.200" width="8.941" height="16.541" fill="#959595" stroke="none" stroke-width="0"/>
<path stroke="none" fill="#959595" d ="M 4.000,19.741 A 0.200,0.200 0 0,0 4.200,19.941 "/>
<path stroke="none" fill="#959595" d ="M 12.741,19.941 A 0.200,0.200 0 0,0 12.941,19.741 "/>
<line x1="4.200" y1="3.000" x2="12.741" y2="3.000" stroke="#000000" stroke-width="0.001" />
<line x1="4.200" y1="19.941" x2="12.741" y2="19.941" stroke="#000000" stroke-width="0.001" />
<path stroke="#000000" fill="none" stroke-width="0.001"  d ="M 4.200,3.000 A 0.200,0.200 0 0,0 4.000,3.200 "/>
<path stroke="#000000" fill="none" stroke-width="0.001"  d ="M 12.941,3.200 A 0.200,0.200 0 0,0 12.741,3.000 "/>
<line x1="4.000" y1="3.200" x2="4.000" y2="19.741" stroke="#000000" stroke-width="0.001" />
<line x1="12.941" y1="3.200" x2="12.941" y2="19.741" stroke="#000000" stroke-width="0.001" />
<path stroke="#000000" fill="none" stroke-width="0.001"  d ="M 4.000,19.741 A 0.200,0.200 0 0,0 4.200,19.941 "/>
<path stroke="#000000" fill="none" stroke-width="0.001"  d ="M 12.741,19.941 A 0.200,0.200 0 0,0 12.941,19.741 "/>
<line x1="11.500" y1="16.000" x2="11.500" y2="16.976" stroke="#0066FF" stroke-width="0.200" />
<polygon fill="#FFFFFF" stroke="none" stroke-width="0.200" points="11.350,16.976 11.500,17.276 11.650,16.976 "/>
<polygon fill="none" stroke="#0066FF" stroke-width="0.200"  points="11.350,16.976 11.500,17.276 11.650,16.976 "/>
<line x1="9.500" y1="11.500" x2="9.500" y2="16.976" stroke="#00FF66" stroke-width="0.200" />
<polygon fill="#FFFFFF" stroke="none" stroke-width="0.200" points="9.350,16.976 9.500,17.276 9.650,16.976 "/>
<polygon fill="none" stroke="#00FF66" stroke-width="0.200"  points="9.350,16.976 9.500,17.276 9.650,16.976 "/>
<line x1="7.500" y1="8.500" x2="7.500" y2="16.976" stroke="#CDFF00" stroke-width="0.200" />
<polygon fill="#FFFFFF" stroke="none" stroke-width="0.200" points="7.350,16.976 7.500,17.276 7.650,16.976 "/>
<polygon fill="none" stroke="#CDFF00" stroke-width="0.200"  points="7.350,16.976 7.500,17.276 7.650,16.976 "/>
<line x1="5.500" y1="5.500" x2="5.500" y2="16.976" stroke="#FF0000" stroke-width="0.200" />
<polygon fill="#FFFFFF" stroke="none" stroke-width="0.200" points="5.350,16.976 5.500,17.276 5.650,16.976 "/>
<polygon fill="none" stroke="#FF0000" stroke-width="0.200"  points="5.350,16.976 5.500,17.276 5.650,16.976 "/>
<rect x="4.700" y="3.500" width="7.600" height="2.000" fill="#FF3333" stroke="none" stroke-width="0"/>
<path stroke="none" fill="#FF3333" d ="M 4.700,3.500 A 0.200,0.200 0 0,0 4.500,3.700 "/>
<path stroke="none" fill="#FF3333" d ="M 12.500,3.700 A 0.200,0.200 0 0,0 12.300,3.500 "/>
<rect x="4.500" y="3.700" width="8.000" height="1.600" fill="#FF3333" stroke="none" stroke-width="0"/>
<path stroke="none" fill="#FF3333" d ="M 4.500,5.300 A 0.200,0.200 0 0,0 4.700,5.500 "/>
<path stroke="none" fill="#FF3333" d ="M 12.300,5.500 A 0.200,0.200 0 0,0 12.500,5.300 "/>
<line x1="4.700" y1="3.500" x2="12.300" y2="3.500" stroke="#000000" stroke-width="0.001" />
<line x1="4.700" y1="5.500" x2="12.300" y2="5.500" stroke="#000000" stroke-width="0.001" />
<path stroke="#000000" fill="none" stroke-width="0.001"  d ="M 4.700,3.500 A 0.200,0.200 0 0,0 4.500,3.700 "/>
<path stroke="#000000" fill="none" stroke-width="0.001"  d ="M 12.500,3.700 A 0.200,0.200 0 0,0 12.300,3.500 "/>
<line x1="4.500" y1="3.700" x2="4.500" y2="5.300" stroke="#000000" stroke-width="0.001" />
<line x1="12.500" y1="3.700" x2="12.500" y2="5.300" stroke="#000000" stroke-width="0.001" />
<path stroke="#000000" fill="none" stroke-width="0.001"  d ="M 4.500,5.300 A 0.200,0.200 0 0,0 4.700,5.500 "/>
<path stroke="#000000" fill="none" stroke-width="0.001"  d ="M 12.300,5.500 A 0.200,0.200 0 0,0 12.500,5.300 "/>
<text x="6.312" y="4.643"  fill="#000000" text-anchor="start" font-size="0.80" font-family="sans" font-style="normal" font-weight="400">
Request Parser</text>
<rect x="4.700" y="7.000" width="7.600" height="2.000" fill="#D7FF33" stroke="none" stroke-width="0"/>
<path stroke="none" fill="#D7FF33" d ="M 4.700,7.000 A 0.200,0.200 0 0,0 4.500,7.200 "/>
<path stroke="none" fill="#D7FF33" d ="M 12.500,7.200 A 0.200,0.200 0 0,0 12.300,7.000 "/>
<rect x="4.500" y="7.200" width="8.000" height="1.600" fill="#D7FF33" stroke="none" stroke-width="0"/>
<path stroke="none" fill="#D7FF33" d ="M 4.500,8.800 A 0.200,0.200 0 0,0 4.700,9.000 "/>
<path stroke="none" fill="#D7FF33" d ="M 12.300,9.000 A 0.200,0.200 0 0,0 12.500,8.800 "/>
<line x1="4.700" y1="7.000" x2="12.300" y2="7.000" stroke="#000000" stroke-width="0.001" />
<line x1="4.700" y1="9.000" x2="12.300" y2="9.000" stroke="#000000" stroke-width="0.001" />
<path stroke="#000000" fill="none" stroke-width="0.001"  d ="M 4.700,7.000 A 0.200,0.200 0 0,0 4.500,7.200 "/>
<path stroke="#000000" fill="none" stroke-width="0.001"  d ="M 12.500,7.200 A 0.200,0.200 0 0,0 12.300,7.000 "/>
<line x1="4.500" y1="7.200" x2="4.500" y2="8.800" stroke="#000000" stroke-width="0.001" />
<line x1="12.500" y1="7.200" x2="12.500" y2="8.800" stroke="#000000" stroke-width="0.001" />
<path stroke="#000000" fill="none" stroke-width="0.001"  d ="M 4.500,8.800 A 0.200,0.200 0 0,0 4.700,9.000 "/>
<path stroke="#000000" fill="none" stroke-width="0.001"  d ="M 12.300,9.000 A 0.200,0.200 0 0,0 12.500,8.800 "/>
<text x="7.534" y="8.143"  fill="#000000" text-anchor="start" font-size="0.80" font-family="sans" font-style="normal" font-weight="400">
Router</text>
<rect x="4.700" y="10.500" width="7.600" height="2.000" fill="#33FF85" stroke="none" stroke-width="0"/>
<path stroke="none" fill="#33FF85" d ="M 4.700,10.500 A 0.200,0.200 0 0,0 4.500,10.700 "/>
<path stroke="none" fill="#33FF85" d ="M 12.500,10.700 A 0.200,0.200 0 0,0 12.300,10.500 "/>
<rect x="4.500" y="10.700" width="8.000" height="1.600" fill="#33FF85" stroke="none" stroke-width="0"/>
<path stroke="none" fill="#33FF85" d ="M 4.500,12.300 A 0.200,0.200 0 0,0 4.700,12.500 "/>
<path stroke="none" fill="#33FF85" d ="M 12.300,12.500 A 0.200,0.200 0 0,0 12.500,12.300 "/>
<line x1="4.700" y1="10.500" x2="12.300" y2="10.500" stroke="#000000" stroke-width="0.001" />
<line x1="4.700" y1="12.500" x2="12.300" y2="12.500" stroke="#000000" stroke-width="0.001" />
<path stroke="#000000" fill="none" stroke-width="0.001"  d ="M 4.700,10.500 A 0.200,0.200 0 0,0 4.500,10.700 "/>
<path stroke="#000000" fill="none" stroke-width="0.001"  d ="M 12.500,10.700 A 0.200,0.200 0 0,0 12.300,10.500 "/>
<line x1="4.500" y1="10.700" x2="4.500" y2="12.300" stroke="#000000" stroke-width="0.001" />
<line x1="12.500" y1="10.700" x2="12.500" y2="12.300" stroke="#000000" stroke-width="0.001" />
<path stroke="#000000" fill="none" stroke-width="0.001"  d ="M 4.500,12.300 A 0.200,0.200 0 0,0 4.700,12.500 "/>
<path stroke="#000000" fill="none" stroke-width="0.001"  d ="M 12.300,12.500 A 0.200,0.200 0 0,0 12.500,12.300 "/>
<text x="7.065" y="11.643"  fill="#000000" text-anchor="start" font-size="0.80" font-family="sans" font-style="normal" font-weight="400">
Controller</text>
<rect x="4.700" y="14.000" width="7.600" height="2.000" fill="#3385FF" stroke="none" stroke-width="0"/>
<path stroke="none" fill="#3385FF" d ="M 4.700,14.000 A 0.200,0.200 0 0,0 4.500,14.200 "/>
<path stroke="none" fill="#3385FF" d ="M 12.500,14.200 A 0.200,0.200 0 0,0 12.300,14.000 "/>
<rect x="4.500" y="14.200" width="8.000" height="1.600" fill="#3385FF" stroke="none" stroke-width="0"/>
<path stroke="none" fill="#3385FF" d ="M 4.500,15.800 A 0.200,0.200 0 0,0 4.700,16.000 "/>
<path stroke="none" fill="#3385FF" d ="M 12.300,16.000 A 0.200,0.200 0 0,0 12.500,15.800 "/>
<line x1="4.700" y1="14.000" x2="12.300" y2="14.000" stroke="#000000" stroke-width="0.001" />
<line x1="4.700" y1="16.000" x2="12.300" y2="16.000" stroke="#000000" stroke-width="0.001" />
<path stroke="#000000" fill="none" stroke-width="0.001"  d ="M 4.700,14.000 A 0.200,0.200 0 0,0 4.500,14.200 "/>
<path stroke="#000000" fill="none" stroke-width="0.001"  d ="M 12.500,14.200 A 0.200,0.200 0 0,0 12.300,14.000 "/>
<line x1="4.500" y1="14.200" x2="4.500" y2="15.800" stroke="#000000" stroke-width="0.001" />
<line x1="12.500" y1="14.200" x2="12.500" y2="15.800" stroke="#000000" stroke-width="0.001" />
<path stroke="#000000" fill="none" stroke-width="0.001"  d ="M 4.500,15.800 A 0.200,0.200 0 0,0 4.700,16.000 "/>
<path stroke="#000000" fill="none" stroke-width="0.001"  d ="M 12.300,16.000 A 0.200,0.200 0 0,0 12.500,15.800 "/>
<text x="7.809" y="15.143"  fill="#000000" text-anchor="start" font-size="0.80" font-family="sans" font-style="normal" font-weight="400">
View</text>
<rect x="4.700" y="17.500" width="7.600" height="2.000" fill="#D733FF" stroke="none" stroke-width="0"/>
<path stroke="none" fill="#D733FF" d ="M 4.700,17.500 A 0.200,0.200 0 0,0 4.500,17.700 "/>
<path stroke="none" fill="#D733FF" d ="M 12.500,17.700 A 0.200,0.200 0 0,0 12.300,17.500 "/>
<rect x="4.500" y="17.700" width="8.000" height="1.600" fill="#D733FF" stroke="none" stroke-width="0"/>
<path stroke="none" fill="#D733FF" d ="M 4.500,19.300 A 0.200,0.200 0 0,0 4.700,19.500 "/>
<path stroke="none" fill="#D733FF" d ="M 12.300,19.500 A 0.200,0.200 0 0,0 12.500,19.300 "/>
<line x1="4.700" y1="17.500" x2="12.300" y2="17.500" stroke="#000000" stroke-width="0.001" />
<line x1="4.700" y1="19.500" x2="12.300" y2="19.500" stroke="#000000" stroke-width="0.001" />
<path stroke="#000000" fill="none" stroke-width="0.001"  d ="M 4.700,17.500 A 0.200,0.200 0 0,0 4.500,17.700 "/>
<path stroke="#000000" fill="none" stroke-width="0.001"  d ="M 12.500,17.700 A 0.200,0.200 0 0,0 12.300,17.500 "/>
<line x1="4.500" y1="17.700" x2="4.500" y2="19.300" stroke="#000000" stroke-width="0.001" />
<line x1="12.500" y1="17.700" x2="12.500" y2="19.300" stroke="#000000" stroke-width="0.001" />
<path stroke="#000000" fill="none" stroke-width="0.001"  d ="M 4.500,19.300 A 0.200,0.200 0 0,0 4.700,19.500 "/>
<path stroke="#000000" fill="none" stroke-width="0.001"  d ="M 12.300,19.500 A 0.200,0.200 0 0,0 12.500,19.300 "/>
<text x="6.120" y="18.642"  fill="#000000" text-anchor="start" font-size="0.80" font-family="sans" font-style="normal" font-weight="400">
Response Writer</text>
<line x1="8.500" y1="0.500" x2="8.500" y2="2.976" stroke="#000000" stroke-width="0.200" />
<polygon fill="#FFFFFF" stroke="none" stroke-width="0.200" points="8.350,2.976 8.500,3.276 8.650,2.976 "/>
<polygon fill="none" stroke="#000000" stroke-width="0.200"  points="8.350,2.976 8.500,3.276 8.650,2.976 "/>
<line x1="8.500" y1="19.500" x2="8.500" y2="21.976" stroke="#000000" stroke-width="0.200" />
<polygon fill="#FFFFFF" stroke="none" stroke-width="0.200" points="8.350,21.976 8.500,22.276 8.650,21.976 "/>
<polygon fill="none" stroke="#000000" stroke-width="0.200"  points="8.350,21.976 8.500,22.276 8.650,21.976 "/>
<text x="5.500" y="6.500"  fill="#000000" text-anchor="start" font-size="0.80" font-family="sans" font-style="normal" font-weight="400">
ezcMvcRequest</text>
<text x="7.500" y="10.000"  fill="#000000" text-anchor="start" font-size="0.80" font-family="sans" font-style="normal" font-weight="400">
ezcMvcRoutingInformation</text>
<text x="9.500" y="13.500"  fill="#000000" text-anchor="start" font-size="0.80" font-family="sans" font-style="normal" font-weight="400">
ezcMvcResult</text>
<text x="11.500" y="17.000"  fill="#000000" text-anchor="start" font-size="0.80" font-family="sans" font-style="normal" font-weight="400">
ezcMvcResponse</text>
</svg>